<svg xmlns="http://www.w3.org/2000/svg" xmlns:xlink="http://www.w3.org/1999/xlink" width="310.96" height="240.51" viewBox="0 0 310.96 240.51"><defs><style>.cls-1{fill:none;}.cls-2{isolation:isolate;}.cls-3{fill:#b7b6b9;}.cls-4{fill:url(#linear-gradient);}.cls-19,.cls-5,.cls-53{fill:#fff;}.cls-6{fill:#e2e8f1;}.cls-7{fill:url(#linear-gradient-2);}.cls-8{fill:#b3b3b3;}.cls-9{fill:#eaf1f9;}.cls-10,.cls-11,.cls-12{opacity:0.21;mix-blend-mode:multiply;}.cls-10{fill:url(#linear-gradient-3);}.cls-11{fill:url(#linear-gradient-4);}.cls-12{fill:url(#linear-gradient-5);}.cls-13{fill:#cfdae8;}.cls-14{fill:#e8eff7;}.cls-15,.cls-17{fill:#dcf8f9;}.cls-16{fill:#b1cbe5;}.cls-16,.cls-19{opacity:0.59;}.cls-17,.cls-50{opacity:0.77;}.cls-18{fill:#456ee5;opacity:0.64;}.cls-20{opacity:0.74;}.cls-21{clip-path:url(#clip-path);}.cls-22{fill:#aeaeae;}.cls-23{fill:#a3a3a3;}.cls-24{fill:#989898;}.cls-25{clip-path:url(#clip-path-2);}.cls-26{fill:#8d8d8d;}.cls-27{fill:#828282;}.cls-28{fill:#777;}.cls-29{fill:#bbb;}.cls-30{clip-path:url(#clip-path-3);}.cls-31{clip-path:url(#clip-path-4);}.cls-32{fill:#858585;}.cls-33{clip-path:url(#clip-path-5);}.cls-34{fill:#d0d0d0;}.cls-35{fill:#818181;}.cls-36{fill:#747474;}.cls-37{clip-path:url(#clip-path-6);}.cls-38{clip-path:url(#clip-path-7);}.cls-39{clip-path:url(#clip-path-8);}.cls-40{fill:#c2c2c2;}.cls-41{fill:#b5b5b5;}.cls-42{fill:#a9a9a9;}.cls-43{fill:#9d9d9d;}.cls-44{fill:#5fa0c1;}.cls-45{fill:#3b6378;}.cls-46{clip-path:url(#clip-path-9);}.cls-47{fill:#919191;}.cls-48{fill:#d1d1d1;}.cls-49{fill:#d1dae5;}.cls-50{fill:#f4f9f9;}.cls-51{opacity:0.54;}.cls-52{fill:#e9d4f4;}.cls-53{opacity:0.72;}.cls-54{opacity:0.5;fill:url(#linear-gradient-6);}.cls-55{fill:#2d3d51;}.cls-56{fill:url(#linear-gradient-7);}.cls-57{fill:url(#linear-gradient-8);}.cls-58{fill:url(#linear-gradient-9);}.cls-59{fill:#c7d0d8;}.cls-60{fill:#ced4db;}.cls-61{fill:#cce2e2;}.cls-62{fill:#c5d0d8;}.cls-63{fill:#d3d8dd;}.cls-64{fill:#b3b7bc;}.cls-65{fill:#909091;}.cls-66{fill:#c4c8cc;}.cls-67{fill:#a0a1a3;}</style><linearGradient id="linear-gradient" x1="-119.17" y1="157.42" x2="-107.44" y2="180.89" gradientTransform="matrix(-1, 0, 0, 1, 139.3, 0)" gradientUnits="userSpaceOnUse"><stop offset="0" stop-color="#e6e6e6"/><stop offset="0.16" stop-color="#e2e2e2"/><stop offset="0.3" stop-color="#d8d8d8"/><stop offset="0.44" stop-color="#c6c6c6"/><stop offset="0.51" stop-color="#b8b8b8"/><stop offset="0.55" stop-color="#cacaca"/><stop offset="0.6" stop-color="#dbdbdb"/><stop offset="0.66" stop-color="#e6e6e6"/><stop offset="0.75" stop-color="#ededed"/><stop offset="1" stop-color="#efefef"/></linearGradient><linearGradient id="linear-gradient-2" x1="-173.24" y1="181.19" x2="-82.28" y2="137.69" gradientTransform="matrix(-1, 0, 0, 1, 139.3, 0)" gradientUnits="userSpaceOnUse"><stop offset="0" stop-color="#e6e6e6"/><stop offset="1" stop-color="#f2f2f2"/></linearGradient><linearGradient id="linear-gradient-3" x1="-88.64" y1="256.55" x2="-67.53" y2="256.55" gradientTransform="matrix(-1, 0, 0, 1, 29.67, -49.08)" gradientUnits="userSpaceOnUse"><stop offset="0"/><stop offset="0.3" stop-color="#020202"/><stop offset="0.44" stop-color="#0a0a0a"/><stop offset="0.54" stop-color="#161616"/><stop offset="0.63" stop-color="#282828"/><stop offset="0.71" stop-color="#404040"/><stop offset="0.78" stop-color="#5d5d5d"/><stop offset="0.84" stop-color="gray"/><stop offset="0.9" stop-color="#a8a8a8"/><stop offset="0.96" stop-color="#d4d4d4"/><stop offset="1" stop-color="#fff"/></linearGradient><linearGradient id="linear-gradient-4" x1="-64.41" y1="270.28" x2="-43.3" y2="270.28" xlink:href="#linear-gradient-3"/><linearGradient id="linear-gradient-5" x1="-40.66" y1="283.32" x2="-19.55" y2="283.32" xlink:href="#linear-gradient-3"/><clipPath id="clip-path" transform="translate(-6.97 -49.08)"><path class="cls-1" d="M64.05,170.39a5.62,5.62,0,0,0,2-2.06l2.38,1.39a5.64,5.64,0,0,1-2,2.06Z"/></clipPath><clipPath id="clip-path-2" transform="translate(-6.97 -49.08)"><path class="cls-1" d="M66,168.33a5.62,5.62,0,0,0,.81-2.71L69.18,167a5.56,5.56,0,0,1-.8,2.72Z"/></clipPath><clipPath id="clip-path-3" transform="translate(-6.97 -49.08)"><path class="cls-1" d="M11,202.83l-2.38-1.39a1.92,1.92,0,0,0,2-.19L13,202.63A1.93,1.93,0,0,1,11,202.83Z"/></clipPath><clipPath id="clip-path-4" transform="translate(-6.97 -49.08)"><path class="cls-1" d="M11,202.83l-2.38-1.39a1.91,1.91,0,0,1-.81-1.77l2.38,1.38A1.94,1.94,0,0,0,11,202.83Z"/></clipPath><clipPath id="clip-path-5" transform="translate(-6.97 -49.08)"><path class="cls-1" d="M10.58,203.56,8.2,202.17a2.36,2.36,0,0,1-1-2.15L9.6,201.4A2.36,2.36,0,0,0,10.58,203.56Z"/></clipPath><clipPath id="clip-path-6" transform="translate(-6.97 -49.08)"><path class="cls-1" d="M66.55,75.38a2.61,2.61,0,0,0-.22-1.11l2.38,1.38a2.61,2.61,0,0,1,.22,1.11Z"/></clipPath><clipPath id="clip-path-7" transform="translate(-6.97 -49.08)"><path class="cls-1" d="M66.33,74.27a1.42,1.42,0,0,0-.59-.66L68.12,75a1.47,1.47,0,0,1,.59.66Z"/></clipPath><clipPath id="clip-path-8" transform="translate(-6.97 -49.08)"><path class="cls-1" d="M65.74,73.61,68.12,75a2,2,0,0,0-2,.19L63.77,73.8A1.92,1.92,0,0,1,65.74,73.61Z"/></clipPath><clipPath id="clip-path-9" transform="translate(-6.97 -49.08)"><path class="cls-1" d="M9.94,110.82l-2.37-1.39a6.07,6.07,0,0,1,2.75-4.77L12.7,106A6.08,6.08,0,0,0,9.94,110.82Z"/></clipPath><linearGradient id="linear-gradient-6" x1="129.03" y1="147.42" x2="187.24" y2="147.42" gradientUnits="userSpaceOnUse"><stop offset="0" stop-color="#435d82"/><stop offset="0.15" stop-color="#415a7d"/><stop offset="0.34" stop-color="#3a4f6d"/><stop offset="0.55" stop-color="#2e3f54"/><stop offset="0.57" stop-color="#2d3d51"/><stop offset="0.74" stop-color="#29384b"/><stop offset="0.96" stop-color="#1c283a"/><stop offset="0.99" stop-color="#1a2638"/></linearGradient><linearGradient id="linear-gradient-7" x1="136.87" y1="165.68" x2="166.28" y2="165.68" xlink:href="#linear-gradient-6"/><linearGradient id="linear-gradient-8" x1="194.45" y1="176.5" x2="166.4" y2="160.31" gradientUnits="userSpaceOnUse"><stop offset="0" stop-color="#435d82"/><stop offset="0.23" stop-color="#384d6a"/><stop offset="0.51" stop-color="#2d3d51"/><stop offset="0.62" stop-color="#253346"/><stop offset="0.79" stop-color="#1d293b"/><stop offset="0.99" stop-color="#1a2638"/></linearGradient><linearGradient id="linear-gradient-9" x1="169.94" y1="182.52" x2="169.94" y2="167.01" gradientUnits="userSpaceOnUse"><stop offset="0" stop-color="#435d82"/><stop offset="0.09" stop-color="#3a4f6d"/><stop offset="0.19" stop-color="#33455d"/><stop offset="0.31" stop-color="#2e3f54"/><stop offset="0.47" stop-color="#2d3d51"/><stop offset="0.99" stop-color="#1a2638"/></linearGradient></defs><title>analyse-your-business</title><g class="cls-2"><g id="Layer_1" data-name="Layer 1"><path class="cls-3" d="M267,163.37V174a6.62,6.62,0,0,1-3.29,5.73l-6.55,3.72L238.13,172.4l6.52-3.56a6.63,6.63,0,0,0,3.35-5.76V152.35Z" transform="translate(-6.97 -49.08)"/><path class="cls-4" d="M265.43,161.94v10.64a6.65,6.65,0,0,1-3.31,5.75l-4.93,2.76L238.13,170l4.89-2.62a6.63,6.63,0,0,0,3.38-5.77V150.92Z" transform="translate(-6.97 -49.08)"/><polygon class="cls-3" points="231.17 120.94 231.17 123.33 250.23 134.39 250.23 132.01 231.17 120.94"/><path class="cls-5" d="M214.62,50a4.28,4.28,0,0,1,1.08-.61h0a4.31,4.31,0,0,1,2.11-.28,2.64,2.64,0,0,1,1.05.28h0a4,4,0,0,1,.56.26l3.32,1.89,0,0h0l88.87,50.16-3.06,1.81L216.34,51.45a4.3,4.3,0,0,0-4.07-.12Z" transform="translate(-6.97 -49.08)"/><path class="cls-6" d="M310.19,104.45a9.23,9.23,0,0,1,4.66,8l-.16,67.28L209.94,120.33l-.06-65.12a4.27,4.27,0,0,1,2-3.66h0l.38-.22a4.3,4.3,0,0,1,4.07.12l92.23,52.08h0Z" transform="translate(-6.97 -49.08)"/><path class="cls-7" d="M314.61,179.73l0,7.37a4.26,4.26,0,0,1-2.11,3.7l-.08,0h0a4.27,4.27,0,0,1-4.25,0l-96.07-54.52a4.33,4.33,0,0,1-2.17-3.75l0-12.27Z" transform="translate(-6.97 -49.08)"/><path class="cls-8" d="M314.67,187.12l0-7.36.06,0,3-1.73,0,7.27a4.28,4.28,0,0,1-1.85,3.54h0a4.79,4.79,0,0,1-.58.33l-2.76,1.62A4.26,4.26,0,0,0,314.67,187.12Z" transform="translate(-6.97 -49.08)"/><path class="cls-9" d="M314.69,179.76l.16-67.28a9.23,9.23,0,0,0-4.66-8l-1.62-.92,3.06-1.81,1.64.94a9.22,9.22,0,0,1,4.66,8l-.16,67.37-3,1.73Z" transform="translate(-6.97 -49.08)"/><polygon class="cls-3" points="301.6 54.45 301.6 54.45 303.23 55.37 301.6 54.45"/><polygon class="cls-10" points="118.31 207.46 107.2 201.19 97.2 207.64 107.82 213.74 118.31 207.46"/><polygon class="cls-11" points="94.08 221.19 82.97 214.92 72.97 221.37 83.59 227.47 94.08 221.19"/><polygon class="cls-12" points="70.33 234.23 59.22 227.96 49.22 234.41 59.84 240.51 70.33 234.23"/><polygon class="cls-5" points="118.14 168.39 107.65 174.67 97.03 168.57 107.52 162.29 118.14 168.39"/><polygon class="cls-13" points="118.14 168.39 107.65 174.67 107.65 210.02 118.14 203.74 118.14 168.39"/><polygon class="cls-14" points="97.89 203.92 108.51 210.02 108.51 174.67 97.89 168.57 97.89 203.92"/><polygon class="cls-5" points="93.91 192.4 83.42 198.68 72.8 192.58 83.29 186.3 93.91 192.4"/><polygon class="cls-13" points="93.91 192.4 83.42 198.68 83.42 223.92 93.91 217.64 93.91 192.4"/><polygon class="cls-14" points="73.67 217.82 84.29 223.92 84.29 198.68 73.67 192.58 73.67 217.82"/><polygon class="cls-5" points="70.09 222.77 59.6 229.06 48.98 222.95 59.47 216.67 70.09 222.77"/><polygon class="cls-13" points="70.09 222.77 59.6 229.06 59.6 237.56 70.09 231.28 70.09 222.77"/><polygon class="cls-14" points="48.98 231.46 59.6 237.56 59.6 229.06 48.98 222.95 48.98 231.46"/><path class="cls-5" d="M55.66,260.43l14.67-8.62.13-13.69a.4.4,0,0,1,.19-.33l26.09-15L96.85,209a.4.4,0,0,1,.2-.33l14-8.06a.39.39,0,0,1,.53.14l.19.34a.42.42,0,0,1,0,.29.39.39,0,0,1-.19.23L98,209.44l-.12,13.79a.39.39,0,0,1-.19.33l-26.09,15-.12,13.69a.41.41,0,0,1-.2.33l-15.05,8.84a.41.41,0,0,1-.19.05H56a.43.43,0,0,1-.24-.18l-.19-.33A.38.38,0,0,1,55.66,260.43Z" transform="translate(-6.97 -49.08)"/><path class="cls-15" d="M110,200.92a1.47,1.47,0,1,0,1.46-1.46A1.46,1.46,0,0,0,110,200.92Z" transform="translate(-6.97 -49.08)"/><path class="cls-15" d="M95.92,209.1a1.47,1.47,0,1,0,1.46-1.46A1.46,1.46,0,0,0,95.92,209.1Z" transform="translate(-6.97 -49.08)"/><path class="cls-15" d="M95.85,223.11a1.47,1.47,0,0,0,2.93,0,1.47,1.47,0,1,0-2.93,0Z" transform="translate(-6.97 -49.08)"/><path class="cls-15" d="M69.64,238.54a1.47,1.47,0,1,0,1.47-1.46A1.47,1.47,0,0,0,69.64,238.54Z" transform="translate(-6.97 -49.08)"/><path class="cls-15" d="M69.64,252a1.47,1.47,0,1,0,1.47-1.47A1.46,1.46,0,0,0,69.64,252Z" transform="translate(-6.97 -49.08)"/><path class="cls-15" d="M54.7,261.09a1.47,1.47,0,1,0,1.47-1.46A1.47,1.47,0,0,0,54.7,261.09Z" transform="translate(-6.97 -49.08)"/><polygon class="cls-16" points="209.31 79.4 208.83 9.73 299.41 60.51 299.89 130.41 209.31 79.4"/><polygon class="cls-17" points="232.3 86.1 232.3 72.15 242.41 77.78 242.41 91.68 232.3 86.1"/><polygon class="cls-18" points="232.3 72.39 232.3 66.79 242.41 72.42 242.41 77.97 232.3 72.39"/><polygon class="cls-18" points="247.29 72.81 247.29 68.08 257.4 73.71 257.4 78.38 247.29 72.81"/><polygon class="cls-5" points="247.29 68.04 247.29 60.49 257.4 66.13 257.4 73.61 247.29 68.04"/><polygon class="cls-5" points="232.3 66.94 232.3 63.51 242.41 69.14 242.41 72.51 232.3 66.94"/><polygon class="cls-5" points="262.08 69.61 262.08 54.66 272.19 60.3 272.19 75.18 262.08 69.61"/><polygon class="cls-5" points="275.7 67.25 275.7 56.04 285.81 61.67 285.81 72.82 275.7 67.25"/><polygon class="cls-17" points="247.29 94.79 247.29 72.82 257.4 78.45 257.4 100.36 247.29 94.79"/><polygon class="cls-17" points="262.08 103.1 262.08 69.6 272.19 75.24 272.19 108.67 262.08 103.1"/><polygon class="cls-17" points="275.7 110.97 275.7 67.08 285.81 72.71 285.81 116.54 275.7 110.97"/><polygon class="cls-19" points="208.8 9.68 211.69 8.03 302.3 58.85 299.41 60.51 208.8 9.68"/><polygon class="cls-8" points="302.78 59.26 299.89 60.91 299.92 130.41 302.81 128.76 302.78 59.26"/><polygon class="cls-17" points="225.59 42.41 225.59 47.87 235.51 53.79 235.64 48.08 225.59 42.41"/><polygon class="cls-5" points="225.59 26.73 225.59 32.19 235.51 38.1 235.64 32.39 225.59 26.73"/><polygon class="cls-18" points="225.59 35.04 225.59 40.51 235.51 46.42 235.64 40.71 225.59 35.04"/><g class="cls-20"><polygon class="cls-14" points="236.59 48.51 236.59 51.1 249.99 58.67 250.05 55.96 236.59 48.51"/><polygon class="cls-14" points="236.59 34.02 236.59 36.61 249.99 44.18 250.05 41.47 236.59 34.02"/><polygon class="cls-14" points="236.59 41.44 236.59 44.03 249.99 51.6 250.05 48.89 236.59 41.44"/></g><g class="cls-2"><g class="cls-2"><g class="cls-21"><g class="cls-2"><path class="cls-22" d="M66.42,171.78l-2.37-1.39a5.22,5.22,0,0,0,1.34-1.17l2.38,1.38a5.33,5.33,0,0,1-1.35,1.18Z" transform="translate(-6.97 -49.08)"/><path class="cls-23" d="M67.77,170.6l-2.38-1.38a7.17,7.17,0,0,0,.45-.63L68.22,170c-.14.21-.29.42-.45.62Z" transform="translate(-6.97 -49.08)"/><path class="cls-24" d="M68.22,170l-2.38-1.39c.12-.19.23-.38.34-.58l2.37,1.38c-.1.2-.21.4-.33.59Z" transform="translate(-6.97 -49.08)"/></g></g></g><g class="cls-2"><g class="cls-25"><g class="cls-2"><path class="cls-24" d="M68.22,170l-2.38-1.39c.12-.19.23-.38.34-.58l2.37,1.38c-.1.2-.21.4-.33.59Z" transform="translate(-6.97 -49.08)"/><path class="cls-26" d="M68.55,169.39,66.18,168c.1-.2.19-.41.27-.61l2.37,1.38a4.72,4.72,0,0,1-.27.61Z" transform="translate(-6.97 -49.08)"/><path class="cls-27" d="M68.82,168.78l-2.37-1.38c.08-.23.16-.46.22-.69L69,168.09a4.59,4.59,0,0,1-.22.69Z" transform="translate(-6.97 -49.08)"/><path class="cls-28" d="M69,168.09l-2.37-1.38a4.66,4.66,0,0,0,.14-1.09L69.18,167a4.66,4.66,0,0,1-.14,1.09Z" transform="translate(-6.97 -49.08)"/></g></g></g><polygon class="cls-29" points="6.01 153.55 3.63 152.17 57.08 121.31 59.46 122.69 6.01 153.55"/><g class="cls-2"><g class="cls-30"><g class="cls-2"><path class="cls-26" d="M11,202.83l-2.38-1.39a1,1,0,0,0,.23.11l2.37,1.38-.22-.1Z" transform="translate(-6.97 -49.08)"/><path class="cls-24" d="M11.23,202.93l-2.37-1.38a1.59,1.59,0,0,0,.39.08L11.63,203a1.77,1.77,0,0,1-.4-.08Z" transform="translate(-6.97 -49.08)"/><path class="cls-23" d="M11.63,203l-2.38-1.38a2.28,2.28,0,0,0,.51,0L12.14,203a1.81,1.81,0,0,1-.51,0Z" transform="translate(-6.97 -49.08)"/><path class="cls-22" d="M12.14,203l-2.38-1.38a3.15,3.15,0,0,0,.84-.34L13,202.63a3,3,0,0,1-.83.34Z" transform="translate(-6.97 -49.08)"/></g></g></g><g class="cls-2"><g class="cls-31"><g class="cls-2"><path class="cls-32" d="M11,202.83l-2.38-1.39a1.91,1.91,0,0,1-.81-1.77l2.38,1.38a1.94,1.94,0,0,0,.81,1.78Z" transform="translate(-6.97 -49.08)"/></g></g></g><g class="cls-2"><g class="cls-33"><g class="cls-2"><path class="cls-28" d="M10.58,203.56,8.2,202.17a2.36,2.36,0,0,1-1-2.15L9.6,201.4a2.36,2.36,0,0,0,1,2.16Z" transform="translate(-6.97 -49.08)"/></g></g></g><polygon class="cls-34" points="6.38 145.03 4.01 143.65 56.66 113.25 59.04 114.64 6.38 145.03"/><polygon class="cls-35" points="59.04 114.64 56.66 113.25 56.43 32.74 58.81 34.12 59.04 114.64"/><polygon class="cls-36" points="62.22 117.92 59.84 116.53 59.58 26.3 61.96 27.68 62.22 117.92"/><g class="cls-2"><g class="cls-37"><g class="cls-2"><path class="cls-28" d="M68.93,76.76l-2.38-1.38a1.92,1.92,0,0,0-.81-1.77L68.12,75a1.94,1.94,0,0,1,.81,1.77Z" transform="translate(-6.97 -49.08)"/></g></g></g><g class="cls-2"><g class="cls-38"><g class="cls-2"><path class="cls-28" d="M68.93,76.76l-2.38-1.38a1.92,1.92,0,0,0-.81-1.77L68.12,75a1.94,1.94,0,0,1,.81,1.77Z" transform="translate(-6.97 -49.08)"/></g></g></g><g class="cls-2"><g class="cls-39"><g class="cls-2"><path class="cls-40" d="M66.15,75.18,63.77,73.8a3,3,0,0,1,.84-.34L67,74.84a2.91,2.91,0,0,0-.84.34Z" transform="translate(-6.97 -49.08)"/><path class="cls-41" d="M67,74.84l-2.38-1.38a2.28,2.28,0,0,1,.51,0l2.37,1.38a2.2,2.2,0,0,0-.5,0Z" transform="translate(-6.97 -49.08)"/><path class="cls-42" d="M67.49,74.8l-2.37-1.38a1.59,1.59,0,0,1,.39.08l2.38,1.38a1.67,1.67,0,0,0-.4-.08Z" transform="translate(-6.97 -49.08)"/><path class="cls-43" d="M67.89,74.88,65.51,73.5a1,1,0,0,1,.23.11L68.12,75l-.23-.11Z" transform="translate(-6.97 -49.08)"/></g></g></g><path class="cls-6" d="M66.55,74.29l.23-.09.09,0,.25-.07h0l.15,0,.17,0a.57.57,0,0,1,.13,0h.16l.27,0h0a.66.66,0,0,1,.2.06,1.23,1.23,0,0,1,.26.12l-2.37-1.38a1.51,1.51,0,0,0-.26-.12h0l-.19,0h0l-.25,0H65.1l-.17,0-.13,0h0l-.05,0a1.36,1.36,0,0,0-.25.07l-.09,0a.85.85,0,0,0-.22.09l-.1,0-.31.16,2.38,1.38.31-.16Z" transform="translate(-6.97 -49.08)"/><polygon class="cls-44" points="6.16 64.52 3.78 63.14 56.43 32.74 58.81 34.12 6.16 64.52"/><polygon class="cls-45" points="6.38 145.03 4.01 143.65 3.78 63.14 6.16 64.52 6.38 145.03"/><path class="cls-9" d="M12.7,106a6.08,6.08,0,0,0-2.76,4.78l.26,90.23c0,1.75,1.25,2.47,2.77,1.58l53.45-30.85A6.09,6.09,0,0,0,69.18,167l-.25-90.24c0-1.75-1.25-2.46-2.78-1.58ZM66,163.72,13.35,194.11l-.23-80.51L65.77,83.2,66,163.72Z" transform="translate(-6.97 -49.08)"/><polygon class="cls-35" points="3.23 151.97 0.85 150.59 0.6 60.35 2.98 61.73 3.23 151.97"/><polygon class="cls-34" points="5.73 56.96 3.36 55.58 56.81 24.72 59.18 26.1 5.73 56.96"/><g class="cls-2"><g class="cls-46"><g class="cls-2"><path class="cls-32" d="M9.94,110.82l-2.37-1.39a3.8,3.8,0,0,1,.14-1.09l2.37,1.38a4.67,4.67,0,0,0-.14,1.1Z" transform="translate(-6.97 -49.08)"/><path class="cls-47" d="M10.08,109.72l-2.37-1.38a6,6,0,0,1,.21-.69L10.3,109a6.12,6.12,0,0,0-.22.69Z" transform="translate(-6.97 -49.08)"/><path class="cls-43" d="M10.3,109l-2.38-1.38A4.78,4.78,0,0,1,8.2,107l2.37,1.38c-.1.2-.19.41-.27.61Z" transform="translate(-6.97 -49.08)"/><path class="cls-42" d="M10.57,108.42,8.2,107a5.45,5.45,0,0,1,.33-.58l2.38,1.38c-.12.19-.24.38-.34.58Z" transform="translate(-6.97 -49.08)"/><path class="cls-41" d="M10.91,107.84l-2.38-1.38a7.17,7.17,0,0,1,.45-.63l2.38,1.38a7.17,7.17,0,0,0-.45.63Z" transform="translate(-6.97 -49.08)"/><path class="cls-40" d="M11.36,107.21,9,105.83a5.22,5.22,0,0,1,1.34-1.17L12.7,106a5.06,5.06,0,0,0-1.34,1.17Z" transform="translate(-6.97 -49.08)"/></g></g></g><path class="cls-48" d="M12.7,105.35a7.42,7.42,0,0,0-3.36,5.81L9.6,201.4c0,2.13,1.52,3,3.38,1.92l53.45-30.86a7.36,7.36,0,0,0,3.35-5.81l-.26-90.23c0-2.14-1.51-3-3.37-1.93ZM69.18,167a6.09,6.09,0,0,1-2.76,4.78L13,202.63c-1.52.89-2.77.17-2.77-1.58l-.26-90.23A6.08,6.08,0,0,1,12.7,106L66.15,75.18c1.53-.88,2.77-.17,2.78,1.58L69.18,167Z" transform="translate(-6.97 -49.08)"/><polygon class="cls-49" points="58.81 34.12 59.04 114.64 6.38 145.03 6.16 64.52 58.81 34.12"/><polygon class="cls-9" points="2.63 152.32 0.26 150.93 0 60.7 2.38 62.08 2.63 152.32"/><polygon class="cls-5" points="5.73 56.27 3.35 54.89 56.8 24.03 59.18 25.41 5.73 56.27"/><path class="cls-5" d="M9.37,110.67l0-.26a.68.68,0,0,0,0-.14l.06-.26a.69.69,0,0,1,0-.13l.06-.21.06-.21.07-.21.07-.21c0-.09.07-.18.11-.26l.05-.14c.06-.11.11-.23.17-.35l0,0c.06-.13.13-.26.2-.39l.07-.11a2.13,2.13,0,0,1,.16-.25l.14-.22.12-.16.16-.21.12-.15c.11-.14.22-.26.34-.39l.09-.09.27-.26.13-.11.27-.22.12-.09c.13-.09.26-.18.4-.26L10.32,104l-.4.26-.12.09-.27.22-.12.11a3.45,3.45,0,0,0-.28.26L9,105a4.32,4.32,0,0,0-.34.39h0l-.11.14-.16.2-.12.17-.14.22,0,0a1.59,1.59,0,0,0-.13.22l-.07.11c-.08.13-.14.25-.21.38h0l0,0c-.06.12-.11.23-.16.35l-.06.14-.09.21s0,0,0,0,0,.14-.08.22,0,.13-.07.2l-.06.22s0,.1,0,.16a.09.09,0,0,0,0,0l0,.13a2,2,0,0,0,0,.26L7,109l0,.26s0,.08,0,.12,0,.25,0,.37l2.37,1.38c0-.12,0-.25,0-.37S9.37,110.71,9.37,110.67Z" transform="translate(-6.97 -49.08)"/></g><polygon class="cls-17" points="9.74 69.04 9.71 140.03 56.96 112.39 57.21 41.15 9.74 69.04 9.74 69.04"/><polygon class="cls-50" points="57.28 41.13 9.74 69.04 7.66 68.22 55.65 40.55 57.28 41.13"/><polygon class="cls-8" points="7.66 68.22 7.83 138.54 9.72 139.77 9.74 69.04 7.66 68.22"/><g class="cls-51"><path class="cls-5" d="M53.41,116.34c-3.47-1.9-8.26-1.57-13.54,1.45C31,122.88,23.5,134,21.3,144.47a29.42,29.42,0,0,0-.66,6c0,12,8.61,16.78,19.23,10.7s19.22-20.72,19.22-32.7C59.09,122.47,56.92,118.27,53.41,116.34ZM39.87,160c-10,5.74-18.15,1.22-18.15-10.09a28.14,28.14,0,0,1,.62-5.69c2.08-9.91,9.14-20.38,17.53-25.18,5-2.85,9.5-3.17,12.78-1.37S58,123.42,58,129.11C58,140.42,49.89,154.24,39.87,160Z" transform="translate(-6.97 -49.08)"/><path class="cls-52" d="M45.23,130.33c-1.38-.76-3.27-.63-5.36.57v-7.26c3.86-2.21,7.36-2.46,9.9-1.06Z" transform="translate(-6.97 -49.08)"/><path class="cls-18" d="M32.25,143.85c0,4.74,3.41,6.64,7.62,4.23s7.61-8.2,7.61-12.94c0-2.39-.86-4-2.25-4.81l4.54-7.75c2.56,1.4,4.15,4.47,4.15,8.87,0,8.76-6.29,19.46-14.05,23.9s-14,.94-14-7.82a21.85,21.85,0,0,1,.48-4.4l6.22-1.67A11.75,11.75,0,0,0,32.25,143.85Z" transform="translate(-6.97 -49.08)"/><path class="cls-53" d="M32.52,141.46l-6.22,1.67c1.61-7.68,7.07-15.78,13.57-19.49v7.26A16.85,16.85,0,0,0,32.52,141.46Z" transform="translate(-6.97 -49.08)"/></g><polygon class="cls-54" points="156.51 130.12 129.03 146.31 158.98 164.73 187.24 149.06 156.51 130.12"/><path class="cls-14" d="M136.79,186.68c0-.59.05-1.8,0-2.29s0-.77,0-1.17a1.72,1.72,0,0,1,.09-.52,1.5,1.5,0,0,1,.34-.56c2.73-3.06,10.73-5.8,12.47-6.25h0c-4.3-2.94-12.8-9.71-12.8-9.71s-.33-11.8-.12-13a.06.06,0,0,1,.09,0l29.42,18.72h0l0,31.73C166,203.45,136.78,186.91,136.79,186.68Z" transform="translate(-6.97 -49.08)"/><path class="cls-13" d="M166.35,203.62c-.11-10.36-.25-21.28-.36-31.63l15.85-9.64-.13-.08h.22l13.49-9.15c.22,3.31-9.44,9.72-13.71,9.14,3.46,3.11,10.19,6.51,13.65,9.62l.09,11.48c0,.34,0,2.29,0,3.34C195,187.51,166.63,203.57,166.35,203.62Z" transform="translate(-6.97 -49.08)"/><path class="cls-5" d="M166.1,172.46l-29.23-19.25s0,0,0,0c.95-.64,28.75-17.24,29.26-17.24s28.34,16.63,29.31,17.21c0,0,0,0,0,0L182,162.3h-.33l.16.1-15.68,10.06Z" transform="translate(-6.97 -49.08)"/><path class="cls-55" d="M136.88,163a23.58,23.58,0,0,0,.17,3.55,141.82,141.82,0,0,0,12.69,9.3l1.07-.07a10.94,10.94,0,0,1,3.67.59l7,2.77a44.92,44.92,0,0,0,6.41,2,44.26,44.26,0,0,0,8.71,1.16,40.72,40.72,0,0,0,5.83,0,24.32,24.32,0,0,0,6.61-1.61,11.47,11.47,0,0,0,4.87-3.67,13.23,13.23,0,0,0,1.5-2.28,21.93,21.93,0,0,0,0-2.91,2.56,2.56,0,0,0-1.07-1.47c-3.07-2.06-12.56-8.18-12.57-8.18-.49,0-3.08-.07-4.92-.13a44.44,44.44,0,0,1-8.72-1.17q-.9-.21-1.74-.45a44.43,44.43,0,0,1-4.67-1.6l-6.94-2.77a11.08,11.08,0,0,0-3.68-.58,12.56,12.56,0,0,0-3.41.58,21,21,0,0,0-5.17,2.48C138.12,161.29,136.92,162.2,136.88,163Z" transform="translate(-6.97 -49.08)"/><path class="cls-55" d="M166.37,167.31" transform="translate(-6.97 -49.08)"/><path class="cls-56" d="M166.28,160.52s-3-1.1-4.3-1.63L155,156.12a11,11,0,0,0-3.68-.58,9.82,9.82,0,0,0-3.44.41,21.33,21.33,0,0,0-5.19,2.53c-4.38,2.63-5.74,3.66-5.81,4.5a24.31,24.31,0,0,0,.06,3.55,1.65,1.65,0,0,0,.15.42.44.44,0,0,0,.08.11c.55.5,4.83,3.8,4.83,3.8a65.79,65.79,0,0,0,7.73,5l.58,0h0l15.9-8.8Z" transform="translate(-6.97 -49.08)"/><path class="cls-57" d="M195.39,172a2.56,2.56,0,0,0-1.07-1.47c-2.81-1.88-11-7.17-12.4-8.08-.14-.08-3.25-.17-5.09-.23a44.44,44.44,0,0,1-8.72-1.17q-.9-.21-1.74-.45l-.09,0,0,6.49,23.37,13.56a10.65,10.65,0,0,0,4.25-3.43,13.23,13.23,0,0,0,1.5-2.28A21.93,21.93,0,0,0,195.39,172Z" transform="translate(-6.97 -49.08)"/><path class="cls-58" d="M150.27,175.87l.75-.05a10.94,10.94,0,0,1,3.67.59l6.95,2.77a43.71,43.71,0,0,0,15.12,3.21,40.72,40.72,0,0,0,5.83,0,24.32,24.32,0,0,0,6.61-1.61l.4-.18L166.24,167Z" transform="translate(-6.97 -49.08)"/><polygon class="cls-59" points="265.01 173.09 264.98 185.79 248.24 207.39 248.28 194.69 265.01 173.09"/><path class="cls-6" d="M284.37,226.88l-25.28,14.69,14.67-18.94A49.72,49.72,0,0,1,284.37,226.88Z" transform="translate(-6.97 -49.08)"/><polygon class="cls-60" points="277.41 177.8 277.37 190.5 252.09 205.19 252.13 192.49 277.41 177.8"/><polygon class="cls-61" points="289.38 189.67 289.34 202.37 252.2 206.84 252.23 194.14 289.38 189.67"/><path class="cls-62" d="M214.8,244l0,12.7c0,4.35,2,8.7,6.06,12.53l0-12.7C216.81,252.73,214.78,248.37,214.8,244Z" transform="translate(-6.97 -49.08)"/><path class="cls-5" d="M272,222.17l-16.73,21.6-34.39,12.79c-9.72-9.19-7.77-21.34,5.91-29.29C239,220.18,257,218.49,272,222.17Z" transform="translate(-6.97 -49.08)"/><polygon class="cls-63" points="248.28 194.69 248.24 207.39 213.86 220.18 213.89 207.48 248.28 194.69"/><path class="cls-64" d="M296.82,239.86c2.38,7.45-1.37,15.42-11.28,21.18a38.7,38.7,0,0,1-3.57,1.84l-24-18.35Z" transform="translate(-6.97 -49.08)"/><polygon class="cls-65" points="274.93 213.8 274.9 226.5 250.92 208.15 250.95 195.44 274.93 213.8"/><path class="cls-14" d="M256,244.91l24.37,18.66c-16.07,6.71-38.66,5.87-53.2-2.53a33.27,33.27,0,0,1-5.05-3.53Z" transform="translate(-6.97 -49.08)"/><path class="cls-66" d="M276.39,265a60,60,0,0,1-7.74,1.92c-1.74.32-3.51.56-5.29.74-1.52.15-3.05.25-4.59.31s-2.81.05-4.21,0-2.71-.11-4.06-.22-2.68-.26-4-.45-2.73-.43-4.07-.71-2.92-.66-4.33-1.06q-2.58-.74-5-1.68a44.76,44.76,0,0,1-5.95-2.86,33.27,33.27,0,0,1-5.05-3.53l0,12.71a34.75,34.75,0,0,0,5.05,3.53,45.37,45.37,0,0,0,5.95,2.85c1.6.63,3.27,1.19,5,1.68,1.42.41,2.86.76,4.34,1.07s2.69.51,4.07.7,2.66.34,4,.45,2.7.18,4.05.22,2.81,0,4.22,0,3.06-.15,4.58-.31c1.79-.17,3.56-.42,5.3-.73a61.5,61.5,0,0,0,7.73-1.93c1.36-.44,2.68-.93,4-1.46l0-12.7C279.07,264.1,277.74,264.59,276.39,265Z" transform="translate(-6.97 -49.08)"/><path class="cls-67" d="M297.43,244.65a13.44,13.44,0,0,1-.27,2.36,15.2,15.2,0,0,1-.66,2.32,17.69,17.69,0,0,1-1.1,2.34,19.48,19.48,0,0,1-1.65,2.45,24,24,0,0,1-2.55,2.75,31.8,31.8,0,0,1-5.19,3.85c-.18.11-.36.22-.55.32a38.52,38.52,0,0,1-3.56,1.84l0,12.71c1.23-.57,2.43-1.18,3.56-1.84l.56-.33a32.13,32.13,0,0,0,5.18-3.85,24.14,24.14,0,0,0,2.56-2.75,19.38,19.38,0,0,0,1.64-2.45,16.51,16.51,0,0,0,1.1-2.34,14.14,14.14,0,0,0,.66-2.32,14.48,14.48,0,0,0,.28-2.36V257l0-12.7C297.44,244.4,297.43,244.53,297.43,244.65Z" transform="translate(-6.97 -49.08)"/><path class="cls-15" d="M285.76,227.67c5.29,3.21,8.75,7.05,10.39,11.08L259,243.22Z" transform="translate(-6.97 -49.08)"/></g></g></svg>