<svg xmlns="http://www.w3.org/2000/svg" xmlns:xlink="http://www.w3.org/1999/xlink" width="327.99" height="231.41" viewBox="0 0 327.99 231.41"><defs><style>.cls-1{fill:none;}.cls-2{isolation:isolate;}.cls-3{fill:#d4d4d4;}.cls-4{fill:#fff;}.cls-30,.cls-35,.cls-5{mix-blend-mode:multiply;}.cls-6{fill:#aadee6;}.cls-7{fill:#c5d4d4;}.cls-8{fill:#9c9c9c;}.cls-9{fill:#8c8c8c;}.cls-10{opacity:0.62;}.cls-11{fill:#dcdcdc;}.cls-12{fill:#838383;}.cls-13{fill:#fcfcfc;}.cls-14,.cls-30{fill:#ccc;}.cls-15{fill:#9e9e9e;}.cls-16{fill:#adadad;}.cls-17{fill:#c5c5c5;}.cls-18{fill:#a7a7a7;}.cls-19{fill:#969696;}.cls-20{fill:#e0e0e0;}.cls-21{fill:#666;}.cls-22{fill:#383838;}.cls-23{fill:#404040;}.cls-23,.cls-27{mix-blend-mode:screen;}.cls-24{clip-path:url(#clip-path);}.cls-25{fill:#e2e8f1;}.cls-26{fill:#3b3b3b;}.cls-28{clip-path:url(#clip-path-2);}.cls-29{fill:#333;}.cls-31{fill:#757575;}.cls-32{fill:#c0edeb;}.cls-33{fill:#a5ccca;}.cls-34{fill:#bbe5ef;}.cls-35{fill:#d9d9d9;}.cls-36{fill:#c4d0d6;}.cls-37{fill:#d9e5e8;}.cls-38{fill:#e2e8ed;}.cls-39,.cls-72{opacity:0.3;}.cls-39{fill:url(#linear-gradient);}.cls-40{fill:#e6e6e6;}.cls-41{fill:#1f1f1f;}.cls-42{fill:#585858;}.cls-43{fill:#656565;}.cls-44{fill:#7a7a7a;}.cls-45{fill:#cfcfcf;}.cls-46{clip-path:url(#clip-path-3);}.cls-47{fill:#454545;}.cls-48{fill:#e8eff7;}.cls-49{fill:#cfdae8;}.cls-50{fill:#2d3d51;}.cls-51{fill:url(#linear-gradient-2);}.cls-52{fill:url(#linear-gradient-3);}.cls-53{fill:url(#linear-gradient-4);}.cls-54{fill:#798289;}.cls-55{fill:#bccbdb;}.cls-56{fill:url(#linear-gradient-5);}.cls-57{fill:url(#linear-gradient-6);}.cls-58{fill:url(#linear-gradient-7);}.cls-59{fill:#eaebf9;}.cls-60{fill:url(#linear-gradient-8);}.cls-61{fill:url(#linear-gradient-9);}.cls-62{fill:url(#linear-gradient-10);}.cls-63{fill:#f2f2f0;}.cls-64{fill:#a3b2bf;}.cls-65{fill:#dce4ea;}.cls-66{fill:#acb6bf;}.cls-67{fill:#b7b9ba;}.cls-68{fill:#f7f9f9;}.cls-69{fill:#cacecf;}.cls-70{fill:#ddd;}.cls-71{fill:#efefef;}.cls-73{fill:#2c587c;}.cls-74{fill:#cacbcc;}.cls-75{fill:#e8e9ea;}.cls-76{fill:#e4ecf4;}.cls-77{opacity:0.2;}</style><clipPath id="clip-path" transform="translate(-4.77 -5.8)"><polygon class="cls-1" points="216.7 33.39 216.66 87.82 311.62 142.44 311.67 88.01 216.7 33.39"/></clipPath><clipPath id="clip-path-2" transform="translate(-4.77 -5.8)"><path class="cls-1" d="M309.58,82,218.93,29.66c-2.84-1.64-5.21-.64-5.68,2.2L213,89.56a12.6,12.6,0,0,0,5.73,9.92l90.65,52.34c3.17,1.83,5.75.36,5.76-3.29l.16-56.62A12.63,12.63,0,0,0,309.58,82Z"/></clipPath><linearGradient id="linear-gradient" x1="132.86" y1="152.48" x2="189.81" y2="152.48" gradientUnits="userSpaceOnUse"><stop offset="0" stop-color="#435d82"/><stop offset="0.15" stop-color="#415a7d"/><stop offset="0.34" stop-color="#3a4f6d"/><stop offset="0.55" stop-color="#2e3f54"/><stop offset="0.57" stop-color="#2d3d51"/><stop offset="0.74" stop-color="#29384b"/><stop offset="0.96" stop-color="#1c283a"/><stop offset="0.99" stop-color="#1a2638"/></linearGradient><clipPath id="clip-path-3" transform="translate(-4.77 -5.8)"><polygon class="cls-1" points="132.65 76.44 115.08 86.65 87.14 70.52 104.71 60.31 132.65 76.44"/></clipPath><linearGradient id="linear-gradient-2" x1="138.78" y1="124.13" x2="167.55" y2="124.13" xlink:href="#linear-gradient"/><linearGradient id="linear-gradient-3" x1="195.11" y1="134.72" x2="167.67" y2="118.88" gradientUnits="userSpaceOnUse"><stop offset="0" stop-color="#435d82"/><stop offset="0.23" stop-color="#384d6a"/><stop offset="0.51" stop-color="#2d3d51"/><stop offset="0.62" stop-color="#253346"/><stop offset="0.79" stop-color="#1d293b"/><stop offset="0.99" stop-color="#1a2638"/></linearGradient><linearGradient id="linear-gradient-4" x1="171.13" y1="140.61" x2="171.13" y2="125.43" gradientUnits="userSpaceOnUse"><stop offset="0" stop-color="#435d82"/><stop offset="0.09" stop-color="#3a4f6d"/><stop offset="0.19" stop-color="#33455d"/><stop offset="0.31" stop-color="#2e3f54"/><stop offset="0.47" stop-color="#2d3d51"/><stop offset="0.99" stop-color="#1a2638"/></linearGradient><linearGradient id="linear-gradient-5" x1="75.38" y1="45.88" x2="79.49" y2="45.88" xlink:href="#linear-gradient"/><linearGradient id="linear-gradient-6" x1="69.06" y1="49.09" x2="73.17" y2="49.09" xlink:href="#linear-gradient"/><linearGradient id="linear-gradient-7" x1="81.69" y1="42.67" x2="85.8" y2="42.67" xlink:href="#linear-gradient"/><linearGradient id="linear-gradient-8" x1="50.45" y1="50.22" x2="54.56" y2="50.22" xlink:href="#linear-gradient"/><linearGradient id="linear-gradient-9" x1="56.77" y1="47.01" x2="60.88" y2="47.01" xlink:href="#linear-gradient"/><linearGradient id="linear-gradient-10" x1="63.08" y1="43.8" x2="67.19" y2="43.8" xlink:href="#linear-gradient"/></defs><title>invoicing</title><g class="cls-2"><g id="Layer_1" data-name="Layer 1"><polygon class="cls-3" points="221.23 194.99 186.11 163.5 128.84 182.41 128.68 183.11 163.95 213.91 221.02 195.68 221.23 194.99"/><polygon class="cls-4" points="221.04 195.67 185.93 164.18 128.65 183.09 163.76 214.58 221.04 195.67"/><g class="cls-2"><g class="cls-5"><polygon class="cls-6" points="166.09 202.98 165.22 203.26 171.3 208.72 172.16 208.43 166.09 202.98"/><polygon class="cls-6" points="151.74 179.41 150.88 179.69 178.16 204.16 179.03 203.88 151.74 179.41"/><polygon class="cls-6" points="169.49 209.31 160.59 201.32 161.45 201.04 170.35 209.03 169.49 209.31"/><polygon class="cls-6" points="157.78 188.18 156.92 188.47 177.29 206.74 178.16 206.45 157.78 188.18"/><polygon class="cls-6" points="174.06 172.04 173.19 172.32 202.34 198.47 203.21 198.18 174.06 172.04"/><polygon class="cls-6" points="176.28 171.31 175.41 171.59 202.69 196.06 203.56 195.78 176.28 171.31"/></g><polygon class="cls-7" points="200.65 200.05 198.33 200.81 167.51 173.18 153.8 177.7 184.62 205.34 200.65 200.05"/><polygon class="cls-8" points="183.69 187.48 184.05 187.8 170.3 192.3 169.95 191.98 183.69 187.48"/><polygon class="cls-9" points="169.83 172.41 167.51 173.18 198.33 200.81 200.65 200.05 169.83 172.41"/></g><g class="cls-10"><polygon class="cls-4" points="221.45 195.54 186.45 164.15 129.36 183 163.76 214.58 221.45 195.54"/></g><g class="cls-5"><polygon class="cls-11" points="310.13 159.19 314.02 156.97 212.3 97.35 208.41 99.57 310.13 159.19"/><polygon class="cls-11" points="259.98 129.35 254.78 132.53 276.74 145.4 281.94 142.22 259.98 129.35"/><polygon class="cls-11" points="273.25 135.1 259.4 143.16 236.61 130.08 250.47 122.03 273.25 135.1"/></g><g class="cls-2"><path class="cls-12" d="M275.93,129.42l.1.05L255.78,117.7h0l-.07,0-.28-.13h0l-.17-.07-.18-.08-.2-.09-.08,0h0L275,129h0l.06,0,.2.09h0l.17.06.2.09Z" transform="translate(-4.77 -5.8)"/><polygon class="cls-13" points="259.71 141.22 239.46 129.45 239.46 128.03 259.71 139.8 259.71 141.22"/><path class="cls-14" d="M276.17,134.2c0-2.24-.46-2.9-1-3.23l-20.25-11.76c.57.33,1,1,1,3.22,0,1.15,0,4.64-6.09,8.17l-5.6,3.23,20.25,11.77,5.6-3.24C276.18,138.84,276.17,135.34,276.17,134.2Z" transform="translate(-4.77 -5.8)"/><polygon class="cls-15" points="268.09 116.7 247.84 104.93 249.07 104.29 269.33 116.06 268.09 116.7"/><path class="cls-15" d="M273.71,130.18c-.18-.2-.74-.81-.85-4.64,0-.62,0-1.22,0-1.74s0-1,0-1.3l-20.25-11.77c0,.65,0,1.8,0,3,.11,3.83.67,4.44.85,4.64a1.8,1.8,0,0,0,.2.19l.21.14,20.25,11.77A2,2,0,0,1,273.71,130.18Z" transform="translate(-4.77 -5.8)"/><path class="cls-16" d="M272.86,122.5l1.24-.64c0,.63,0,1.76,0,2.94.09,3.07.47,3.81.63,4a1.81,1.81,0,0,0,.72.41c.86.35,1.94.78,1.95,4.28a9.68,9.68,0,0,1-2,5.79,17.27,17.27,0,0,1-5.35,4.52l-5.6,3.23V145.6l5.6-3.24c6.1-3.52,6.09-7,6.09-8.16,0-2.85-.74-3.14-1.52-3.45a2.27,2.27,0,0,1-.94-.57c-.18-.2-.74-.81-.85-4.64C272.82,124.3,272.84,123.14,272.86,122.5Z" transform="translate(-4.77 -5.8)"/></g><g class="cls-2"><polygon class="cls-17" points="212.76 28.08 215.66 26.4 215.5 80.54 212.61 82.22 212.76 28.08"/><polygon class="cls-11" points="212.61 82.22 215.5 80.54 308.91 134.47 306.02 136.15 212.61 82.22"/><polygon class="cls-18" points="212.76 28.08 215.66 26.4 309.06 80.33 306.17 82.01 212.76 28.08"/><polygon class="cls-19" points="306.17 82.01 309.06 80.33 308.91 134.47 306.02 136.15 306.17 82.01"/><path class="cls-20" d="M309.58,82,218.93,29.66c-2.84-1.64-5.21-.64-5.68,2.2L213,89.56a12.6,12.6,0,0,0,5.73,9.92l90.65,52.34c3.17,1.83,5.75.36,5.76-3.29l.16-56.62A12.63,12.63,0,0,0,309.58,82Zm1.21,60L217.38,88l.15-54.14,93.41,53.93Z" transform="translate(-4.77 -5.8)"/><ellipse class="cls-21" cx="264.16" cy="58.3" rx="1.28" ry="2.2" transform="translate(1.7 134.82) rotate(-30.16)"/><path class="cls-22" d="M264.16,57.75a1,1,0,0,1,.48.83c0,.3-.21.43-.48.27a1,1,0,0,1-.48-.83C263.68,57.72,263.9,57.59,264.16,57.75Z" transform="translate(-4.77 -5.8)"/><path class="cls-23" d="M263.18,56.34a1,1,0,0,0-.58,1.06,3.4,3.4,0,0,0,1.56,2.69,1.27,1.27,0,0,0,.77.21Z" transform="translate(-4.77 -5.8)"/><path class="cls-4" d="M312.47,80.31,221.82,28c-1.6-.93-3-1-4.09-.41l-2.89,1.69c1-.61,2.49-.53,4.09.4L309.58,82a12.63,12.63,0,0,1,5.72,9.92l-.16,56.62a4,4,0,0,1-1.67,3.69l2.89-1.68a4,4,0,0,0,1.67-3.69l.17-56.62A12.63,12.63,0,0,0,312.47,80.31Z" transform="translate(-4.77 -5.8)"/></g><g class="cls-24"><g class="cls-2"><polygon class="cls-25" points="211.93 27.59 211.88 82.02 306.85 136.64 306.9 82.21 211.93 27.59"/></g><g class="cls-2"><polygon class="cls-26" points="211.93 27.59 211.88 32.8 306.85 87.42 306.9 82.21 211.93 27.59"/></g><g class="cls-27"><path class="cls-9" d="M306.23,86.75c-.23-.14-.43,0-.43.25v1.09a1,1,0,0,0,.43.74l1.55.9c.24.14.44,0,.44-.24v-1.1a.93.93,0,0,0-.43-.74Z" transform="translate(-4.77 -5.8)"/><path class="cls-9" d="M303,84.9c-.24-.13-.43,0-.43.25v1.1A1,1,0,0,0,303,87l1.56.89c.24.14.43,0,.43-.24V86.55a1,1,0,0,0-.43-.75Z" transform="translate(-4.77 -5.8)"/><path class="cls-9" d="M299.84,83.06c-.23-.14-.43,0-.43.24v1.1a.93.93,0,0,0,.43.74l1.55.9c.24.14.43,0,.43-.24V84.7a.93.93,0,0,0-.43-.74Z" transform="translate(-4.77 -5.8)"/></g></g><g class="cls-27"><g class="cls-28"><rect class="cls-29" x="198.06" y="37.9" width="84.44" height="25.8" transform="translate(-10.04 40.47) rotate(-10.88)"/><rect class="cls-29" x="203.25" y="82.88" width="109.73" height="10.84" transform="translate(-16.8 44.51) rotate(-10.88)"/><rect class="cls-29" x="244.88" y="105.51" width="88.02" height="6.96" transform="translate(-20.15 50.7) rotate(-10.88)"/></g></g><polygon class="cls-30" points="228.42 28.74 228.85 91.2 290.62 127.3 290.79 68.11 293.83 66.5 228.42 28.74"/><polygon class="cls-3" points="228.23 0 290 35.66 289.74 126.86 288.82 127.42 227.97 91.2 227.35 0.62 228.23 0"/><polygon class="cls-4" points="227.35 0.59 289.12 36.25 288.86 127.45 227.09 91.79 227.35 0.59"/><g class="cls-2"><g class="cls-5"><polygon class="cls-6" points="242.67 83 242.67 84.37 231.98 78.2 231.98 76.83 242.67 83"/><polygon class="cls-6" points="283.3 92.53 283.29 93.91 235.3 66.2 235.3 64.83 283.3 92.53"/><polygon class="cls-6" points="231.97 81.09 247.64 90.13 247.65 88.75 231.98 79.72 231.97 81.09"/><polygon class="cls-6" points="267.85 87.98 267.84 89.35 232.01 68.66 232.01 67.29 267.85 87.98"/><polygon class="cls-6" points="283.39 57 283.39 58.38 232.12 28.77 232.12 27.4 283.39 57"/><polygon class="cls-6" points="283.4 53.47 283.4 54.84 235.41 27.14 235.41 25.76 283.4 53.47"/></g><polygon class="cls-7" points="230.64 31.95 230.63 35.64 284.84 66.94 284.77 88.77 230.56 57.47 230.64 31.95"/><polygon class="cls-8" points="256.67 50.41 256.04 50.05 256.04 71.92 256.67 72.28 256.67 50.41"/><polygon class="cls-9" points="284.85 63.24 284.84 66.94 230.63 35.64 230.64 31.95 284.85 63.24"/></g><g class="cls-5"><g class="cls-27"><polygon class="cls-31" points="235.81 42.29 235.81 43.67 254.13 54.24 254.13 52.87 235.81 42.29"/></g><g class="cls-27"><polygon class="cls-31" points="254.13 58.01 232.3 45.41 232.3 46.78 254.13 59.38 254.13 58.01"/></g><g class="cls-27"><polygon class="cls-31" points="248.76 60.05 232.3 50.55 232.3 51.92 248.76 61.43 248.76 60.05"/></g><g class="cls-27"><polygon class="cls-31" points="267.32 60.34 260 56.12 260 57.49 267.32 61.72 267.32 60.34"/><polygon class="cls-31" points="273.26 63.77 273.26 65.15 281.83 70.09 281.83 68.72 273.26 63.77"/></g><g class="cls-27"><polygon class="cls-31" points="267.32 65.48 260 61.26 260 62.63 267.32 66.86 267.32 65.48"/><polygon class="cls-31" points="273.26 68.91 273.26 70.29 281.83 75.23 281.83 73.86 273.26 68.91"/></g><g class="cls-27"><polygon class="cls-31" points="267.32 70.62 260 66.4 260 67.77 267.32 72 267.32 70.62"/><polygon class="cls-31" points="273.26 74.05 273.26 75.43 281.83 80.38 281.83 79 273.26 74.05"/></g></g><g class="cls-5"><g class="cls-2"><path class="cls-32" d="M238.3,94.48c0-1.48.76-2.39,1.92-2.32a.24.24,0,0,1,.19.18.22.22,0,0,1,0,.08c0,.06,0,.1-.08.1-1.07-.06-1.76.77-1.76,2.12a6.64,6.64,0,0,0,2,4.36.28.28,0,0,1,.09.2.07.07,0,0,1,0,0c0,.07-.1.07-.18,0A7.27,7.27,0,0,1,238.3,94.48Z" transform="translate(-4.77 -5.8)"/><path class="cls-33" d="M239,94.9c0-1.61,1.13-2.27,2.52-1.47a5.54,5.54,0,0,1,2.52,4.36c0,1.61-1.13,2.27-2.52,1.47A5.56,5.56,0,0,1,239,94.9Zm4.72,2.7a4.84,4.84,0,0,0-2.2-3.8c-1.21-.7-2.19-.12-2.19,1.28a4.85,4.85,0,0,0,2.19,3.81c1.21.69,2.2.12,2.2-1.29Z" transform="translate(-4.77 -5.8)"/><path class="cls-32" d="M242.36,93.39a.06.06,0,0,1,0,0c0-.07.1-.07.17,0a7.21,7.21,0,0,1,2.24,4.85c0,1.49-.75,2.4-1.93,2.33a.27.27,0,0,1-.18-.19.2.2,0,0,1,0-.07c0-.06,0-.11.08-.1,1.07.06,1.76-.77,1.76-2.13a6.63,6.63,0,0,0-2-4.44A.3.3,0,0,1,242.36,93.39Z" transform="translate(-4.77 -5.8)"/><path class="cls-33" d="M237.69,94.13c0-2.46,1.73-3.47,3.85-2.26a8.51,8.51,0,0,1,3.86,6.69c0,2.46-1.73,3.47-3.86,2.25A8.53,8.53,0,0,1,237.69,94.13Zm7.38,4.23a7.77,7.77,0,0,0-3.53-6.1c-1.94-1.11-3.52-.19-3.52,2.06a7.8,7.8,0,0,0,3.52,6.11c2,1.11,3.53.19,3.53-2.07Z" transform="translate(-4.77 -5.8)"/></g></g><polygon class="cls-34" points="242.82 17.39 242.8 24.52 241.39 23.71 241.41 16.58 242.82 17.39"/><path class="cls-34" d="M253.94,26.86l0,7.13-1.47-.85-1.32-3.52c-.37-1-.77-2.13-1.07-3.14h0c0,1,.05,2,.05,3.14v2.15L248.78,31l0-7.13,1.64.95,1.29,3.36c.36,1,.73,2.06,1,3l0,0a30,30,0,0,1-.11-3V26.11Z" transform="translate(-4.77 -5.8)"/><path class="cls-34" d="M260.35,30.56l-2.11,5.92-1.64-.94-2-8.28,1.54.88.75,3.46c.21,1,.4,1.89.54,2.86l0,0a21.83,21.83,0,0,1,.57-2.19l.8-2.59Z" transform="translate(-4.77 -5.8)"/><path class="cls-34" d="M263.68,32.36a6.25,6.25,0,0,1,2.93,5.31c0,2.34-1.24,3-3.06,2a6.3,6.3,0,0,1-2.91-5.32C260.65,32.21,261.84,31.3,263.68,32.36Zm-.05,6.07c.95.54,1.49-.18,1.5-1.56a3.83,3.83,0,0,0-1.5-3.25c-.94-.55-1.5.17-1.5,1.56a3.71,3.71,0,0,0,1.5,3.25Z" transform="translate(-4.77 -5.8)"/><polygon class="cls-34" points="264.18 29.72 264.16 36.85 262.75 36.04 262.77 28.91 264.18 29.72"/><path class="cls-34" d="M273.27,37.9a6.33,6.33,0,0,1,1.53,1.2l-.29,1.11a5.46,5.46,0,0,0-1.18-.94c-1.11-.64-2-.37-2,1.22a4,4,0,0,0,2,3.47,3.34,3.34,0,0,0,1.16.44l.21,1.38a3.91,3.91,0,0,1-1.59-.61,6.32,6.32,0,0,1-3.24-5.44C269.88,37.3,271.39,36.82,273.27,37.9Z" transform="translate(-4.77 -5.8)"/><polygon class="cls-34" points="274.7 35.8 274.7 37.12 272.28 35.72 272.27 37.2 274.56 38.52 274.55 39.83 272.27 38.52 272.27 40.21 274.82 41.68 274.81 43 270.85 40.72 270.87 33.59 274.7 35.8"/><path class="cls-35" d="M286.27,121.6a1.83,1.83,0,0,1-.92-.27L263,108.42a3.75,3.75,0,0,1-1.72-3l0-6.06a1.38,1.38,0,0,1,1.34-1.56,1.83,1.83,0,0,1,.92.27L285.91,111a3.72,3.72,0,0,1,1.72,3l0,6.06A1.38,1.38,0,0,1,286.27,121.6Z" transform="translate(-4.77 -5.8)"/><path class="cls-36" d="M283.1,116.38l0,6.06a1,1,0,0,1-.42.93l3.75-2.19a1,1,0,0,0,.43-.93v-6.06Z" transform="translate(-4.77 -5.8)"/><path class="cls-37" d="M263,98.77a1.05,1.05,0,0,0-1-.1l-3.75,2.18a1,1,0,0,1,1,.1l22.37,12.92,3.75-2.19Z" transform="translate(-4.77 -5.8)"/><path class="cls-38" d="M281.65,113.87l3.75-2.19a3.17,3.17,0,0,1,1.45,2.51l-3.75,2.19A3.19,3.19,0,0,0,281.65,113.87Z" transform="translate(-4.77 -5.8)"/><path class="cls-34" d="M281.65,113.87a3.19,3.19,0,0,1,1.45,2.51l0,6.06c0,.92-.66,1.29-1.46.83l-22.36-12.92a3.14,3.14,0,0,1-1.45-2.51v-6.06c0-.92.66-1.29,1.46-.83Z" transform="translate(-4.77 -5.8)"/><path class="cls-4" d="M271.35,109.78l1.58,6.83-1.26-.72-.39-1.75-1.47-.85-.37,1.3-1.21-.69,1.59-5ZM270,112.39l1.14.65-.32-1.44c-.09-.4-.18-.89-.26-1.29h0c-.08.31-.16.71-.24,1l-.31,1.08Z" transform="translate(-4.77 -5.8)"/><path class="cls-4" d="M267.79,108.15a3.15,3.15,0,0,1,.55,1.69c0,.57-.17,1-.48,1.13a1.9,1.9,0,0,1-1.67-.34,3.1,3.1,0,0,1-.4-.26v2.11l-1.15-.66,0-5.84a11.87,11.87,0,0,1,1.57.79A4.6,4.6,0,0,1,267.79,108.15Zm-1.61,1.44c.62.36,1,.22,1-.38a1.6,1.6,0,0,0-.9-1.39,2.24,2.24,0,0,0-.48-.23v1.75a2.42,2.42,0,0,0,.39.25Z" transform="translate(-4.77 -5.8)"/><path class="cls-4" d="M277,113l-1.71,2.47v2.46l-1.16-.67v-2.42l-1.61-4.42,1.33.76.52,1.73c.16.52.27.9.39,1.35h0c.11-.3.24-.57.39-.9l.52-1.12Z" transform="translate(-4.77 -5.8)"/><polygon class="cls-39" points="159.74 135.56 132.86 151.39 162.16 169.41 189.81 154.09 159.74 135.56"/><g class="cls-5"><path class="cls-40" d="M118.21,92.47a5,5,0,0,1-2.44-.59L85.2,74.22A2.14,2.14,0,0,1,84,72.41a2.12,2.12,0,0,1,1.2-1.81l15.44-9a4.87,4.87,0,0,1,2.44-.6,5,5,0,0,1,2.44.59l30.57,17.66a2.14,2.14,0,0,1,1.22,1.81,2.12,2.12,0,0,1-1.2,1.81l-15.44,9A4.87,4.87,0,0,1,118.21,92.47Z" transform="translate(-4.77 -5.8)"/></g><path class="cls-4" d="M135.73,77a1.29,1.29,0,0,1,0,2.43l-15.44,9a4.6,4.6,0,0,1-4.18,0L85.54,70.78a1.28,1.28,0,0,1,0-2.42l15.44-9a4.6,4.6,0,0,1,4.18,0Z" transform="translate(-4.77 -5.8)"/><path class="cls-41" d="M99.39,62a.08.08,0,0,1,0,.14.31.31,0,0,1-.23,0c-.06,0-.07-.1,0-.14A.26.26,0,0,1,99.39,62Z" transform="translate(-4.77 -5.8)"/><path class="cls-42" d="M87.05,69.18a.33.33,0,0,1,0,.62,1.19,1.19,0,0,1-1.07,0,.33.33,0,0,1,0-.62A1.19,1.19,0,0,1,87.05,69.18Zm-.64.38a.26.26,0,0,0,.21,0c.06,0,.06-.1,0-.13a.26.26,0,0,0-.21,0c-.06,0-.06.09,0,.13Z" transform="translate(-4.77 -5.8)"/><polygon class="cls-25" points="127.88 70.64 110.31 80.85 82.37 64.72 99.94 54.51 127.88 70.64"/><path class="cls-43" d="M98.18,62.71c.18.11.19.28,0,.39l-6.24,3.63a.79.79,0,0,1-.67,0,.21.21,0,0,1,0-.39l6.25-3.63A.76.76,0,0,1,98.18,62.71Z" transform="translate(-4.77 -5.8)"/><path class="cls-41" d="M86.62,69.43c.06,0,.06.09,0,.13a.26.26,0,0,1-.21,0c-.06,0-.06-.1,0-.13A.26.26,0,0,1,86.62,69.43Z" transform="translate(-4.77 -5.8)"/><path class="cls-44" d="M123.75,84.41a1.5,1.5,0,0,0,.76-.18l3.56-2.07a.57.57,0,0,0,0-1,1.56,1.56,0,0,0-.76-.19,1.61,1.61,0,0,0-.76.18L123,83.17a.59.59,0,0,0-.35.53.63.63,0,0,0,.36.53,1.55,1.55,0,0,0,.76.18Z" transform="translate(-4.77 -5.8)"/><path class="cls-4" d="M127.83,81.33c.3.17.3.44,0,.61L124.29,84a1.19,1.19,0,0,1-1.07,0,.33.33,0,0,1,0-.62l3.56-2.06A1.14,1.14,0,0,1,127.83,81.33Z" transform="translate(-4.77 -5.8)"/><path class="cls-45" d="M135.74,79.46l-15.44,9a4.6,4.6,0,0,1-4.18,0L85.54,70.78a1.49,1.49,0,0,1-.87-1.22v2.26A1.47,1.47,0,0,0,85.54,73L116.11,90.7a4.63,4.63,0,0,0,4.18,0l15.44-9a1.45,1.45,0,0,0,.86-1.2V78.25A1.48,1.48,0,0,1,135.74,79.46Z" transform="translate(-4.77 -5.8)"/><g class="cls-27"><g class="cls-46"><rect class="cls-47" x="83.48" y="51.21" width="37.67" height="10.74"/><rect class="cls-47" x="76.93" y="66.87" width="55.67" height="4.32"/></g></g><path class="cls-48" d="M138.71,144.67c0-.57,0-1.76,0-2.24a10.81,10.81,0,0,1,0-1.14,1.44,1.44,0,0,1,.08-.51,1.84,1.84,0,0,1,.33-.55c2.68-3,10.5-5.67,12.2-6.11h0c-4.2-2.87-12.52-9.5-12.52-9.5s-.32-11.54-.12-12.68a.06.06,0,0,1,.09,0l28.78,18.31h0l0,31C167.25,161.08,138.7,144.9,138.71,144.67Z" transform="translate(-4.77 -5.8)"/><path class="cls-49" d="M167.62,161.25c-.11-10.14-.25-20.82-.35-30.95l15.5-9.42-.13-.08h.22l13.2-9c.21,3.23-9.24,9.5-13.42,8.94,3.39,3,10,6.36,13.36,9.4l.09,11.24c0,.33,0,2.24,0,3.26C195.62,145.49,167.89,161.2,167.62,161.25Z" transform="translate(-4.77 -5.8)"/><path class="cls-4" d="M167.38,130.76l-28.6-18.82a0,0,0,0,1,0,0c.93-.62,28.13-16.86,28.62-16.86s27.72,16.26,28.68,16.84h0l-13.17,8.94h-.32l.15.1-15.34,9.83S167.39,130.77,167.38,130.76Z" transform="translate(-4.77 -5.8)"/><path class="cls-50" d="M138.8,121.55A23.05,23.05,0,0,0,139,125a136.8,136.8,0,0,0,12.41,9.1l1-.06a10.78,10.78,0,0,1,3.59.57l6.8,2.71a43.08,43.08,0,0,0,14.79,3.14,38.92,38.92,0,0,0,5.7,0,23.21,23.21,0,0,0,6.46-1.58,11.2,11.2,0,0,0,4.77-3.59,13.65,13.65,0,0,0,1.47-2.22,24.92,24.92,0,0,0,0-2.85,2.5,2.5,0,0,0-1.05-1.44c-3-2-12.29-8-12.29-8-.48,0-3-.06-4.82-.12a42.47,42.47,0,0,1-8.53-1.15c-.58-.13-1.15-.28-1.7-.44a42.37,42.37,0,0,1-4.56-1.56l-6.8-2.71a10.85,10.85,0,0,0-3.6-.57,12.2,12.2,0,0,0-3.33.57,20.52,20.52,0,0,0-5.06,2.43C140,119.84,138.83,120.73,138.8,121.55Z" transform="translate(-4.77 -5.8)"/><path class="cls-50" d="M167.64,125.72" transform="translate(-4.77 -5.8)"/><path class="cls-51" d="M167.55,119.09s-2.94-1.08-4.21-1.6l-6.79-2.71a10.89,10.89,0,0,0-3.6-.57,9.7,9.7,0,0,0-3.37.41,20.71,20.71,0,0,0-5.07,2.47c-4.28,2.58-5.62,3.58-5.68,4.4a23.7,23.7,0,0,0,0,3.47,1.27,1.27,0,0,0,.15.41.23.23,0,0,0,.08.11c.53.49,4.72,3.72,4.72,3.72a64.17,64.17,0,0,0,7.56,4.86l.57,0h0l15.55-8.61Z" transform="translate(-4.77 -5.8)"/><path class="cls-52" d="M196,130.27a2.46,2.46,0,0,0-1.05-1.44c-2.74-1.84-10.75-7-12.13-7.9-.13-.09-3.18-.17-5-.23a42.47,42.47,0,0,1-8.53-1.15c-.58-.13-1.15-.28-1.7-.44l-.09,0,0,6.34,22.86,13.27a10.36,10.36,0,0,0,4.16-3.36,13.65,13.65,0,0,0,1.47-2.22A22.82,22.82,0,0,0,196,130.27Z" transform="translate(-4.77 -5.8)"/><path class="cls-53" d="M151.9,134.1l.72,0a10.85,10.85,0,0,1,3.6.57l6.79,2.71a43.22,43.22,0,0,0,14.8,3.14,38.79,38.79,0,0,0,5.69,0,23.32,23.32,0,0,0,6.47-1.58l.4-.17-22.86-13.33Z" transform="translate(-4.77 -5.8)"/><g class="cls-2"><path class="cls-54" d="M60.08,47.06l.05,16.4a2.61,2.61,0,0,0,1.29,2.47l-2.63-1.34a2.58,2.58,0,0,1-1.28-2.47l0-16.41Z" transform="translate(-4.77 -5.8)"/><path class="cls-4" d="M87.71,25.9a3.44,3.44,0,0,1,3.12-.26L93.45,27a3.47,3.47,0,0,0-3.12.26L64.45,40.39l-2.62-1.34Z" transform="translate(-4.77 -5.8)"/><path class="cls-55" d="M64.45,40.39a8.38,8.38,0,0,0-4.37,6.67l.05,16.4c0,2.44,2,3.44,4.4,2.21l18.3-9.22c.06,0,6.71,3.06,6.83,3a.63.63,0,0,0,.23-.87l-.58-5.43,1.11-.63a8.41,8.41,0,0,0,4.37-6.66l-.06-16.41c0-2.44-2-3.43-4.4-2.21Z" transform="translate(-4.77 -5.8)"/></g><path class="cls-56" d="M78.92,43.59c-2.19-.56-4.65,3.17-3,4.57h0C78.13,48.77,80.63,45,78.92,43.59Z" transform="translate(-4.77 -5.8)"/><path class="cls-57" d="M72.61,46.8c-2.19-.56-4.65,3.17-3,4.57h0C71.81,52,74.32,48.16,72.61,46.8Z" transform="translate(-4.77 -5.8)"/><path class="cls-58" d="M85.24,40.38c-2.18-.58-4.67,3.17-3,4.57h0C84.44,45.57,86.94,41.75,85.24,40.38Z" transform="translate(-4.77 -5.8)"/><g class="cls-2"><path class="cls-55" d="M51.47,64.76l1.7-6.07-2.62-1.34-1.71,6.07c-.08.28-.06.44,0,.49l2.62,1.34C51.4,65.21,51.39,65,51.47,64.76Z" transform="translate(-4.77 -5.8)"/><path class="cls-59" d="M49.27,42a6.16,6.16,0,0,0-3.22,4.91l0,12.07c0,1.8,1.46,2.53,3.24,1.63l3.84-2-1.7,6.07c-.12.41,0,.57.16.47a1.29,1.29,0,0,0,.36-.31l9-10.05a2,2,0,0,0,.22-.29L68.37,51a6.18,6.18,0,0,0,3.23-4.91l0-12.07c0-1.8-1.47-2.53-3.25-1.62Zm15.87,3.85c-1.13.58-2.06.12-2.06-1a3.91,3.91,0,0,1,2-3.13c1.14-.58,2.06-.12,2.06,1a3.88,3.88,0,0,1-2,3.12Zm-6.31,3.21c-1.14.58-2.06.11-2.06-1a3.87,3.87,0,0,1,2-3.13c1.13-.58,2-.12,2.06,1a3.94,3.94,0,0,1-2.05,3.12ZM52.51,52.3c-1.13.58-2,.11-2.06-1a3.91,3.91,0,0,1,2-3.12c1.14-.58,2.06-.12,2.06,1a3.9,3.9,0,0,1-2.05,3.12Z" transform="translate(-4.77 -5.8)"/><path class="cls-60" d="M54,47.92c-2.19-.56-4.65,3.18-3,4.58h0C53.2,53.11,55.71,49.29,54,47.92Z" transform="translate(-4.77 -5.8)"/><path class="cls-61" d="M60.31,44.72c-2.19-.57-4.65,3.17-3,4.57h0C59.52,49.9,62,46.08,60.31,44.72Z" transform="translate(-4.77 -5.8)"/><path class="cls-62" d="M66.63,41.51c-2.18-.58-4.67,3.17-3,4.57h0C65.83,46.7,68.33,42.88,66.63,41.51Z" transform="translate(-4.77 -5.8)"/><g class="cls-2"><path class="cls-63" d="M70.61,32.16,68,30.82a2.56,2.56,0,0,0-2.3.19l2.62,1.35a2.54,2.54,0,0,1,2.3-.2Z" transform="translate(-4.77 -5.8)"/><path class="cls-64" d="M46.09,59l-2.63-1.34a1.94,1.94,0,0,0,.95,1.82L47,60.83A1.89,1.89,0,0,1,46.09,59Z" transform="translate(-4.77 -5.8)"/><polygon class="cls-55" points="41.28 41.14 38.65 39.8 38.69 51.87 41.32 53.21 41.28 41.14"/><polygon class="cls-4" points="63.55 26.55 60.92 25.21 41.88 34.89 44.5 36.23 63.55 26.55"/><path class="cls-65" d="M49.27,42l-2.63-1.34a6.19,6.19,0,0,0-3.22,4.91l2.63,1.34A6.16,6.16,0,0,1,49.27,42Z" transform="translate(-4.77 -5.8)"/></g></g><g class="cls-2"><polygon class="cls-55" points="37.85 139.92 37.77 115.93 1.4 134.13 1.48 158.12 37.85 139.92"/><polygon class="cls-66" points="1.48 158.12 37.85 139.92 19.27 134.13 1.48 158.12"/><polygon class="cls-66" points="1.48 158.12 0 157.4 0 133.41 1.48 134.13 1.48 158.12"/><polygon class="cls-4" points="36.38 115.22 0 133.41 1.4 134.13 37.77 115.93 36.38 115.22"/><polygon class="cls-54" points="1.4 134.13 19.77 142.14 37.77 115.93 1.4 134.13"/><polygon class="cls-59" points="1.4 134.13 19.63 139.92 37.77 115.93 1.4 134.13"/></g><g class="cls-2"><polygon class="cls-55" points="72.97 138.9 72.87 106.51 23.74 131.08 23.85 163.47 72.97 138.9"/><polygon class="cls-66" points="23.85 163.47 72.97 138.9 47.89 131.08 23.85 163.47"/><polygon class="cls-66" points="23.85 163.47 21.86 162.5 21.86 130.11 23.85 131.08 23.85 163.47"/><polygon class="cls-4" points="70.98 105.54 21.86 130.11 23.74 131.08 72.87 106.51 70.98 105.54"/><polygon class="cls-54" points="23.74 131.08 48.56 141.9 72.87 106.51 23.74 131.08"/><polygon class="cls-59" points="23.74 131.08 48.37 138.9 72.87 106.51 23.74 131.08"/></g><polygon class="cls-67" points="94.96 225.15 94.96 229.52 163.23 190.1 163.23 185.73 94.96 225.15"/><polygon class="cls-68" points="94.96 228.93 94.96 229.12 163.23 189.7 163.23 189.52 94.96 228.93"/><polygon class="cls-68" points="94.96 228.25 94.96 228.44 163.23 189.03 163.23 188.84 94.96 228.25"/><polygon class="cls-68" points="94.96 227.58 94.96 227.76 163.23 188.35 163.23 188.16 94.96 227.58"/><polygon class="cls-68" points="94.96 226.9 94.96 227.09 163.23 187.67 163.23 187.48 94.96 226.9"/><polygon class="cls-68" points="94.96 226.22 94.96 226.41 163.23 186.99 163.23 186.81 94.96 226.22"/><polygon class="cls-68" points="94.96 225.54 94.96 225.73 163.23 186.31 163.23 186.13 94.96 225.54"/><polygon class="cls-69" points="94.96 229.51 94.96 225.15 44.6 196.07 44.6 200.44 94.96 229.51"/><polygon class="cls-68" points="94.96 225.73 94.96 225.54 44.6 196.47 44.6 196.65 94.96 225.73"/><polygon class="cls-68" points="94.96 226.41 94.96 226.22 44.6 197.15 44.6 197.33 94.96 226.41"/><polygon class="cls-68" points="94.96 227.09 94.96 226.9 44.6 197.82 44.6 198.01 94.96 227.09"/><polygon class="cls-68" points="94.96 227.76 94.96 227.58 44.6 198.5 44.6 198.69 94.96 227.76"/><polygon class="cls-68" points="94.96 228.44 94.96 228.25 44.6 199.18 44.6 199.37 94.96 228.44"/><polygon class="cls-68" points="94.96 229.12 94.96 228.93 44.6 199.86 44.6 200.04 94.96 229.12"/><polygon class="cls-70" points="43.25 197.28 93.61 226.35 161.88 186.94 111.52 157.86 43.25 197.28"/><polygon class="cls-71" points="42.05 195.28 92.41 224.35 160.68 184.94 110.32 155.86 42.05 195.28"/><polygon class="cls-68" points="44.6 195.15 94.96 224.23 163.23 184.81 112.87 155.74 44.6 195.15"/><g class="cls-72"><path class="cls-73" d="M99.55,228.52,52,201.06l65.84-38,47.57,27.46ZM52.94,201.06,99.55,228l64.88-37.46L117.82,163.6Z" transform="translate(-4.77 -5.8)"/></g><polygon class="cls-74" points="106.85 173.01 98.93 168.44 99.34 168.2 107.26 172.77 106.85 173.01"/><polygon class="cls-74" points="94.12 180.18 87.13 176.15 87.55 175.91 94.54 179.94 94.12 180.18"/><polygon class="cls-74" points="91.01 179.36 86.29 176.63 86.71 176.39 91.43 179.12 91.01 179.36"/><polygon class="cls-74" points="121.47 196.94 116.75 194.22 117.17 193.98 121.89 196.71 121.47 196.94"/><polygon class="cls-74" points="124.26 197.34 117.8 193.62 118.22 193.38 124.67 197.1 124.26 197.34"/><polygon class="cls-74" points="118.94 196.69 115.71 194.83 116.12 194.59 119.35 196.45 118.94 196.69"/><polygon class="cls-74" points="82.06 184.53 77.34 181.8 77.76 181.56 82.48 184.28 82.06 184.53"/><polygon class="cls-74" points="87.88 187.88 86.56 187.12 86.97 186.88 88.29 187.64 87.88 187.88"/><polygon class="cls-74" points="96.91 193.1 95.59 192.34 96.01 192.1 97.33 192.86 96.91 193.1"/><polygon class="cls-74" points="96.1 193.57 94.78 192.81 95.2 192.57 96.52 193.33 96.1 193.57"/><polygon class="cls-74" points="82.14 185.75 76.32 182.39 76.74 182.15 82.56 185.51 82.14 185.75"/><polygon class="cls-74" points="141.23 192.87 136.62 190.21 137.04 189.97 141.64 192.63 141.23 192.87"/><polygon class="cls-74" points="112.76 178.15 97.44 169.3 97.65 169.18 112.97 178.03 112.76 178.15"/><polygon class="cls-74" points="134.96 189.24 126.67 184.46 126.88 184.34 135.16 189.12 134.96 189.24"/><polygon class="cls-74" points="139.53 193.84 132.5 189.78 132.91 189.54 139.95 193.6 139.53 193.84"/><polygon class="cls-74" points="101.76 215.65 94.72 211.59 95.14 211.35 102.17 215.41 101.76 215.65"/><polygon class="cls-74" points="100.7 216.27 96.09 213.61 96.51 213.37 101.11 216.03 100.7 216.27"/><polygon class="cls-74" points="130.83 188.82 124.97 185.44 125.18 185.32 131.04 188.7 130.83 188.82"/><polygon class="cls-74" points="137.89 194.79 133.28 192.13 133.7 191.9 138.3 194.55 137.89 194.79"/><polygon class="cls-74" points="131.62 191.17 123.33 186.39 123.53 186.27 131.82 191.05 131.62 191.17"/><polygon class="cls-74" points="99.15 217.28 84.48 208.81 84.69 208.69 99.36 217.16 99.15 217.28"/><polygon class="cls-74" points="71.31 201.2 56.64 192.74 56.85 192.62 71.51 201.08 71.31 201.2"/><polygon class="cls-74" points="111.83 178.68 96.51 169.84 96.72 169.72 112.04 178.56 111.83 178.68"/><polygon class="cls-74" points="110.91 179.22 95.59 170.37 95.79 170.25 111.12 179.1 110.91 179.22"/><polygon class="cls-74" points="132.07 198.15 89.77 173.73 89.97 173.61 132.28 198.03 132.07 198.15"/><polygon class="cls-74" points="130.35 199.14 88.05 174.72 88.26 174.6 130.56 199.02 130.35 199.14"/><polygon class="cls-74" points="62.52 189.34 88.16 174.54 88.36 174.66 62.73 189.46 62.52 189.34"/><polygon class="cls-74" points="80.79 199.89 106.43 185.09 106.64 185.21 81 200.01 80.79 199.89"/><polygon class="cls-74" points="94.8 200.45 113.91 189.41 114.12 189.53 95.01 200.57 94.8 200.45"/><polygon class="cls-74" points="111.14 210.12 130.46 198.96 130.67 199.08 111.34 210.24 111.14 210.12"/><polygon class="cls-74" points="99.71 203.28 118.83 192.25 119.03 192.37 99.92 203.4 99.71 203.28"/><polygon class="cls-74" points="71.86 194.5 97.29 179.81 97.5 179.94 72.07 194.62 71.86 194.5"/><polygon class="cls-74" points="121.89 204.03 79.59 179.6 79.8 179.49 122.1 203.91 121.89 204.03"/><polygon class="cls-74" points="120.18 205.02 77.88 180.59 78.09 180.47 120.39 204.9 120.18 205.02"/><polygon class="cls-74" points="112.95 209.19 70.65 184.77 70.86 184.65 113.16 209.07 112.95 209.19"/><polygon class="cls-74" points="111.24 210.18 68.94 185.76 69.14 185.64 111.45 210.06 111.24 210.18"/><polygon class="cls-74" points="82.61 198.96 64.33 188.41 64.54 188.29 82.81 198.84 82.61 198.96"/><polygon class="cls-74" points="80.89 199.95 62.62 189.4 62.83 189.28 81.1 199.83 80.89 199.95"/><polygon class="cls-74" points="106.45 177.71 94.66 170.91 94.87 170.79 106.65 177.59 106.45 177.71"/><polygon class="cls-74" points="116.42 190.22 102.62 182.25 103.08 181.99 116.88 189.96 116.42 190.22"/><path class="cls-4" d="M153.12,210.64a1.34,1.34,0,0,1,0,.2v.08a1,1,0,0,1-.27.54h0a.46.46,0,0,1-.27.15.94.94,0,0,1-.59,0l-.26-.12a2.69,2.69,0,0,1-.56-.47,1.73,1.73,0,0,1-.21-.25,3.17,3.17,0,0,1-.43-.76,2.87,2.87,0,0,1-.21-1,1.2,1.2,0,0,1,.16-.66.63.63,0,0,1,.17-.19l.14-.09h0A.6.6,0,0,1,151,208a1.1,1.1,0,0,1,.66.19,1.41,1.41,0,0,1,.4.29,3.3,3.3,0,0,1,.79,1.12h0a2.62,2.62,0,0,1,.22,1A.2.2,0,0,1,153.12,210.64Z" transform="translate(-4.77 -5.8)"/><path class="cls-48" d="M153.12,210.64a1.34,1.34,0,0,1,0,.2v.08a1,1,0,0,1-.27.54h0l-.27.15L109.9,236.23v-1.15l.34-.19L151.13,211l1.28-.75.7.33A.2.2,0,0,1,153.12,210.64Z" transform="translate(-4.77 -5.8)"/><polygon class="cls-4" points="103.38 226.86 103.83 228.36 146.46 203.75 146.02 202.24 103.38 226.86"/><path class="cls-75" d="M152.88,209.6l-2,1.14-40.83,23.58-.35-.82-.2-.45,40.8-23.56.75-.43,1-.58A3.3,3.3,0,0,1,152.88,209.6Z" transform="translate(-4.77 -5.8)"/><path class="cls-4" d="M152.09,208.48l-1,.58-.75.43-40.8,23.56-.94-.54,41.84-24.17.37-.21L151,208a1.1,1.1,0,0,1,.66.19A1.41,1.41,0,0,1,152.09,208.48Z" transform="translate(-4.77 -5.8)"/><path class="cls-76" d="M153.12,210.64a1.34,1.34,0,0,1,0,.2v.08l-1.15.66-41.57,23.8-.14-.49-.15-.57,40.83-23.58,2-1.13a2.62,2.62,0,0,1,.22,1A.2.2,0,0,1,153.12,210.64Z" transform="translate(-4.77 -5.8)"/><path class="cls-4" d="M110.49,235.25c0,.54-.24.9-.59,1l-.2,0-3.38.63-1.54.27-.16,0,1-1.32,2.28-3h0c.24-.3.68-.34,1.18,0a3,3,0,0,1,1.18,1.42A2.66,2.66,0,0,1,110.49,235.25Z" transform="translate(-4.77 -5.8)"/><path class="cls-75" d="M106.32,236.9l-1.7.31,1-1.32A1.88,1.88,0,0,1,106.32,236.9Z" transform="translate(-4.77 -5.8)"/><g class="cls-77"><path class="cls-75" d="M110.49,235.25c0,.54-.24.9-.59,1l-.2,0-3.38.63-1.54.27,5.47-2.95A2.66,2.66,0,0,1,110.49,235.25Z" transform="translate(-4.77 -5.8)"/></g></g></g></svg>