<svg id="Layer_1" data-name="Layer 1" xmlns="http://www.w3.org/2000/svg" xmlns:xlink="http://www.w3.org/1999/xlink" width="307.17" height="264.12" viewBox="0 0 307.17 264.12"><defs><style>.cls-1,.cls-13,.cls-7,.cls-9{opacity:0.3;}.cls-1{fill:url(#linear-gradient);}.cls-2{fill:#fff;}.cls-3{fill:#eaebf9;}.cls-4{fill:#d3c5dd;}.cls-5{fill:#03103b;}.cls-6{fill:#486a9b;}.cls-7{fill:url(#linear-gradient-2);}.cls-8{fill:#efefef;}.cls-9{fill:url(#linear-gradient-3);}.cls-10{fill:#bc8430;}.cls-11{fill:#e8eff7;}.cls-12{fill:#cfdae8;}.cls-13{fill:url(#linear-gradient-4);}.cls-14{fill:#2d3d51;}.cls-15{fill:url(#linear-gradient-5);}.cls-16{fill:url(#linear-gradient-6);}.cls-17{fill:url(#linear-gradient-7);}</style><linearGradient id="linear-gradient" x1="4.97" y1="105.12" x2="127" y2="105.12" gradientUnits="userSpaceOnUse"><stop offset="0" stop-color="#435d82"/><stop offset="0.15" stop-color="#415a7d"/><stop offset="0.34" stop-color="#3a4f6d"/><stop offset="0.55" stop-color="#2e3f54"/><stop offset="0.57" stop-color="#2d3d51"/><stop offset="0.74" stop-color="#29384b"/><stop offset="0.96" stop-color="#1c283a"/><stop offset="0.99" stop-color="#1a2638"/></linearGradient><linearGradient id="linear-gradient-2" x1="221.28" y1="88.18" x2="307.08" y2="88.18" xlink:href="#linear-gradient"/><linearGradient id="linear-gradient-3" x1="105.97" y1="238.91" x2="283.41" y2="238.91" xlink:href="#linear-gradient"/><linearGradient id="linear-gradient-4" x1="135.66" y1="154.09" x2="192.6" y2="154.09" xlink:href="#linear-gradient"/><linearGradient id="linear-gradient-5" x1="143.78" y1="142.13" x2="172.55" y2="142.13" xlink:href="#linear-gradient"/><linearGradient id="linear-gradient-6" x1="200.11" y1="152.72" x2="172.67" y2="136.88" gradientUnits="userSpaceOnUse"><stop offset="0" stop-color="#435d82"/><stop offset="0.23" stop-color="#384d6a"/><stop offset="0.51" stop-color="#2d3d51"/><stop offset="0.62" stop-color="#253346"/><stop offset="0.79" stop-color="#1d293b"/><stop offset="0.99" stop-color="#1a2638"/></linearGradient><linearGradient id="linear-gradient-7" x1="176.13" y1="158.61" x2="176.13" y2="143.43" gradientUnits="userSpaceOnUse"><stop offset="0" stop-color="#435d82"/><stop offset="0.09" stop-color="#3a4f6d"/><stop offset="0.19" stop-color="#33455d"/><stop offset="0.31" stop-color="#2e3f54"/><stop offset="0.47" stop-color="#2d3d51"/><stop offset="0.99" stop-color="#1a2638"/></linearGradient></defs><title>scheduling</title><path class="cls-1" d="M84.33,31.19A55.42,55.42,0,0,0,74,32C59.26,34.56,49.46,42.48,44,47,27,61.12,19.79,78.49,14.15,92.09A121.57,121.57,0,0,0,8,111a117.1,117.1,0,0,0-3,23,44.37,44.37,0,0,0,1,11,44.86,44.86,0,0,0,7.25,16.31A55.14,55.14,0,0,0,22,169a56.45,56.45,0,0,0,18,8.42,32.91,32.91,0,0,0,24.78-1.76A90.53,90.53,0,0,0,101,146.33,133.31,133.31,0,0,0,114,125a133.18,133.18,0,0,0,11-33,56.1,56.1,0,0,0,.25-28.75A38.1,38.1,0,0,0,111,42c-6.91-2.8-13.13-7.2-20-10C89,31.19,86.32,32,84.33,31.19Z" transform="translate(-4.97 -18.19)"/><path class="cls-2" d="M69.82,26C40,43.84,16.4,86.26,17,120.79c.31,17.09,6.51,29,16.3,34.59l18.62,9c6.6-.64,12.56-8.83,20.14-13.36,29.78-17.81,53.41-60.23,52.79-94.76-.2-10.92,2.57-20.91-1.84-27.3l-20.5-9.78C93.36,16.71,82,18.74,69.82,26Z" transform="translate(-4.97 -18.19)"/><ellipse class="cls-3" cx="84.9" cy="95.52" rx="76.7" ry="44.43" transform="translate(-44.92 104.65) rotate(-60.71)"/><path class="cls-4" d="M83.83,145.15c23.65-14.14,42.41-47.82,41.92-75.23-.3-16.28-7.35-26.62-18-29.43,13,.86,22,11.71,22.36,30.16.5,27.41-18.26,61.09-41.91,75.23-9.6,5.74-18.5,7.31-25.75,5.39C68.82,151.69,76.1,149.77,83.83,145.15Z" transform="translate(-4.97 -18.19)"/><path class="cls-2" d="M82,45.89c9.6-5.74,18.5-7.31,25.75-5.4,10.61,2.81,17.66,13.15,18,29.43.49,27.41-18.27,61.09-41.92,75.23-7.73,4.62-15,6.54-21.34,6.12-13-.85-22-11.71-22.37-30.15C39.63,93.71,58.39,60,82,45.89Z" transform="translate(-4.97 -18.19)"/><path class="cls-5" d="M84.71,53.12a7.15,7.15,0,0,0-3.17,5.68c0,2.07,1.51,2.88,3.3,1.81A7.15,7.15,0,0,0,88,54.93C88,52.86,86.5,52.05,84.71,53.12Z" transform="translate(-4.97 -18.19)"/><path class="cls-5" d="M86.11,130.39a7.17,7.17,0,0,0-3.17,5.69c0,2.07,1.51,2.88,3.3,1.81a7.15,7.15,0,0,0,3.17-5.68C89.37,130.14,87.9,129.32,86.11,130.39Z" transform="translate(-4.97 -18.19)"/><path class="cls-5" d="M118.73,71.82a7.19,7.19,0,0,0-3.16,5.69c0,2.07,1.52,2.89,3.3,1.82A7.16,7.16,0,0,0,122,73.64C122,71.58,120.52,70.75,118.73,71.82Z" transform="translate(-4.97 -18.19)"/><path class="cls-5" d="M52.08,111.68a7.17,7.17,0,0,0-3.17,5.69c0,2.07,1.51,2.88,3.3,1.81a7.17,7.17,0,0,0,3.17-5.68C55.34,111.43,53.86,110.61,52.08,111.68Z" transform="translate(-4.97 -18.19)"/><path class="cls-6" d="M85.32,63a4.52,4.52,0,0,0-2,3.54l.05,31.69c0,.62,1.34-.27,1.75,0,0,0,27.24-17,27.62-17.64.76-1.38.78-4.23-1-3.2L87.2,92.89l.18-28.8C87.36,62.82,86.43,62.3,85.32,63Z" transform="translate(-4.97 -18.19)"/><path class="cls-5" d="M85.27,90.11a10.33,10.33,0,0,0-4.58,8.21c.06,3,2.19,4.15,4.77,2.61A10.35,10.35,0,0,0,90,92.73C90,89.74,87.85,88.57,85.27,90.11Z" transform="translate(-4.97 -18.19)"/><path class="cls-2" d="M85.34,94a2.88,2.88,0,0,0-1.27,2.27c0,.83.61,1.15,1.32.73a2.88,2.88,0,0,0,1.27-2.27C86.64,93.92,86.05,93.6,85.34,94Z" transform="translate(-4.97 -18.19)"/><path class="cls-7" d="M223.52,35.61a1.62,1.62,0,0,0-.93,1.44c-.18,6.93-2.08,50.79-1,63.43.16,1.81,1.83,2.72,2.06,3.07,1.85,2.78,67.84,33.89,77.86,38.73.79.38,1.94,0,2.79-.28l1.29-.38c1.39-.41,1.47-1.63,1.44-3.08l-.32-62.26a3.51,3.51,0,0,0-1.93-3.06L227,33.93Z" transform="translate(-4.97 -18.19)"/><path class="cls-4" d="M308.28,145.43V75.13A4.24,4.24,0,0,0,306,71.74L219.68,28.8a1.85,1.85,0,0,0-1.56-.15l3.79-1.86h0a1.8,1.8,0,0,1,1.64.12l86.32,42.94a4.27,4.27,0,0,1,2.28,3.4v70.3a1.34,1.34,0,0,1-.59,1.21h0l-.05,0-.06,0-3.81,1.85A1.33,1.33,0,0,0,308.28,145.43Z" transform="translate(-4.97 -18.19)"/><path class="cls-3" d="M217.4,29.93a1.34,1.34,0,0,1,.6-1.22h0a.31.31,0,0,1,.1-.05,1.85,1.85,0,0,1,1.56.15L306,71.74a4.24,4.24,0,0,1,2.28,3.39v70.3a1.33,1.33,0,0,1-.64,1.25.09.09,0,0,1-.06,0l-.06,0a1.88,1.88,0,0,1-1.52-.16l-86.32-42.94a4.27,4.27,0,0,1-2.28-3.4Z" transform="translate(-4.97 -18.19)"/><path class="cls-4" d="M304.41,135.91V88.06a3.77,3.77,0,0,0-2-3l-86.86-43.2a1.6,1.6,0,0,0-1.39-.13L218,39.85h0a1.58,1.58,0,0,1,1.43.11l86.86,43.21a3.75,3.75,0,0,1,2,3V134a1.17,1.17,0,0,1-.55,1.09h-.05l-3.8,1.85h0A1.16,1.16,0,0,0,304.41,135.91Z" transform="translate(-4.97 -18.19)"/><path class="cls-2" d="M213.53,42.86a1.18,1.18,0,0,1,.55-1.1h0l.05,0a1.6,1.6,0,0,1,1.39.13l86.86,43.2a3.77,3.77,0,0,1,2,3v47.85a1.16,1.16,0,0,1-.53,1.07,1.54,1.54,0,0,1-1.48-.07L215.54,93.7a3.75,3.75,0,0,1-2-3Z" transform="translate(-4.97 -18.19)"/><polygon class="cls-8" points="256.61 76.47 265.41 80.84 265.41 72.09 256.61 67.71 256.61 76.47"/><polygon class="cls-8" points="243.13 69.76 251.93 74.14 251.93 65.39 243.13 61.01 243.13 69.76"/><polygon class="cls-8" points="283.57 103.29 292.37 107.67 292.37 98.91 283.57 94.53 283.57 103.29"/><polygon class="cls-8" points="270.09 96.58 278.89 100.96 278.89 92.21 270.09 87.83 270.09 96.58"/><polygon class="cls-8" points="256.61 89.88 265.41 94.25 265.41 85.5 256.61 81.13 256.61 89.88"/><polygon class="cls-8" points="270.09 69.76 278.89 74.14 278.89 65.39 270.09 61.01 270.09 69.76"/><polygon class="cls-8" points="256.61 63.06 265.41 67.43 265.41 58.68 256.61 54.3 256.61 63.06"/><polygon class="cls-8" points="243.13 56.35 251.93 60.73 251.93 51.97 243.13 47.6 243.13 56.35"/><polygon class="cls-8" points="283.57 89.88 292.37 94.25 292.37 85.5 283.57 81.13 283.57 89.88"/><polygon class="cls-8" points="270.09 83.17 278.89 87.55 278.89 78.8 270.09 74.42 270.09 83.17"/><polygon class="cls-8" points="283.57 76.47 292.37 80.84 292.37 72.09 283.57 67.71 283.57 76.47"/><polygon class="cls-3" points="229.65 49.65 238.45 54.02 238.45 45.27 229.65 40.89 229.65 49.65"/><polygon class="cls-3" points="229.65 63.06 238.45 67.43 238.45 58.68 229.65 54.3 229.65 63.06"/><polygon class="cls-3" points="216.17 56.35 224.97 60.73 224.97 51.97 216.17 47.6 216.17 56.35"/><polygon class="cls-3" points="216.17 42.94 224.97 47.32 224.97 38.56 216.17 34.19 216.17 42.94"/><path class="cls-5" d="M285.51,67.88c.08,2.68,2.35,5.89,5.09,7.16s4.9.12,4.82-2.57-2.35-5.89-5.09-7.16S285.44,65.19,285.51,67.88Z" transform="translate(-4.97 -18.19)"/><path class="cls-5" d="M258.12,55.31c.08,2.68,2.35,5.89,5.09,7.16s4.9.11,4.82-2.57-2.35-5.89-5.09-7.16S258.05,52.62,258.12,55.31Z" transform="translate(-4.97 -18.19)"/><path class="cls-5" d="M230.73,42.74c.08,2.68,2.35,5.89,5.09,7.15s4.9.12,4.82-2.56-2.35-5.89-5.09-7.16S230.66,40.05,230.73,42.74Z" transform="translate(-4.97 -18.19)"/><path class="cls-6" d="M286.27,69.48l-.06,0a2,2,0,0,0-1.74-.12h0l3.7-1.92h0a2,2,0,0,1,1.87,0l.05,0a4.76,4.76,0,0,1,2.65,3.72l.11,4.23-3.81,2-.12-4.24A4.77,4.77,0,0,0,286.27,69.48Z" transform="translate(-4.97 -18.19)"/><path class="cls-3" d="M283.71,70.79a1.43,1.43,0,0,1,.76-1.45,2,2,0,0,1,1.74.12l.06,0a4.77,4.77,0,0,1,2.64,3.72L289,78l0,1.64c0,1.4-1.08,2-2.51,1.33l-.05,0a4.74,4.74,0,0,1-2.64-3.72Z" transform="translate(-4.97 -18.19)"/><path class="cls-6" d="M258.94,56.82l-.05,0a2.06,2.06,0,0,0-1.76-.12l3.72-1.94h0a2,2,0,0,1,1.86.07l.05,0a4.78,4.78,0,0,1,2.65,3.72l.11,4.24-3.81,2-.12-4.24A4.76,4.76,0,0,0,258.94,56.82Z" transform="translate(-4.97 -18.19)"/><path class="cls-3" d="M256.39,58.13a1.48,1.48,0,0,1,.64-1.39l0,0,.07,0a2.06,2.06,0,0,1,1.76.12l.05,0a4.76,4.76,0,0,1,2.65,3.72l.13,4.8,0,1.64c0,1.4-1.09,2-2.51,1.33l-.05,0a4.78,4.78,0,0,1-2.65-3.72Z" transform="translate(-4.97 -18.19)"/><path class="cls-6" d="M231.62,44.16l-.05,0a2,2,0,0,0-1.78-.11l3.79-2h0a2,2,0,0,1,1.78.11l.06,0a4.77,4.77,0,0,1,2.64,3.72l.12,4.24-3.82,2-.11-4.23A4.78,4.78,0,0,0,231.62,44.16Z" transform="translate(-4.97 -18.19)"/><path class="cls-3" d="M229.06,45.47a1.49,1.49,0,0,1,.67-1.41h0l0,0a2,2,0,0,1,1.78.11l.05,0a4.78,4.78,0,0,1,2.65,3.73l.18,6.43c0,1.4-1.09,2-2.51,1.34l-.05,0a4.74,4.74,0,0,1-2.65-3.72Z" transform="translate(-4.97 -18.19)"/><path class="cls-9" d="M280.37,229.75c4,2,4.05,5.28.05,7.28l-87.57,43.78a18.45,18.45,0,0,1-14.61,0l-65.91-32.73c-11.28-5.84-4.92-6.85-.91-8.86L199.85,197a18.56,18.56,0,0,1,14.62,0Z" transform="translate(-4.97 -18.19)"/><path class="cls-2" d="M285.4,225.76l-88.65,44.32a18.74,18.74,0,0,1-14.8,0l-66.72-33.14c-2-1-3.08-2.37-3.08-3.72v3.06c0,1.35,1,2.69,3.07,3.71l66.72,33.15a18.83,18.83,0,0,0,14.8,0l88.65-44.33c2-1,3-2.33,3-3.66V222.1C288.42,223.43,287.41,224.75,285.4,225.76Z" transform="translate(-4.97 -18.19)"/><path class="cls-2" d="M285.35,218.38c4.08,2,4.1,5.35,0,7.38l-88.65,44.32a18.74,18.74,0,0,1-14.8,0l-66.72-33.14c-4.08-2-4.1-5.35,0-7.38l88.65-44.32a18.74,18.74,0,0,1,14.8,0Z" transform="translate(-4.97 -18.19)"/><path class="cls-4" d="M255.25,199.15l0,5c0-.35-.26-.69-.79-.95a4.77,4.77,0,0,0-3.78,0c-.52.26-.78.6-.78.94l0-5c0-.33.26-.68.78-.94a4.77,4.77,0,0,1,3.78,0c.52.26.79.61.79,1Z" transform="translate(-4.97 -18.19)"/><path class="cls-10" d="M232.81,199.43l0,5c-.43-.22-.65-.5-.65-.78l0-5c0,.28.21.57.65.78Z" transform="translate(-4.97 -18.19)"/><path class="cls-4" d="M260,206.5a1.25,1.25,0,0,0,.21-.65l0-5a1.86,1.86,0,0,1-1.23,1.52l-2.41,1.2v5l.89-.45,0,4.72,2.29-1.15c.43-.21.64-.49.64-.77l0-5A.84.84,0,0,1,260,206.5Z" transform="translate(-4.97 -18.19)"/><path class="cls-4" d="M193.14,196.35c3.44,6.67,10.87,11.91,18.2,15.31a87.58,87.58,0,0,0,33.74,7.43c6.37.09,12.76-.58,19.11-1a46,46,0,0,0,9-1.75l7.45,2.94v2.36L208.37,258l-19.67,9.37-.09,0V198.49Z" transform="translate(-4.97 -18.19)"/><polygon class="cls-4" points="115.13 212.77 183.64 180.3 183.64 249.14 115.13 214.87 115.13 212.77"/><path class="cls-2" d="M120.1,231l68.6,34,92-45.68-23.16-11.5L255.17,209a4,4,0,0,1-3.1,0l-19.26-9.57c-.86-.42-.86-1.12,0-1.54l2.35-1.18-23.32-11.58Z" transform="translate(-4.97 -18.19)"/><path class="cls-11" d="M259.8,206.42c.85.43.86,1.13,0,1.56l-2.28,1.14-2.34,1.17a4,4,0,0,1-3.1,0l-19.26-9.57c-.48-.23-.69-.55-.64-.86v-1.21l3-.65,2.28-1.14a4,4,0,0,1,3.11,0l3.17,1.58,2.41-1.2a8.41,8.41,0,0,1,6.63.13l6,3c1.92,1,2,2.45.3,3.32l-2.41,1.2Zm-9.13-5a4.82,4.82,0,0,0,3.8,0c1-.52,1-1.37,0-1.89a4.73,4.73,0,0,0-3.78,0c-1.05.52-1,1.36,0,1.88Z" transform="translate(-4.97 -18.19)"/><path class="cls-12" d="M259.8,205.13c.85.43.86,1.12,0,1.55l-2.28,1.15L255.17,209a4,4,0,0,1-3.1,0l-19.26-9.57c-.86-.42-.86-1.12,0-1.54l2.35-1.18,2.28-1.14a4,4,0,0,1,3.11,0l3.17,1.58,2.41-1.2a8.4,8.4,0,0,1,6.63.12l6,3c1.92,1,2,2.45.3,3.32l-2.41,1.2Zm-9.13-5a4.82,4.82,0,0,0,3.8,0c1-.52,1-1.37,0-1.89a4.77,4.77,0,0,0-3.78,0c-1.05.53-1,1.37,0,1.89Z" transform="translate(-4.97 -18.19)"/><path class="cls-3" d="M204.24,191.53l29.37,14.59-29.18,14.59-29.36-14.59Z" transform="translate(-4.97 -18.19)"/><polygon class="cls-3" points="199.89 232.53 191.77 236.6 141.9 211.82 150.02 207.76 199.89 232.53"/><polygon class="cls-3" points="212.13 226.42 204.01 230.48 154.13 205.71 162.25 201.65 212.13 226.42"/><polygon class="cls-3" points="238.22 213.67 230.1 217.73 201.93 203.74 210.06 199.68 238.22 213.67"/><path class="cls-3" d="M162.82,218.63a.77.77,0,0,1,.44.43c.11.42-.46.8-1.3.86l-7.05.49a2.47,2.47,0,0,1-1.29-.22.77.77,0,0,1-.43-.42l-.41-1.39c-.13-.42.45-.8,1.28-.86a2.6,2.6,0,0,1,1.3.21.81.81,0,0,1,.43.43l.19.64,5.55-.39A2.69,2.69,0,0,1,162.82,218.63Z" transform="translate(-4.97 -18.19)"/><path class="cls-3" d="M175.06,212.51a.78.78,0,0,1,.43.43c.12.42-.46.8-1.29.86l-7,.49a2.58,2.58,0,0,1-1.29-.21.72.72,0,0,1-.43-.43l-.42-1.39c-.12-.41.45-.8,1.29-.86a2.64,2.64,0,0,1,1.3.22.8.8,0,0,1,.43.42l.19.64,5.55-.38A2.58,2.58,0,0,1,175.06,212.51Z" transform="translate(-4.97 -18.19)"/><polygon class="cls-3" points="224.36 220.3 216.24 224.36 166.37 199.59 174.49 195.53 224.36 220.3"/><polygon class="cls-3" points="248.75 208.41 240.63 212.47 212.46 198.48 220.58 194.42 248.75 208.41"/><polygon class="cls-3" points="259.27 203.14 251.15 207.2 222.99 193.21 231.11 189.15 259.27 203.14"/><path class="cls-3" d="M150.59,224.75a.78.78,0,0,1,.43.43c.12.41-.46.8-1.29.86l-7,.49a2.56,2.56,0,0,1-1.29-.22.74.74,0,0,1-.43-.42l-.42-1.39c-.12-.42.45-.8,1.29-.86a2.56,2.56,0,0,1,1.29.21.77.77,0,0,1,.44.43l.19.64,5.55-.39A2.58,2.58,0,0,1,150.59,224.75Z" transform="translate(-4.97 -18.19)"/><polygon class="cls-2" points="199.12 188.26 202.82 190.09 191 196 187.3 194.18 199.12 188.26"/><polygon class="cls-2" points="199.55 193.59 203.25 195.41 196.14 198.8 192.44 196.97 199.55 193.59"/><polygon class="cls-2" points="200.64 182.65 204.34 184.47 186.1 193.59 182.41 191.77 200.64 182.65"/><polygon class="cls-2" points="202.13 177.05 205.83 178.87 181.21 191.19 177.52 189.36 202.13 177.05"/><polygon class="cls-13" points="162.54 137.16 135.66 153 164.95 171.02 192.6 155.7 162.54 137.16"/><path class="cls-11" d="M143.71,162.67c0-.57,0-1.76,0-2.24a10.81,10.81,0,0,1,0-1.14,1.44,1.44,0,0,1,.08-.51,1.84,1.84,0,0,1,.33-.55c2.68-3,10.5-5.67,12.2-6.11h0c-4.2-2.87-12.52-9.5-12.52-9.5s-.32-11.54-.12-12.68a.06.06,0,0,1,.09,0l28.78,18.31h0l0,31C172.25,179.08,143.7,162.9,143.71,162.67Z" transform="translate(-4.97 -18.19)"/><path class="cls-12" d="M172.62,179.25c-.11-10.14-.25-20.82-.35-30.95l15.5-9.42-.13-.08h.22l13.2-8.95c.21,3.23-9.24,9.5-13.42,8.94,3.39,3,10,6.36,13.36,9.4l.09,11.24c0,.33,0,2.24,0,3.26C200.62,163.49,172.89,179.2,172.62,179.25Z" transform="translate(-4.97 -18.19)"/><path class="cls-2" d="M172.38,148.76l-28.6-18.82a0,0,0,0,1,0,0c.93-.62,28.13-16.86,28.62-16.86s27.72,16.26,28.68,16.84h0l-13.17,8.94h-.32l.15.1-15.34,9.83S172.39,148.77,172.38,148.76Z" transform="translate(-4.97 -18.19)"/><path class="cls-14" d="M143.8,139.55A23.05,23.05,0,0,0,144,143a136.8,136.8,0,0,0,12.41,9.1l1-.06a10.78,10.78,0,0,1,3.59.57l6.8,2.71a43.08,43.08,0,0,0,14.79,3.14,38.92,38.92,0,0,0,5.7,0,23.21,23.21,0,0,0,6.46-1.58,11.2,11.2,0,0,0,4.77-3.59,13.65,13.65,0,0,0,1.47-2.22,24.92,24.92,0,0,0,0-2.85,2.5,2.5,0,0,0-1.05-1.44c-3-2-12.29-8-12.29-8-.48,0-3-.06-4.82-.12a42.47,42.47,0,0,1-8.53-1.15c-.58-.13-1.15-.28-1.7-.44a42.37,42.37,0,0,1-4.56-1.56l-6.8-2.71a10.85,10.85,0,0,0-3.6-.57,12.2,12.2,0,0,0-3.33.57,20.52,20.52,0,0,0-5.06,2.43C145,137.84,143.83,138.73,143.8,139.55Z" transform="translate(-4.97 -18.19)"/><path class="cls-14" d="M172.64,143.72" transform="translate(-4.97 -18.19)"/><path class="cls-15" d="M172.55,137.09s-2.94-1.08-4.21-1.6l-6.79-2.71a10.89,10.89,0,0,0-3.6-.57,9.7,9.7,0,0,0-3.37.41,20.71,20.71,0,0,0-5.07,2.47c-4.28,2.58-5.62,3.58-5.68,4.4a23.7,23.7,0,0,0,0,3.47,1.27,1.27,0,0,0,.15.41.23.23,0,0,0,.08.11c.53.49,4.72,3.72,4.72,3.72a64.17,64.17,0,0,0,7.56,4.86l.57,0h0l15.55-8.61Z" transform="translate(-4.97 -18.19)"/><path class="cls-16" d="M201,148.27a2.46,2.46,0,0,0-1.05-1.44c-2.74-1.84-10.75-7-12.13-7.9-.13-.09-3.18-.17-5-.23a42.47,42.47,0,0,1-8.53-1.15c-.58-.13-1.15-.28-1.7-.44l-.09,0,0,6.34,22.86,13.27a10.36,10.36,0,0,0,4.16-3.36,13.65,13.65,0,0,0,1.47-2.22A22.82,22.82,0,0,0,201,148.27Z" transform="translate(-4.97 -18.19)"/><path class="cls-17" d="M156.9,152.1l.72,0a10.85,10.85,0,0,1,3.6.57l6.79,2.71a43.22,43.22,0,0,0,14.8,3.14,38.79,38.79,0,0,0,5.69,0,23.32,23.32,0,0,0,6.47-1.58l.4-.17-22.86-13.33Z" transform="translate(-4.97 -18.19)"/></svg>
