<svg id="Layer_1" data-name="Layer 1" xmlns="http://www.w3.org/2000/svg" xmlns:xlink="http://www.w3.org/1999/xlink" width="145.63" height="167.86" viewBox="0 0 145.63 167.86"><defs><style>.cls-1{fill:#e8eff7;}.cls-2{fill:#cfdae8;}.cls-3{fill:#fff;}.cls-4{fill:#2d3d51;}.cls-5{fill:url(#linear-gradient);}.cls-6{fill:url(#linear-gradient-2);}.cls-7{fill:url(#linear-gradient-3);}</style><linearGradient id="linear-gradient" x1="87.34" y1="134.04" x2="160.27" y2="134.04" gradientUnits="userSpaceOnUse"><stop offset="0" stop-color="#435d82"/><stop offset="0.15" stop-color="#415a7d"/><stop offset="0.34" stop-color="#3a4f6d"/><stop offset="0.55" stop-color="#2e3f54"/><stop offset="0.57" stop-color="#2d3d51"/><stop offset="0.74" stop-color="#29384b"/><stop offset="0.96" stop-color="#1c283a"/><stop offset="0.99" stop-color="#1a2638"/></linearGradient><linearGradient id="linear-gradient-2" x1="230.15" y1="160.89" x2="160.58" y2="120.72" gradientUnits="userSpaceOnUse"><stop offset="0" stop-color="#435d82"/><stop offset="0.23" stop-color="#384d6a"/><stop offset="0.51" stop-color="#2d3d51"/><stop offset="0.62" stop-color="#253346"/><stop offset="0.79" stop-color="#1d293b"/><stop offset="0.99" stop-color="#1a2638"/></linearGradient><linearGradient id="linear-gradient-3" x1="169.36" y1="175.82" x2="169.36" y2="137.33" gradientUnits="userSpaceOnUse"><stop offset="0" stop-color="#435d82"/><stop offset="0.09" stop-color="#3a4f6d"/><stop offset="0.19" stop-color="#33455d"/><stop offset="0.31" stop-color="#2e3f54"/><stop offset="0.47" stop-color="#2d3d51"/><stop offset="0.99" stop-color="#1a2638"/></linearGradient></defs><title>white-blue-shaded-logo</title><path class="cls-1" d="M87.15,186.12c.07-1.45.13-4.46.09-5.67s0-1.9,0-2.91a4,4,0,0,1,1.06-2.68c6.79-7.57,26.63-14.38,30.93-15.49v0c-10.65-7.3-31.74-24.09-31.74-24.09s-.83-29.26-.3-32.16a.16.16,0,0,1,.22-.11l73,46.44h0l.07,78.7C159.52,227.73,87.12,186.7,87.15,186.12Z" transform="translate(-87.01 -60.28)"/><path class="cls-2" d="M160.45,228.14c-.26-25.69-.62-52.76-.89-78.46l39.3-23.89-.31-.2.54,0,33.47-22.7c.53,8.21-23.42,24.1-34,22.67,8.58,7.7,25.28,16.14,33.86,23.85l.22,28.48c0,.85,0,5.67-.07,8.28C231.44,188.19,161.15,228,160.45,228.14Z" transform="translate(-87.01 -60.28)"/><path class="cls-3" d="M159.84,150.85l-72.5-47.73a0,0,0,0,1,0-.08c2.36-1.59,71.32-42.76,72.57-42.76,1.44,0,70.29,41.24,72.72,42.69,0,0,0,0,0,0l-33.4,22.68h-.82l.39.26L159.9,150.85S159.86,150.87,159.84,150.85Z" transform="translate(-87.01 -60.28)"/><path class="cls-4" d="M87.37,127.5a63.09,63.09,0,0,0,.41,8.79c.12.62,25.34,19.83,31.47,23.08l2.65-.17a27.83,27.83,0,0,1,9.13,1.45l17.23,6.88a109.66,109.66,0,0,0,37.5,8c6.07.2,9.52.57,14.45.06a59.76,59.76,0,0,0,16.39-4c6-2.46,8.7-5.18,12.08-9.11a32.68,32.68,0,0,0,3.73-5.64,58.6,58.6,0,0,0,.08-7.22,6.33,6.33,0,0,0-2.68-3.65c-7.61-5.12-31.14-20.3-31.16-20.3-1.21,0-7.64-.17-12.21-.32a108.75,108.75,0,0,1-21.62-2.89c-1.49-.36-2.93-.73-4.32-1.12a112.72,112.72,0,0,1-11.57-3.95l-17.23-6.88a27.19,27.19,0,0,0-9.12-1.45,31.53,31.53,0,0,0-8.45,1.45c-5,1.48-8.39,3.48-12.84,6.15C90.44,123.17,87.45,125.42,87.37,127.5Z" transform="translate(-87.01 -60.28)"/><path class="cls-4" d="M160.5,138.08" transform="translate(-87.01 -60.28)"/><path class="cls-5" d="M160.27,121.25s-7.45-2.74-10.66-4l-17.23-6.88a27.6,27.6,0,0,0-9.13-1.44,24.48,24.48,0,0,0-8.53,1c-5,1.48-8.42,3.6-12.87,6.27-10.85,6.52-14.25,9.08-14.4,11.15a60.74,60.74,0,0,0,.13,8.8,4.17,4.17,0,0,0,.37,1,1,1,0,0,0,.22.28c1.35,1.24,12,9.43,12,9.43a164.7,164.7,0,0,0,19.16,12.32l1.44-.05h0l39.44-21.84Z" transform="translate(-87.01 -60.28)"/><path class="cls-6" d="M232.49,149.6a6.32,6.32,0,0,0-2.67-3.65c-6.95-4.67-27.26-17.78-30.75-20-.34-.21-8.06-.44-12.63-.59a108.75,108.75,0,0,1-21.62-2.89c-1.48-.36-2.92-.73-4.32-1.12l-.23-.07-.09,16.08,58,33.64c5.26-2.35,7.35-4.81,10.53-8.51a33,33,0,0,0,3.74-5.64A60.54,60.54,0,0,0,232.49,149.6Z" transform="translate(-87.01 -60.28)"/><path class="cls-7" d="M120.58,159.32l1.84-.12a27.83,27.83,0,0,1,9.13,1.45l17.23,6.88a109.66,109.66,0,0,0,37.5,8c6.07.2,9.52.57,14.45.06a59.87,59.87,0,0,0,16.39-4l1-.43-57.95-33.81Z" transform="translate(-87.01 -60.28)"/></svg>