<svg xmlns="http://www.w3.org/2000/svg" viewBox="0 0 85.62 53.56"><defs><style>.cls-1{fill:#ed171f;}.cls-2{fill:#082f67;}.cls-3{fill:#006a65;}.cls-4,.cls-5{fill:#fff;}.cls-4{fill-rule:evenodd;}</style></defs><g id="Layer_2" data-name="Layer 2"><g id="图层_1" data-name="图层 1"><path class="cls-1" d="M16.77,0H38.14a4.16,4.16,0,0,1,4.14,5.43l-10,42.71a7.27,7.27,0,0,1-6.67,5.42H4.29A4.16,4.16,0,0,1,.15,48.14l10-42.71A7.24,7.24,0,0,1,16.77,0"/><path class="cls-2" d="M36.36,0H60.93c3,0,1.64,2.43.94,5.43L51.92,48.14c-.69,3-.48,5.42-3.47,5.42H23.88a4.15,4.15,0,0,1-4.13-5.42L29.69,5.43A7.25,7.25,0,0,1,36.36,0"/><path class="cls-3" d="M60,0H81.33a4.16,4.16,0,0,1,4.14,5.43l-10,42.71a7.26,7.26,0,0,1-6.68,5.42H47.48a4.16,4.16,0,0,1-4.14-5.42L53.29,5.43A7.24,7.24,0,0,1,60,0"/><path class="cls-4" d="M56.39,40.18h2L59,38.24H57ZM58,34.84l-.69,2.29a9.39,9.39,0,0,1,1.18-.52c.41-.09,1-.17,1-.17l.49-1.6Zm1-3.3-.67,2.2a10.56,10.56,0,0,1,1.16-.45,6.82,6.82,0,0,1,1-.15l.48-1.6Zm4.46,0-2.6,8.62h.69L61,41.94h-.7l-.16.55H57.67l.17-.55h-5l.51-1.65h.51l2.64-8.75L57,29.77h2.53l-.27.89A5,5,0,0,1,60.56,30c.64-.17,4.31-.23,4.31-.23l-.54,1.76Z"/><path class="cls-5" d="M64.58,29.78h2.69l0,1c0,.17.13.25.45.25h.54l-.5,1.66H66.34c-1.27.09-1.74-.45-1.72-1.06Z"/><path class="cls-5" d="M64.93,37.66H62.36l.44-1.48h2.94l.42-1.35h-2.9l.5-1.67h8.07l-.5,1.67H68.62l-.43,1.35h2.72l-.45,1.48H67.52l-.52.62h1.19l.29,1.87a.93.93,0,0,0,.1.38,1.42,1.42,0,0,0,.62.1h.36L69,42.44H68.1l-.64,0a1.83,1.83,0,0,1-.66-.28.87.87,0,0,1-.48-.63L66,39.65,64.7,41.48a2.28,2.28,0,0,1-2,1H60.86l.49-1.62h.71a1.14,1.14,0,0,0,.53-.15.73.73,0,0,0,.4-.33Z"/><path class="cls-5" d="M36.76,33.61h6.81l-.5,1.63H40.34l-.42,1.38h2.79L42.2,38.3H39.41l-.67,2.25c-.08.25.66.29.92.29l1.4-.19L40.5,42.5H37.36a3,3,0,0,1-.71-.09.73.73,0,0,1-.5-.37.7.7,0,0,1-.17-.73l.9-3H35.33l.51-1.71H37.4l.41-1.38H36.26Z"/><path class="cls-5" d="M41.35,30.69h2.79l-.51,1.7H39.81l-.41.36c-.18.17-.24.1-.47.23a2.92,2.92,0,0,1-1.26.32H36.45l.49-1.64h.37a1.34,1.34,0,0,0,.63-.09,1.48,1.48,0,0,0,.41-.53l.7-1.28h2.78Z"/><path class="cls-4" d="M46.71,33.49a4.31,4.31,0,0,1,2.06-.92c.3-.06,2.16,0,2.16,0l.28-.94H47.27Zm3.68.71h-3.9l-.24.79h3.38a4,4,0,0,1,.51,0Zm-5-4.42h2.38L47.37,31a6.69,6.69,0,0,1,1.28-.81,11.73,11.73,0,0,1,1.71-.38l3.85,0L52.9,34.14a5.09,5.09,0,0,1-.64,1.46,1.82,1.82,0,0,1-.65.6,2.6,2.6,0,0,1-.89.3c-.26,0-.65,0-1.19,0H45.82l-1,3.46c-.09.34-.14.5-.08.59a.42.42,0,0,0,.36.18l1.63-.15-.55,1.89H44.29c-.58,0-1,0-1.3,0s-.58,0-.77-.16-.44-.34-.43-.55a5.84,5.84,0,0,1,.22-.92Z"/><path class="cls-5" d="M52.28,36.84l-.22,1a1.47,1.47,0,0,1-.43.78,1.69,1.69,0,0,1-1.28.45L49,39.18v1.19c0,.33.08.3.13.35a.38.38,0,0,0,.18.11l.41,0L51,40.73l-.52,1.74H49a4.7,4.7,0,0,1-2-.22c-.24-.16-.27-.35-.27-.68l.09-4.63h2.31l0,1h.56a.79.79,0,0,0,.4-.07.51.51,0,0,0,.15-.25l.23-.73Z"/><path class="cls-5" d="M19.3,13.65c-.09.37-1.57,7.21-1.57,7.21-.33,1.39-.55,2.38-1.34,3a2.4,2.4,0,0,1-1.58.55A1.46,1.46,0,0,1,13.17,23l0-.31s.3-1.86.3-1.87S15,14.6,15.29,13.78l0-.09a25.54,25.54,0,0,1-3.6,0c0,.06-.1.44-.1.44l-1.59,7-.14.6-.26,2A2.79,2.79,0,0,0,10,25.11c.73,1.27,2.79,1.46,4,1.46a7.74,7.74,0,0,0,3.87-.9,5.8,5.8,0,0,0,2.48-3.87l.17-.7s1.61-6.47,1.88-7.32a.46.46,0,0,1,0-.09,27.43,27.43,0,0,1-3.05,0"/><path class="cls-5" d="M28.17,26.5c-1.08,0-1.46,0-2.71.05l-.05-.09c.11-.48.23-.95.33-1.44l.16-.65a25.65,25.65,0,0,0,.48-2.56c0-.22.1-.76-.52-.76a2.22,2.22,0,0,0-.81.25c-.15.54-.46,2.06-.6,2.76-.31,1.46-.33,1.62-.47,2.35l-.09.09c-1.11,0-1.49,0-2.77.05l-.06-.11c.22-.86.43-1.74.63-2.61a37.16,37.16,0,0,0,.81-4.44l.1-.07c1.24-.18,1.55-.21,2.89-.49l.11.13-.2.75c.23-.14.44-.27.68-.39a4.1,4.1,0,0,1,1.73-.41,1.47,1.47,0,0,1,1.5.85c.25.61.09,1.36-.25,2.83l-.17.75c-.35,1.64-.41,1.94-.6,3.07Z"/><path class="cls-5" d="M32.53,26.5c-.65,0-1.06,0-1.47,0s-.8,0-1.4.05l0-.05,0-.06a10.48,10.48,0,0,1,.34-1.06,8.15,8.15,0,0,0,.31-1.07c.18-.82.3-1.4.38-1.9s.14-.9.2-1.38l.05,0,.05,0,1.47-.21c.42-.06.85-.15,1.52-.27l0,.06,0,.05c-.12.51-.25,1-.37,1.54s-.25,1-.36,1.53c-.24,1.09-.34,1.49-.39,1.78s-.08.42-.17,1l-.06.05Z"/><path class="cls-5" d="M39.38,22.68a5.86,5.86,0,0,1-.64,1.76,1,1,0,0,1-.8.52c-.09,0-.62,0-.63-.79A5.42,5.42,0,0,1,37.48,23c.29-1.26.62-2.3,1.47-2.3.67,0,.71.78.43,2m2.8.12c.38-1.65.09-2.42-.28-2.9A3.17,3.17,0,0,0,39.33,19a4.73,4.73,0,0,0-3.24,1.12,5.32,5.32,0,0,0-1.43,2.79c-.23,1-.5,2.84,1.18,3.51a4.94,4.94,0,0,0,1.74.28A4.54,4.54,0,0,0,41,25.32a5.84,5.84,0,0,0,1.18-2.52"/><path class="cls-5" d="M68.46,26.61c-1.3,0-1.67,0-2.87,0l-.08-.1c.33-1.23.66-2.46.95-3.7A28,28,0,0,0,67,19.6l.1-.08c1.29-.19,1.64-.24,3-.49l0,.11c-.25,1-.49,2-.73,3.05-.49,2.13-.67,3.22-.86,4.33Z"/><path class="cls-5" d="M66.51,22.82a5.55,5.55,0,0,1-.64,1.75,1.48,1.48,0,0,1-1,.51c-.09,0-.61,0-.63-.78a4.56,4.56,0,0,1,.18-1.22c.28-1.23.61-2.27,1.46-2.27.67,0,1,.76.67,2m2.57.13c.37-1.65-1.14-.15-1.39-.69-.37-.85-.13-2.56-1.63-3.14A3.6,3.6,0,0,0,63,20.24,5.31,5.31,0,0,0,61.55,23c-.23,1-.49,2.81,1.17,3.47a3.38,3.38,0,0,0,1.49.26c1.68-.09,3-2.61,3.9-3.62.73-.79.86.3,1-.18"/><path class="cls-5" d="M49.53,26.5c-1.08,0-1.45,0-2.71.05l0-.09c.11-.48.23-.95.34-1.44l.15-.65c.24-1,.46-2.2.49-2.56s.09-.76-.52-.76a2.11,2.11,0,0,0-.81.25c-.15.54-.46,2.06-.61,2.76-.31,1.46-.33,1.62-.47,2.35l-.09.09c-1.11,0-1.49,0-2.76.05l-.06-.11c.22-.86.42-1.74.63-2.61a39.37,39.37,0,0,0,.81-4.44l.1-.07c1.24-.18,1.54-.21,2.89-.49L47,19l-.19.75c.22-.14.44-.27.67-.39a4.1,4.1,0,0,1,1.73-.41,1.49,1.49,0,0,1,1.51.85c.25.61.08,1.36-.26,2.83l-.17.75c-.35,1.64-.41,1.94-.59,3.07Z"/><path class="cls-5" d="M58.84,13.63l-.89,0c-2.33,0-3.26,0-3.64,0,0,.17-.1.48-.1.48L53.38,18s-2,8.2-2.08,8.59c2,0,2.86,0,3.2,0l.56-2.68s.4-1.68.42-1.74a1,1,0,0,1,.26-.24h.18c1.75,0,3.73,0,5.28-1.14a5.66,5.66,0,0,0,2.09-3.34,4.65,4.65,0,0,0,.15-1.16A2.37,2.37,0,0,0,63,14.77c-.78-1.11-2.35-1.12-4.17-1.14m1.16,4a2.81,2.81,0,0,1-1.46,1.92,4.54,4.54,0,0,1-2,.32H56l0-.19.88-3.84,0-.19v-.16l.36,0,1.86.16A1.53,1.53,0,0,1,60,17.65"/><path class="cls-5" d="M79.08,19,79,18.91c-1.32.26-1.56.31-2.78.47l-.09.09s0,0,0,.05h0c-.91,2.09-.88,1.64-1.62,3.29,0-.08,0-.13,0-.21L74.27,19l-.12-.11c-1.38.26-1.42.31-2.7.47l-.11.09s0,.09,0,.14v0a17.61,17.61,0,0,1,.29,1.93c.07.63.17,1.27.24,1.9.13,1.05.2,1.57.35,3.16-.86,1.44-1.07,2-1.89,3.24l0,.11c1.26,0,1.54,0,2.47,0L73,29.7c.7-1.52,6-10.68,6-10.68"/><path class="cls-5" d="M33.71,19.91c.71-.5.8-1.18.2-1.54a2.44,2.44,0,0,0-2.38.26c-.72.48-.8,1.17-.2,1.53a2.47,2.47,0,0,0,2.38-.25"/><path class="cls-5" d="M72.94,29.82l-1,1.79A2,2,0,0,1,70,32.68l-1.66,0L68.8,31h.33a1.05,1.05,0,0,0,.39-.05.53.53,0,0,0,.21-.19l.61-1Z"/></g></g></svg>
