<?xml version="1.0" encoding="utf-8"?>
<!-- Generator: Adobe Illustrator 22.1.0, SVG Export Plug-In . SVG Version: 6.00 Build 0)  -->
<svg version="1.1" id="Layer_1" xmlns="http://www.w3.org/2000/svg" xmlns:xlink="http://www.w3.org/1999/xlink" x="0px" y="0px"
	 viewBox="0 0 196.3 199.3" style="enable-background:new 0 0 196.3 199.3;" xml:space="preserve">
<style type="text/css">
	.st0{enable-background:new    ;}
	.st1{fill:#F66578;}
	.st2{fill:#38424C;}
</style>
<g>
	<g class="st0">
		<path class="st1" d="M95.9,127.5c-3.8,1.4-10.9,3.4-18.3,3.4c-10,0-17.1-2.7-22-7.8c-4.5-4.7-7.1-11.4-7.1-18.8
			c0-17.2,12.3-28.1,30.1-28.1c7.1,0,12.6,1.5,15.3,2.9l-2.5,9.9c-3.1-1.4-6.9-2.6-13.2-2.6c-10.1,0-17.6,5.9-17.6,16.8
			c0,10.5,6.9,17.5,17.4,17.5c3,0,5.5-0.4,6.5-0.9v-10.7h-8.6v-9.8h19.8V127.5z"/>
		<path class="st1" d="M144.6,128.6c-2.2,1.2-7.4,2.7-14.1,2.7c-18.3,0-27.8-11.7-27.8-27c0-17.6,12.4-28.5,28.8-28.5
			c6.5,0,11.5,1.4,13.7,2.7l-2.5,9.8c-2.5-1.2-6.3-2.3-10.8-2.3c-9.7,0-17.2,6.1-17.2,17.5c0,10.1,6.2,17.4,17.3,17.4
			c4,0,8.2-0.8,10.7-2L144.6,128.6z"/>
	</g>
</g>
<g>
	<g>
		<path class="st2" d="M187.6,42.7l-13.1,8.2C158.8,27.5,133.2,12,104.6,9.5C61.1,5.7,20,33.2,6.9,74.8c-1,3.1,0.7,6.4,3.8,7.4
			c0.6,0.2,1.2,0.3,1.8,0.3c2.5,0,4.8-1.6,5.6-4.1c11.5-36.4,47.4-60.5,85.6-57.1c24.8,2.2,47.2,15.6,60.9,35.9L151,65.6
			c-2.5,1.6-2.4,3.9,0.3,5.2l36.1,17.6c2.7,1.3,4.9-0.1,4.9-3l0-40.1C192.2,42.3,190.1,41.1,187.6,42.7z"/>
		<path class="st2" d="M186.1,123.8c-3.1-1-6.4,0.7-7.4,3.8c-11.5,36.4-47.5,60.4-85.6,57.1c-25-2.2-47.5-15.8-61.2-36.3l13.8-8.6
			c2.5-1.6,2.4-3.9-0.3-5.2L9.5,117c-2.7-1.3-4.9,0.1-4.9,3l0,40.1c0,3,2.1,4.1,4.6,2.5l12.9-8c15.7,23.6,41.4,39.2,70.1,41.8
			c2.7,0.2,5.4,0.4,8.1,0.4c40.5,0,77.4-26.6,89.7-65.6C190.9,128,189.2,124.7,186.1,123.8z"/>
	</g>
</g>
</svg>
