<?xml version="1.0" encoding="utf-8"?>
<!-- Generator: Adobe Illustrator 24.2.0, SVG Export Plug-In . SVG Version: 6.00 Build 0)  -->
<svg version="1.1" id="Layer_1" xmlns="http://www.w3.org/2000/svg" xmlns:xlink="http://www.w3.org/1999/xlink" x="0px" y="0px"
	 viewBox="0 0 320 320" style="enable-background:new 0 0 320 320;" xml:space="preserve">
<style type="text/css">
	.st0{fill:none;stroke:#38424C;stroke-width:5;stroke-linecap:round;stroke-linejoin:round;stroke-miterlimit:2.6131;}
	.st1{fill:none;stroke:#38424C;stroke-width:4.7553;stroke-linecap:round;stroke-linejoin:round;stroke-miterlimit:2.6131;}
	.st2{fill:none;stroke:#38424C;stroke-width:8;stroke-linecap:round;stroke-linejoin:bevel;stroke-miterlimit:2.6131;}
	.st3{fill:none;stroke:#38424C;stroke-width:10;stroke-linecap:round;stroke-linejoin:round;stroke-miterlimit:2.6131;}
	.st4{fill:#38424C;}
</style>
<path class="st0" d="M221.1,37.3c-1.8-10-21.1-11.1-22.9,0c-1.4,8.6,8.4,10,13.9,11.3c4.7,1,11.9,3.1,10.2,10
	c-3.1,14.1-21.7,14.3-25.6,0"/>
<line class="st1" x1="209.5" y1="29.3" x2="209.5" y2="20.5"/>
<line class="st0" x1="209.5" y1="77.4" x2="209.5" y2="69.2"/>
<path class="st2" d="M190.4,10.7c5.7-3.1,12.3-4.7,19-4.7c23.1,0,42,19.4,42,43.4s-18.8,43.4-42,43.4s-42-19.4-42-43.4
	c0-8.8,2.5-17,7-23.9"/>
<path class="st3" d="M240.2,113.6c24.8,14.1,44.2,34.2,49.1,58.9c9.2-4.7,15.1-13.5,15.1-29.5c12.7,16,10,37.2-13.3,46.9
	c0,32.3-18.8,57.1-33.4,69v38.5c0,8.8-7.2,16-16,16h-22.1c-8.8,0-16-7.2-16-16v-10.6l-0.4,0.2c-23.3,6.3-48.9,7.8-73.3,1.4l-0.4-0.2
	v9.2c0,8.8-7.2,16-16,16H91.8c-8.8,0-16-7.2-16-16v-33.2c-14.1-6.3-30.9-32.3-34.8-46.9h-8.8c-8.6,0-15.6-7-15.6-15.6v-22.1
	c0-8.6,7-15.6,15.6-15.6h8.8c6.3-19.6,18.6-35,35-47.1c7-10.4,8.6-19.4,0-26c13.5-8,27.6-1.8,35,7.2c12.1-6.1,28.4-8.8,46.7-8"/>
<path class="st4" d="M80.6,144.7c3.7,0,4.1,4.5,1,10.2c-3.1,5.7-8.4,10.2-12.1,10.2c-3.7,0-4.1-4.5-1-10.2
	C71.6,149.4,77.1,144.7,80.6,144.7"/>
<path class="st3" d="M147.1,115.7c30.9-5.3,60.8,6.5,81.4,19.2"/>
</svg>
