<?xml version="1.0" encoding="utf-8"?>
<!-- Generator: Adobe Illustrator 22.1.0, SVG Export Plug-In . SVG Version: 6.00 Build 0)  -->
<svg version="1.1" id="Layer_1" xmlns="http://www.w3.org/2000/svg" xmlns:xlink="http://www.w3.org/1999/xlink" x="0px" y="0px"
	 viewBox="0 0 143 175" style="enable-background:new 0 0 143 175;" xml:space="preserve">
<style type="text/css">
	.st0{fill:#38424C;stroke:#38424C;stroke-width:5;stroke-miterlimit:10;}
	.st1{fill:none;}
	.st2{enable-background:new    ;}
	.st3{fill:#66B988;}
</style>
<g>
	<path class="st0" d="M21.3,78.8l0.9,83.3h-4.6c-2.5,0-4.5-2-4.5-4.5V75.4c0-2.5,2-4.5,4.5-4.5h17.6V79c0,18.3,0,52.8,0,75
		c0,1.1,4.2,0.9,4.2-0.3c0-22.2,0-56.3,0-74.6V68.8c0-1.1-0.9-2.1-2.1-2.1H17.7c-4.7,0-8.6,3.9-8.6,8.6v82.1c0,4.7,3.9,8.6,8.6,8.6
		h6.5c1.1,0,3-2,3-3.3l-0.6-84.1C26.5,77.8,21.3,77.5,21.3,78.8z"/>
	<path class="st0" d="M62.2,66.8H47.7c-1.1,0-1.2,4.4,0,4.4L62.2,71c2.5,0,4.5,2,4.5,4.5v82.1c0,2.5-2,4.5-4.5,4.5H35.5
		c-1.1,0-0.9,3.9,0.3,3.9l26.4,0.3c4.7,0,8.6-3.9,8.6-8.6V75.6C70.8,70.7,67,66.8,62.2,66.8z"/>
	<path class="st0" d="M49.5,154.1c0,1.1,0.9,2.1,2.1,2.1c1.1,0,2.1-0.9,2.1-2.1v-8.3c0-1.1-0.9-2.1-2.1-2.1c-1.1,0-2.1,0.9-2.1,2.1
		V154.1z"/>
	<path class="st0" d="M51.5,136.2c1.1,0,2.1-0.9,2.1-2.1v-8.3c0-1.1-0.9-2.1-2.1-2.1c-1.1,0-2.1,0.9-2.1,2.1v8.3
		C49.5,135.3,50.4,136.2,51.5,136.2z"/>
	<path class="st0" d="M129.6,121h-49c-1.1,0-2.1,0.9-2.1,2.1c0,1.1,0.9,2.1,2.1,2.1h46.9v9.7c0,4.6-3.7,8.4-8.4,8.4H80.5
		c-1.1,0-2.1,0.9-2.1,2.1c0,1.1,0.9,2.1,2.1,2.1h38.6c6.9,0,12.5-5.6,12.5-12.5v-11.7C131.6,122,130.7,121,129.6,121z"/>
	<path class="st0" d="M119.2,9H61.3c-6.9,0-12.5,5.6-12.5,12.5v31.7c0,1.1,0.9,2.1,2.1,2.1c1.1,0,2.1-0.9,2.1-2.1V21.5
		c0-4.6,3.7-8.4,8.4-8.4h57.9c4.6,0,8.4,3.7,8.4,8.4v5.3H58.3c-1.1,0-2.1,0.9-2.1,2.1c0,1.1,0.9,2.1,2.1,2.1h69.2v79.6
		c0,1.1,0.9,2.1,2.1,2.1c1.1,0,2.1-0.9,2.1-2.1v-89C131.6,14.6,126.1,9,119.2,9z"/>
	<path class="st0" d="M95.5,136.1c1.1,0,2.1-0.9,2.1-2.1c0-1.1-0.9-2.1-2.1-2.1H84.9c-1.1,0-2.1,0.9-2.1,2.1c0,1.1,0.9,2.1,2.1,2.1
		H95.5z"/>
	<path class="st0" d="M31.9,26.9c-5.1-0.1-9.8,1.8-13.4,5.3c-3.6,3.6-5.5,8.3-5.3,13.4c0,1.1-0.9,2.1-2,2.1l0,0c-1.1,0-2-0.9-2.1-2
		c-0.1-6.2,2.2-12,6.5-16.4c4.4-4.4,10.2-6.7,16.4-6.5c1.1,0,2,1,2,2.1C34,26,33.1,26.9,31.9,26.9C32,26.9,31.9,26.9,31.9,26.9z"/>
	<path class="st0" d="M25.9,46.6c-0.1,1-1,1.8-2,1.8c-0.1,0-0.2,0-0.2,0c-1.1-0.1-1.9-1.2-1.8-2.3c0.3-2.8,1.5-5.2,3.5-7.2
		s4.4-3.2,7.2-3.5c1.1-0.1,2.1,0.7,2.3,1.8c0.1,1.1-0.7,2.1-1.8,2.3c-1.8,0.2-3.5,1-4.8,2.3C26.9,43.1,26.1,44.8,25.9,46.6z"/>
</g>
<rect x="15.5" y="19" class="st1" width="45" height="37.5"/>
<g>
	<g class="st2">
		<path class="st3" d="M82.3,88.6c3.2,1.7,8.2,3.4,13.6,3.4c5.2,0,8.1-2,8.1-5.2c0-2.8-2.4-4.6-8.7-6.4c-8.6-2.5-14.8-6.7-14.8-14.6
			c0-8.4,7.5-14.7,19.4-14.7c6.3,0,10.6,1.2,14,2.7l-2.7,9c-2.1-0.9-6.1-2.5-11.5-2.5c-5,0-7.4,2.1-7.4,4.6c0,3.1,3.1,4.4,9.8,6.6
			c9.3,3,13.8,7.3,13.8,14.8c0,7.8-6.1,15.2-20.7,15.2c-6,0-12.1-1.7-15.2-3.4L82.3,88.6z"/>
	</g>
</g>
</svg>
