<?xml version="1.0" encoding="utf-8"?>
<!-- Generator: Adobe Illustrator 22.1.0, SVG Export Plug-In . SVG Version: 6.00 Build 0)  -->
<svg version="1.1" id="Layer_1" xmlns="http://www.w3.org/2000/svg" xmlns:xlink="http://www.w3.org/1999/xlink" x="0px" y="0px"
	 viewBox="0 0 157 143" style="enable-background:new 0 0 157 143;" xml:space="preserve">
<style type="text/css">
	.st0{fill:none;stroke:#38424C;stroke-width:10;stroke-linecap:round;stroke-linejoin:round;stroke-miterlimit:2.6131;}
	.st1{fill:#FFFFFF;}
	.st2{fill:none;stroke:#38424C;stroke-width:8;stroke-linecap:round;stroke-linejoin:round;stroke-miterlimit:2.6131;}
	.st3{fill:none;stroke:#38424C;stroke-width:5;stroke-miterlimit:2.6131;}
</style>
<path class="st0" d="M42.4,42.3h87.8c2.5,0,4.6,2.1,4.6,4.6v75.5c0,2.5-2.1,4.6-4.6,4.6H17.7c-2.5,0-4.6-2.1-4.6-4.6V43.5
	c0-2.5,2.1-5,4.6-5.7l83-21.7c1.7-0.4,7.5-2.5,7.5,2.9v16.5"/>
<path class="st1" d="M144,69.9h-26.1c-7.2,0-13,5.9-13,13l0,0c0,7.2,5.9,13,13,13H144V69.9z"/>
<path class="st2" d="M144,69.9h-26.1c-7.2,0-13,5.9-13,13l0,0c0,7.2,5.9,13,13,13H144V69.9z"/>
<path class="st3" d="M124.1,77.6c2.9,0,5.3,2.4,5.3,5.3c0,2.9-2.4,5.3-5.3,5.3c-2.9,0-5.3-2.4-5.3-5.3S121.2,77.6,124.1,77.6z"/>
</svg>
