<?xml version="1.0" encoding="utf-8"?>
<!-- Generator: Adobe Illustrator 22.1.0, SVG Export Plug-In . SVG Version: 6.00 Build 0)  -->
<svg version="1.1" id="Layer_1" xmlns="http://www.w3.org/2000/svg" xmlns:xlink="http://www.w3.org/1999/xlink" x="0px" y="0px"
	 viewBox="0 0 232 278" style="enable-background:new 0 0 232 278;" xml:space="preserve">
<style type="text/css">
	.st0{fill:none;stroke:#38424C;stroke-width:10;stroke-linecap:round;stroke-linejoin:round;stroke-miterlimit:2.6131;}
	.st1{fill:none;stroke:#38424C;stroke-width:11.1482;stroke-linecap:round;stroke-linejoin:round;stroke-miterlimit:2.6131;}
	.st2{fill:none;stroke:#38424C;stroke-width:9.823;stroke-linecap:round;stroke-linejoin:round;stroke-miterlimit:2.6131;}
	.st3{fill:#38424C;}
</style>
<g>
	<line class="st0" x1="115.7" y1="13" x2="115.7" y2="54.6"/>
	<g>
		<line class="st0" x1="115.7" y1="13" x2="115.7" y2="54.6"/>
	</g>
</g>
<polyline class="st0" points="96.9,36.5 115.5,56 133.8,36.5 "/>
<path class="st0" d="M168.1,90.1h14.2c2,0,3.6,1.6,3.6,3.6v70.4"/>
<path class="st1" d="M37.8,179.7l-23,69.9c-1.5,4.7,1.5,9.7,5.8,9.7H208c4.4,0,7.4-5,5.8-9.7l-23-69.8c-0.1-0.3-0.3-0.6-0.6-0.6
	H38.3C38.1,179.2,37.9,179.4,37.8,179.7z"/>
<line class="st2" x1="78.7" y1="223.5" x2="147.4" y2="223.5"/>
<polyline class="st0" points="90.2,236.9 84.7,245.8 145.7,245.8 140.5,236.7 "/>
<g>
	<path class="st3" d="M115.7,73.9c20.6,0,37.4,16.7,37.4,37.4s-16.7,37.4-37.4,37.4s-37.4-16.7-37.4-37.4S95,73.9,115.7,73.9
		 M115.7,63.9c-26.1,0-47.4,21.2-47.4,47.4s21.2,47.4,47.4,47.4s47.4-21.2,47.4-47.4S141.8,63.9,115.7,63.9L115.7,63.9z"/>
</g>
<path class="st0" d="M127.3,98.9c-2-10.3-22.2-11.2-24.3,0c-1.6,8.8,8.9,10.3,14.7,11.5c5.1,1.1,12.5,3,10.9,10.3
	c-3.2,14.5-23,14.6-27.1,0"/>
<line class="st0" x1="115.1" y1="90.8" x2="115.1" y2="82.9"/>
<line class="st0" x1="115.1" y1="141.6" x2="115.1" y2="131.6"/>
<path class="st0" d="M60.8,91.1H46.5c-2,0-3.6,1.6-3.6,3.6v70.4"/>
<line class="st0" x1="50.2" y1="194.3" x2="55.4" y2="194.3"/>
<line class="st0" x1="70.9" y1="194.3" x2="76.2" y2="194.3"/>
<line class="st0" x1="91.1" y1="194.3" x2="96.3" y2="194.3"/>
<line class="st0" x1="111.2" y1="194.3" x2="116.4" y2="194.3"/>
<line class="st0" x1="131.2" y1="194.3" x2="136.4" y2="194.3"/>
<line class="st0" x1="152.2" y1="194.3" x2="157.4" y2="194.3"/>
<line class="st0" x1="172.2" y1="194.3" x2="177.4" y2="194.3"/>
<line class="st0" x1="44.9" y1="209" x2="50.2" y2="209"/>
<line class="st0" x1="39.7" y1="223.5" x2="44.9" y2="223.5"/>
<line class="st0" x1="182.7" y1="208.5" x2="177.4" y2="208.5"/>
<line class="st0" x1="187.9" y1="223" x2="182.7" y2="223"/>
<line class="st0" x1="65.2" y1="209" x2="70.4" y2="209"/>
<line class="st0" x1="59.9" y1="223.5" x2="65.2" y2="223.5"/>
<line class="st0" x1="161.3" y1="209" x2="156" y2="209"/>
<line class="st0" x1="166.5" y1="223.5" x2="161.3" y2="223.5"/>
<line class="st0" x1="88.6" y1="209" x2="93.8" y2="209"/>
<line class="st0" x1="110.8" y1="209" x2="116.1" y2="209"/>
<line class="st0" x1="133.9" y1="209" x2="139.2" y2="209"/>
</svg>
