<?xml version="1.0" encoding="utf-8"?>
<!-- Generator: Adobe Illustrator 22.1.0, SVG Export Plug-In . SVG Version: 6.00 Build 0)  -->
<svg version="1.1" id="Layer_1" xmlns="http://www.w3.org/2000/svg" xmlns:xlink="http://www.w3.org/1999/xlink" x="0px" y="0px"
	 viewBox="0 0 149 162" style="enable-background:new 0 0 149 162;" xml:space="preserve">
<style type="text/css">
	.st0{fill:none;stroke:#38424C;stroke-width:10;stroke-linecap:round;stroke-linejoin:round;stroke-miterlimit:2.6131;}
	.st1{fill:none;stroke:#38424C;stroke-width:10;stroke-linecap:round;stroke-linejoin:bevel;stroke-miterlimit:2.6131;}
	.st2{fill:#38424C;}
</style>
<g>
	<path class="st0" d="M85.5,71.6c-1.9-10.3-21.4-11.1-23.3,0c-1.5,8.7,8.6,10.2,14.1,11.4c4.9,1.1,12,3,10.5,10.3
		c-3.1,14.4-22.1,14.5-26,0"/>
	<line class="st0" x1="73.8" y1="63.6" x2="73.8" y2="53.7"/>
	<line class="st0" x1="73.8" y1="114.1" x2="73.8" y2="104.2"/>
</g>
<path class="st1" d="M48.6,31.3C56.2,27.2,65,25,74,25c30.9,0,56,26,56,57.9s-25.1,57.9-56,57.9s-56-26-56-57.9"/>
<g>
	<path class="st2" d="M32.2,14.7L17.9,54.8c-0.5,1.5,0.8,3,2.3,2.7l41.9-7.6c1.6-0.3,2.3-2.2,1.2-3.4L35.8,14.1
		C34.8,12.9,32.8,13.2,32.2,14.7z"/>
</g>
</svg>
