<?xml version="1.0" encoding="utf-8"?>
<!-- Generator: Adobe Illustrator 22.1.0, SVG Export Plug-In . SVG Version: 6.00 Build 0)  -->
<svg version="1.1" id="Layer_1" xmlns="http://www.w3.org/2000/svg" xmlns:xlink="http://www.w3.org/1999/xlink" x="0px" y="0px"
	 viewBox="0 0 198 135" style="enable-background:new 0 0 198 135;" xml:space="preserve">
<style type="text/css">
	.st0{fill:none;stroke:#38424C;stroke-width:10;stroke-linecap:round;stroke-linejoin:round;stroke-miterlimit:2.6131;}
</style>
<path class="st0" d="M152.1,87.7v24.4c0,3.6-3,6.6-6.6,6.6H18.2c-3.6,0-6.6-3-6.6-6.6V35.4c0-3.6,3-6.6,6.6-6.6h127.3"/>
<line class="st0" x1="72.1" y1="53.7" x2="86.6" y2="53.7"/>
<line class="st0" x1="72.1" y1="73.7" x2="108.4" y2="73.7"/>
<line class="st0" x1="95.6" y1="53.7" x2="129.4" y2="53.7"/>
<path class="st0" d="M120.4,95c5.1-4.3,13.8-1.1,15.7-9l4.4-0.2l16.8-19.3l1.1-1.2L184.8,35c2.5-2.8,2-6.9-0.7-9.6l0,0
	c-2.6-2.6-7.1-2.2-9.6,0.7l-26.4,30.3l-1.2,1.4L130.3,77l-0.2,3.9 M118.5,94.2l1.9,0.9 M125.3,86.4l-6.7,7.7"/>
<path class="st0" d="M56.8,61.4c-2-10.3-22.2-11.2-24.3,0c-1.6,8.8,8.9,10.3,14.7,11.5c5.1,1.1,12.5,3,10.9,10.3
	c-3.2,14.5-23,14.6-27.1,0"/>
<line class="st0" x1="44.6" y1="53.3" x2="44.6" y2="43.4"/>
<line class="st0" x1="44.6" y1="104.1" x2="44.6" y2="94.1"/>
<path class="st0" d="M165.3,23.7c-9.5,12.4-18.7,15.2-24.3,28"/>
<path class="st0" d="M69.7,104.1c12-10.6,13.5-11.3,13.5-11.3s5-4.3,4.3,0s-4.3,9.9-3.5,10.6c0.7,0.7,7.1-5.7,9.2-7.1
	c2.1-1.4,2.8-2.1,3.5-1.4c0.7,0.7,1.4,4.3,1.4,5s9.2-3.5,12.8-2.1"/>
</svg>
