<?xml version="1.0" encoding="utf-8"?>
<!-- Generator: Adobe Illustrator 22.1.0, SVG Export Plug-In . SVG Version: 6.00 Build 0)  -->
<svg version="1.1" id="Layer_1" xmlns="http://www.w3.org/2000/svg" xmlns:xlink="http://www.w3.org/1999/xlink" x="0px" y="0px"
	 viewBox="0 0 231 182" style="enable-background:new 0 0 231 182;" xml:space="preserve">
<style type="text/css">
	.st0{fill:none;stroke:#38424C;stroke-width:10;stroke-linecap:round;stroke-linejoin:round;stroke-miterlimit:2.6131;}
	.st1{fill:none;stroke:#38424C;stroke-width:10;stroke-miterlimit:2.6131;}
	.st2{fill:#38424C;}
</style>
<g>
	<line class="st0" x1="20.6" y1="45.4" x2="208.4" y2="45.4"/>
	<line class="st0" x1="32.4" y1="30.8" x2="196.6" y2="30.8"/>
	<line class="st0" x1="44.3" y1="16.1" x2="184.7" y2="16.1"/>
	<rect x="14" y="60.1" class="st0" width="201" height="105.7"/>
	<path class="st0" d="M28.3,90.7c9,0,16.3-7.3,16.3-16.3 M44.6,151.4c0-9-7.3-16.3-16.3-16.3 M200.7,135.1c-9,0-16.3,7.3-16.3,16.3
		 M184.4,74.4c0,9,7.3,16.3,16.3,16.3"/>
	<circle class="st1" cx="114.5" cy="112.9" r="33.1"/>
	<path class="st2" d="M52.2,103.5c5.2,0,9.4,4.2,9.4,9.4s-4.2,9.4-9.4,9.4c-5.2,0-9.4-4.2-9.4-9.4C42.8,107.7,47,103.5,52.2,103.5"
		/>
	<path class="st2" d="M176.8,103.5c5.2,0,9.4,4.2,9.4,9.4s-4.2,9.4-9.4,9.4s-9.4-4.2-9.4-9.4C167.3,107.7,171.6,103.5,176.8,103.5"
		/>
	<path class="st0" d="M123.1,104.2c-1.4-7.3-15.7-7.9-17.1,0c-1.1,6.2,6.3,7.2,10.3,8.1c3.6,0.8,8.8,2.1,7.7,7.3
		c-2.3,10.2-16.2,10.3-19.1,0"/>
	<line class="st0" x1="114.4" y1="98.5" x2="114.4" y2="91.5"/>
	<line class="st0" x1="114.4" y1="134.3" x2="114.4" y2="127.3"/>
</g>
</svg>
