<?xml version="1.0" encoding="utf-8"?>
<!-- Generator: Adobe Illustrator 22.1.0, SVG Export Plug-In . SVG Version: 6.00 Build 0)  -->
<svg version="1.1" id="Layer_1" xmlns="http://www.w3.org/2000/svg" xmlns:xlink="http://www.w3.org/1999/xlink" x="0px" y="0px"
	 viewBox="0 0 254 168" style="enable-background:new 0 0 254 168;" xml:space="preserve">
<style type="text/css">
	.st0{fill:#38424C;stroke:#38424C;stroke-width:6;stroke-miterlimit:10;}
	.st1{fill:none;stroke:#38424C;stroke-width:6;stroke-miterlimit:10;}
</style>
<g>
	<path class="st0" d="M16.6,66h124.2c1.4,0,2.5-1.1,2.5-2.5V50.6c0-0.9-0.5-1.8-1.4-2.2L79.8,17.2c-0.7-0.3-1.5-0.3-2.2,0L15.5,48.4
		c-0.8,0.4-1.4,1.3-1.4,2.2v12.9C14.1,64.9,15.2,66,16.6,66z M19,52.2l59.7-30l59.7,30v8.9H19V52.2z"/>
	<path class="st0" d="M108.6,46.3L79.9,31.7c-0.7-0.4-1.5-0.4-2.2,0L49,46.3c-1.2,0.6-1.7,2.1-1.1,3.3c0.6,1.2,2.1,1.7,3.3,1.1
		l27.6-14l27.6,14c0.4,0.2,0.7,0.3,1.1,0.3c0.9,0,1.8-0.5,2.2-1.3C110.3,48.4,109.8,46.9,108.6,46.3z"/>
	<path class="st0" d="M203.1,81.4v10c0,4.1,3.3,7.4,7.4,7.4c4.1,0,7.4-3.3,7.4-7.4v-10c0-4.1-3.3-7.4-7.4-7.4
		C206.4,74,203.1,77.3,203.1,81.4z M212.9,81.4v10c0,1.4-1.1,2.5-2.5,2.5s-2.5-1.1-2.5-2.5v-10c0-1.4,1.1-2.5,2.5-2.5
		C211.8,78.9,212.9,80,212.9,81.4z"/>
	<path class="st1" d="M224.4,58.6c-1.4-0.2-3.6,0.4-3.6,1.8s0.5,2.5,1.9,2.9c8.7,2.3,12.7,7.1,12.7,16.5v33.4c0,14.3-11.6,26-26,26
		c-14.3,0-26-11.6-26-26V79.8c0-9.4,7.7-17.1,17.1-17.1h8.9c0.7,0,1.3-0.3,1.7-0.7c0.5-0.5,0.7-1.1,0.7-1.7V41.8
		c0-12.6-10.3-22.9-22.9-22.9h-5c-12.6,0-22.9,10.3-22.9,22.9v98.9c0,6.2-5.1,11.3-11.3,11.3H19v-10.6h119.3v4.7
		c0,1.4,1.1,2.5,2.5,2.5s2.5-1.1,2.5-2.5V139c0-1.4-1.1-2.5-2.5-2.5h-7.3V80l2.1-2.5c0.4-0.4,0.6-1,0.6-1.6v-4.6
		c0-1.4-1.1-2.5-2.5-2.5s-2.5,1.1-2.5,2.5v3.6l-2.1,2.5c-0.4,0.4-0.6,1-0.6,1.6v57.5h-11.1V79c0-0.6-0.2-1.2-0.6-1.6l-2.1-2.5v-3.6
		c0-1.4-1.1-2.5-2.5-2.5s-2.5,1.1-2.5,2.5v4.6c0,0.6,0.2,1.2,0.6,1.6l2.1,2.5v56.5H88.7V80l2.1-2.5c0.4-0.4,0.6-1,0.6-1.6v-4.6
		c0-1.4-1.1-2.5-2.5-2.5s-2.5,1.1-2.5,2.5v3.6l-2.1,2.5c-0.4,0.4-0.6,1-0.6,1.6v57.5H72.6V79c0-0.6-0.2-1.2-0.6-1.6l-2.1-2.5v-3.6
		c0-1.4-1.1-2.5-2.5-2.5s-2.5,1.1-2.5,2.5v4.6c0,0.6,0.2,1.2,0.6,1.6l2.1,2.5v56.5H44.3V80l2.1-2.5c0.4-0.4,0.6-1,0.6-1.6v-4.6
		c0-1.4-1.1-2.5-2.5-2.5S42,69.9,42,71.3v3.6l-2.1,2.5c-0.4,0.4-0.6,1-0.6,1.6v57.5h-11V79c0-0.6-0.2-1.2-0.6-1.6l-2.1-2.5v-3.6
		c0-1.4-1.1-2.5-2.5-2.5s-2.5,1.1-2.5,2.5v4.6c0,0.6,0.2,1.2,0.6,1.6l2.1,2.5v56.5h-6.8c-1.4,0-2.5,1.1-2.5,2.5v15.5
		c0,1.4,1.1,2.5,2.5,2.5h133.2c8.9,0,16.2-7.3,16.2-16.2V41.9c0-9.9,8.1-18,18-18h5c9.9,0,18,8.1,18,18v16h-6.4
		c-12.1,0-22,9.9-22,22v33.4c0,17,13.9,30.9,30.9,30.9s30.9-13.9,30.9-30.9V79.9C240.3,67.6,235.2,60.4,224.4,58.6z"/>
</g>
</svg>
