<?xml version="1.0" encoding="utf-8"?>
<!-- Generator: Adobe Illustrator 22.1.0, SVG Export Plug-In . SVG Version: 6.00 Build 0)  -->
<svg version="1.1" id="Layer_1" xmlns="http://www.w3.org/2000/svg" xmlns:xlink="http://www.w3.org/1999/xlink" x="0px" y="0px"
	 viewBox="0 0 171 172" style="enable-background:new 0 0 171 172;" xml:space="preserve">
<style type="text/css">
	.st0{fill:none;stroke:#38424C;stroke-width:10;stroke-linecap:round;stroke-linejoin:round;stroke-miterlimit:2.6131;}
	.st1{fill:none;stroke:#38424C;stroke-width:5;stroke-linecap:round;stroke-linejoin:round;stroke-miterlimit:2.6131;}
</style>
<path class="st0" d="M34.2,116.7V142c0,6.2,5.1,11.3,11.3,11.3h97.6c6.2,0,11.3-5.1,11.3-11.3V91.3c0-6.2-5.1-11.3-11.3-11.3H45.5
	c-4.6,0-8.8,1.1-10.6,5.2c-0.6,1.3-0.7,12.3-0.7,13.9"/>
<path class="st0" d="M21.2,79.2l-4.9-14.3c-2-5.9,1.2-12.3,7-14.3L115.6,19c5.9-2,12.3,1.2,14.3,7l11.8,34.8"/>
<path class="st1" d="M115,104c-0.4,1.1-0.6,2.3-0.6,3.5c0,5.7,4.7,10.4,10.4,10.4s10.4-4.7,10.4-10.4s-4.7-10.4-10.4-10.4
	c-1.1,0-2.1,0.1-3.1,0.4"/>
<path class="st1" d="M75.4,113.9c0,1.2-0.9,2.1-2.1,2.1H55.4c-1.2,0-2.1-0.9-2.1-2.1l0-6.8 M53.3,99.2c0-1.2,0.9-2.1,2.1-2.1h17.9
	c1.2,0,2.1,0.9,2.1,2.1l0,6.8"/>
<line class="st1" x1="72.1" y1="136.6" x2="87.7" y2="136.6"/>
<line class="st1" x1="100.8" y1="136.6" x2="116.4" y2="136.6"/>
<line class="st1" x1="129.5" y1="136.6" x2="145.1" y2="136.6"/>
<path class="st1" d="M31.4,69L120,38.7 M124.8,54.5L80.6,69.6"/>
<line class="st1" x1="43.4" y1="136.6" x2="59" y2="136.6"/>
</svg>
