<svg width="100" height="100" viewBox="0 0 100 100" fill="none" xmlns="http://www.w3.org/2000/svg">
<g clip-path="url(#clip0_5238_691)">
<path fill-rule="evenodd" clip-rule="evenodd" d="M90.4821 22.4455C92.7021 23.7367 94 26.1229 94 28.7053C94 28.7053 93.9992 31.4174 93.8304 32.5305C93.1862 36.7821 85.8169 40.9368 81.2965 43.1092C78.0886 44.8298 74.5414 46 70.8315 46C63.3846 46 58.0227 43.4599 52.8173 40.9939C52.2361 40.7185 51.6568 40.4441 51.0768 40.1743C50.044 39.6938 49.0007 39.1683 47.9327 38.6303C39.093 34.1776 28.5574 28.8707 8.2499 41.1838C6.77161 41.9371 5.02479 40.8593 5.02479 39.1902L5 28.7053C5 26.1229 6.36761 23.7367 8.58766 22.4455L45.141 1.18601C47.8599 -0.395337 51.2098 -0.395337 53.9288 1.18601L90.4821 22.4455ZM8.51791 77.5545C6.29786 76.2633 5 73.8771 5 71.2947C5 71.2947 5.00079 68.5826 5.16957 67.4695C5.81385 63.2179 13.1831 59.0632 17.7035 56.8908C20.9114 55.1702 24.4586 54 28.1685 54C35.6154 54 40.9773 56.5401 46.1827 59.0061C46.7639 59.2815 47.3432 59.5559 47.9232 59.8257C48.956 60.3062 49.9993 60.8317 51.0673 61.3697C59.907 65.8223 70.4426 71.1293 90.7501 58.8162C92.2284 58.0629 93.9752 59.1407 93.9752 60.8098L94 71.2947C94 73.8771 92.6324 76.2633 90.4123 77.5545L53.859 98.814C51.1401 100.395 47.7902 100.395 45.0712 98.814L8.51791 77.5545Z" fill="#211F54"/>
</g>
<defs>
<clipPath id="clip0_5238_691">
<rect width="100" height="100" fill="white"/>
</clipPath>
</defs>
</svg>
