<?xml version="1.0" encoding="UTF-8" standalone="no"?><!DOCTYPE svg PUBLIC "-//W3C//DTD SVG 1.1//EN" "http://www.w3.org/Graphics/SVG/1.1/DTD/svg11.dtd"><svg width="100%" height="100%" viewBox="0 0 3924 4495" version="1.1" xmlns="http://www.w3.org/2000/svg" xmlns:xlink="http://www.w3.org/1999/xlink" xml:space="preserve" xmlns:serif="http://www.serif.com/" style="fill-rule:evenodd;clip-rule:evenodd;stroke-linejoin:round;stroke-miterlimit:2;"><g><path d="M1.849,3177.12c0.716,-27.331 11.835,-53.359 31.094,-72.759c189.047,-204.597 746.234,-388.972 865.95,-419.141l-884.387,-674.584c-0,-0 -20.119,-835.313 -12.969,-853.972l2038.17,1266.75l10.887,-7.463l0,2019.66c0,7.709 -5.9,13.971 -13.581,14.712c-20.366,1.953 -45.937,24.219 -58.322,36.147c-4.609,4.441 -11.431,5.444 -17.081,2.459c-151.838,-80.14 -1957.25,-1064.83 -1956.34,-1079.86" style="fill:#fff;fill-rule:nonzero;"/><path d="M3916.47,1150.77c4.375,5.987 5.963,13.581 4.347,20.831c-21.9,215.222 -574.269,604.91 -866.509,609.547c-13.594,0.219 -19.557,17.459 -9.116,26.156c238.516,198.907 650.822,401.407 872.216,599.95l5.896,768.632c0,23.009 0,152.981 -1.862,223.243c-31.094,57.213 -1909.44,1083.61 -1946.44,1095.74c-7.15,-693.384 -17.722,-1385.83 -24.872,-2079.22" style="fill:#e3d7e9;fill-rule:nonzero;"/><path d="M3006.89,1772.02l-1035.72,682.5l-1969.47,-1296.29c22.084,-19.269 1921.58,-1158.23 1955.78,-1158.23c39.181,-0 1931.84,1137.71 1954.53,1150.46l-893.006,615.338" style="fill:#fff;fill-rule:nonzero;"/><path d="M1974.33,2088.75c-0.037,5.366 -2.953,10.275 -7.64,12.853c-349.675,192.706 -702.697,390.235 -1052.94,582.863c-6.291,3.712 -13.306,6.043 -20.587,6.85l-12.472,2.175l-21.435,-5.482c-1.912,-0.481 -3.606,-1.278 -5.181,-2.475c-40.937,-30.95 -619.194,-468.318 -799.803,-605.818c-30.366,-23.113 -42.384,-64.116 -42.125,-107.125c0.262,-43.253 22.344,-129.491 23.412,-135.897c0.26,-1.575 0.547,-2.775 1.119,-5.156c0.419,-1.707 0.666,-2.619 1.147,-3.647c0.522,-1.16 1.197,-2.253 2.019,-3.253c90.715,-111.225 221.55,-211.447 360.494,-299.507c120.637,-72.134 212.981,-129.35 348.556,-169.14c74.831,-22.475 153.019,-31.628 231.028,-27.057c83.384,-1.328 245.637,39.972 245.637,39.972l-3.006,0l467.875,186.563c66.147,25.612 215.888,80.769 277.438,104.247c5.793,2.2 9.49,7.734 9.453,13.918l-2.985,415.116Z" style="fill:#a487b3;fill-rule:nonzero;"/><path d="M3915.22,2388.14c0,-14.61 0,-27.06 -11.809,-35.757c-207.541,-138.371 -783.894,-513.047 -875.86,-572.122l-10.39,-6.459c-2.344,-1.472 -5.066,-2.253 -7.838,-2.253l-25.275,-0c-91.028,2.8 -174.922,-3.722 -297.031,-7.772c-197.538,-6.603 -393.931,-32.853 -586.288,-78.347c-39.765,-9.947 -78.921,-19.909 -117.137,-31.094l-6.209,-1.862l-2.435,426.731c-0.04,5.3 2.772,10.222 7.356,12.891l1556.59,907.228c4.141,2.409 9.284,2.681 13.659,0.728c137.319,-61.419 195.847,-133.294 280.585,-231.522c0.25,-0.287 0.484,-0.575 0.703,-0.875c32.175,-42.147 59.703,-87.669 82.109,-135.728c0.953,-2.056 1.435,-4.309 1.422,-6.575l-2.15,-237.212Z" style="fill:#d1badf;fill-rule:nonzero;"/><path d="M904.04,2688.03l49.181,-3.387c0.378,-0.025 0.769,-0.038 1.144,-0.038c83.309,-0.587 166.147,12.591 245.172,39.01c0.337,0.118 0.687,0.234 1.028,0.378l465.884,186.353c322.188,131.406 664.988,205.09 1012.71,217.656c163.865,5.288 256.834,15.235 390.234,0c151.863,-14.934 300.831,-51.366 442.447,-108.203c11.212,-4.766 12.212,-20.247 1.731,-26.419l-1533.49,-902.981c-4.56,-2.681 -10.197,-2.747 -14.807,-0.144l-1061.24,597.775Z" style="fill:#c9a6d0;fill-rule:nonzero;"/></g></svg>
