<?xml version="1.0" encoding="UTF-8"?>
<svg id="Layer_1" data-name="Layer 1" xmlns="http://www.w3.org/2000/svg" viewBox="0 0 1000 1000">
  <defs>
    <style>
      .cls-1 {
        fill: #1c1b18;
      }

      .cls-1, .cls-2 {
        stroke-width: 0px;
      }

      .cls-2 {
        fill: #f1f252;
      }
    </style>
  </defs>
  <circle class="cls-1" cx="500" cy="500" r="500"/>
  <path class="cls-2" d="m507.92,242.11c55.15,0,86.19,9.05,86.19,9.05l91.66,187.18-.81.81-118-70.36c-68.36-40.72-118.04-62.12-158.35-60.49-42.71.81-68.32,35.16-68.32,85.01,1.54,127.54,122.7,284.45,243.06,284.45,49.13,0,74.7-15.79,89.67-34.93l-178.22-195.55v-.81h244.77c3.34,17.51,5.16,35.29,5.43,53.12,0,143.06-109.49,258.3-244.59,258.3s-245.41-115.24-245.41-258.3c-.23-142.25,109.27-257.49,252.92-257.49Z"/>
</svg>