<?xml version="1.0" encoding="utf-8"?>
<!-- Generator: Adobe Illustrator 25.4.1, SVG Export Plug-In . SVG Version: 6.00 Build 0)  -->
<svg version="1.1" id="Layer_1" xmlns="http://www.w3.org/2000/svg" xmlns:xlink="http://www.w3.org/1999/xlink" x="0px" y="0px"
	 viewBox="0 0 1024 1024" style="enable-background:new 0 0 1024 1024;" xml:space="preserve">
<style type="text/css">
	.st0{display:none;}
	.st1{display:inline;fill:#162668;}
	.st2{display:inline;}
	.st3{fill:#FFFFFF;}
	.st4{fill:#E2E2E2;}
	.st5{fill:#CACACA;}
	.st6{fill:#EEEEEE;}
	.st7{fill:#D8D8D8;}
</style>
<g class="st0">
	<rect x="0.5" y="0.5" class="st1" width="1023" height="1023"/>
	<path class="st2" d="M1023,1v1022H1V1H1023 M1024,0H0v1024h1024V0L1024,0z"/>
</g>
<path class="st3" d="M787.1,375.1L512,216.3L236.9,375.1l0,317.7L512,851.6l275.1-158.8L787.1,375.1z M511.8,800L282.4,666.3V398.8
	L510.8,267L743,401l0,265.5L511.8,800z"/>
<g id="Layer_2_1_">
	<g id="Layer_1-2">
		<path class="st3" d="M361.7,607.5c0.1-2.1,0.9-4.1,2.4-5.6c14.5-15.7,57.3-29.9,66.5-32.2l0,0L362.7,518c0,0-1.5-64.2-1-65.6l0,0
			l156.5,97.3l0.8-0.6v155.1c0,0.6-0.5,1.1-1,1.1c-1.6,0.2-3.5,1.9-4.5,2.8c-0.4,0.3-0.9,0.4-1.3,0.2
			c-11.7-6.2-150.3-81.8-150.2-82.9"/>
		<path class="st4" d="M662.3,451.9c0.3,0.5,0.5,1,0.3,1.6c-1.7,16.5-44.1,46.5-66.5,46.8c-1,0-1.5,1.3-0.7,2
			c18.3,15.3,50,30.8,67,46.1l0,0l0.5,59c0,1.8,0,11.7-0.1,17.1l0,0c-2.4,4.4-146.6,83.2-149.5,84.2l0,0
			c-0.5-53.3-1.4-106.4-1.9-159.7"/>
		<path class="st3" d="M592.5,499.6L512.9,552l0,0l-151.3-99.6l0,0c1.7-1.5,147.6-89,150.2-89c3,0,148.4,87.4,150.1,88.4l0,0
			l-68.6,47.3"/>
		<path class="st5" d="M513.2,523.9c0,0.4-0.2,0.8-0.6,1c-26.9,14.8-54,30-80.9,44.8c-0.5,0.3-1,0.5-1.6,0.5l-1,0.2l-1.6-0.4
			c-0.1,0-0.3-0.1-0.4-0.2c-3.1-2.4-47.6-36-61.4-46.5c-2.3-1.8-3.3-4.9-3.2-8.2c0-3.3,1.7-9.9,1.8-10.4c0-0.1,0-0.2,0.1-0.4
			c0-0.1,0.1-0.2,0.1-0.3c0-0.1,0.1-0.2,0.2-0.2c7-8.5,17-16.2,27.7-23c9.3-5.5,16.4-9.9,26.8-13c5.7-1.7,11.8-2.4,17.7-2.1
			c6.4-0.1,18.9,3.1,18.9,3.1h-0.2l35.9,14.3c5.1,2,16.6,6.2,21.3,8c0.4,0.2,0.7,0.6,0.7,1.1L513.2,523.9z"/>
		<path class="st6" d="M662.2,546.9c0-1.1,0-2.1-0.9-2.7c-15.9-10.6-60.2-39.4-67.3-43.9l-0.8-0.5c-0.2-0.1-0.4-0.2-0.6-0.2h-1.9
			c-7,0.2-13.4-0.3-22.8-0.6c-15.2-0.5-30.3-2.5-45-6c-3.1-0.8-6.1-1.5-9-2.4l-0.5-0.1l-0.2,32.8c0,0.4,0.2,0.8,0.6,1l119.5,69.7
			c0.3,0.2,0.7,0.2,1,0.1c10.5-4.7,15-10.2,21.5-17.8c0,0,0,0,0.1-0.1c2.5-3.2,4.6-6.7,6.3-10.4c0.1-0.2,0.1-0.3,0.1-0.5
			L662.2,546.9z"/>
		<path class="st7" d="M431,570l3.8-0.3c0,0,0.1,0,0.1,0c6.4,0,12.8,1,18.8,3c0,0,0.1,0,0.1,0l35.8,14.3
			c24.7,10.1,51.1,15.8,77.8,16.7c12.6,0.4,19.7,1.2,30,0c11.7-1.1,23.1-3.9,34-8.3l0,0c0.9-0.4,0.9-1.6,0.1-2l-117.8-69.3
			c-0.3-0.2-0.8-0.2-1.1,0L431,570z"/>
	</g>
</g>
</svg>
