
<svg xmlns="http://www.w3.org/2000/svg" viewBox="0 0 1125.61 120"><defs><style>.cls-1{fill:#1c2a4b;}</style></defs><g id="Layer_2" data-name="Layer 2"><g id="Layer_1-2" data-name="Layer 1"><path class="cls-1" d="M61.39,120C25,120,0,94.7,0,60.35v-.23C0,27.16,25.91,0,61.16,0c21,0,33.61,5.57,45.75,16L90.8,35.51c-9.1-7.42-17-11.83-30.58-11.83-18.67,0-33.61,16.47-33.61,36.2v.24c.23,21.12,14.94,36.67,35.48,36.67,9.34,0,17.74-2.32,24.28-7V73.35H60.46v-22h50.65v50.36A76.29,76.29,0,0,1,61.39,120"/><path class="cls-1" d="M186.78,0C152,0,126.67,27.16,126.67,60.12v.23c0,33,25.08,59.65,59.88,59.65s60.12-26.92,60.12-60.12v-.23C246.67,26.69,221.58,0,186.78,0Zm33.9,60.12c0,20-13.79,36.21-33.9,36.21-19.89,0-34.13-16.48-34.13-36.45v-.23c0-20,13.79-36.21,33.9-36.21,19.89,0,34.13,16.48,34.13,36.44Z"/><path class="cls-1" d="M319.24,120c-32.71,0-57-26.46-57-59.88C262.22,26.92,286.3,0,319.69,0c20.68,0,32.94,7.43,44.3,18.34l-8.86,9.51c-9.54-9.28-20.22-16-35.66-16-25.22,0-44.07,20.66-44.07,47.81,0,26.93,19.08,48.05,44.07,48.05,15.67,0,25.89-6,36.57-16.71l8.4,8.35C352.86,111.88,339.91,120,319.24,120"/><path class="cls-1" d="M437.13,2.5h-12L373.33,118.06H386.5l13.39-30.27h61.76L475,118.06h13.85Zm-32,73.6L431,17.63,456.88,76.1Z"/><path class="cls-1" d="M566.6,70.68c17.81-3.24,30.66-14.33,30.66-33.74,0-20.8-16-34.44-40.8-34.44H508V118.06h12.62V73.22h32.24l32.69,44.84v-.24h15.78Zm-45.76-9.25V14.52h34.71c18,0,28.86,8.55,29.09,22.88,0,15-12.18,24-29.09,24Z"/><path class="cls-1" d="M660.53,2.5H620.1V118.06h40.43c36.47,0,61.56-25.43,61.8-58C722.33,27.46,697,2.5,660.53,2.5Zm0,103.54H633.35V14.52h27.18c29.27,0,48.09,20.1,48.09,46C708.62,86.16,689.8,106,660.53,106Z"/><polygon class="cls-1" points="742.83 2.5 756.08 2.5 756.08 105.83 822.83 105.83 822.83 118.06 742.83 118.06 742.83 2.5"/><polygon class="cls-1" points="920.51 14.49 853.66 14.49 853.66 53.94 913.27 53.94 913.27 65.7 853.66 65.7 853.66 106.06 921.16 106.06 921.16 118.06 841.16 118.06 841.16 2.5 920.51 2.5 920.51 14.49"/><path class="cls-1" d="M986.68,53.7c25,5.6,36.71,15.17,36.71,33.15,0,20.08-16,33.15-38.51,33.15-17.79,0-32.43-6.07-45.94-18.68l7.88-9.57c11.71,11,23,16.58,38.51,16.58,15.09,0,25-8.17,25-20.08,0-11-5.62-17.28-29.27-22.41C955.15,60,943.22,51.36,943.22,32c0-18.67,15.54-32,36.93-32,16.44,0,28.15,4.9,39.63,14.24l-7.43,10.27c-10.36-8.87-20.94-12.6-32.43-12.6-14.63,0-23.87,8.4-23.87,18.91,0,11.2,5.63,17.51,30.63,22.88"/><path class="cls-1" d="M1088.9,53.7c25,5.6,36.71,15.17,36.71,33.15,0,20.08-16,33.15-38.51,33.15-17.79,0-32.43-6.07-45.94-18.68l7.88-9.57c11.71,11,23,16.58,38.51,16.58,15.09,0,25-8.17,25-20.08,0-11-5.63-17.28-29.28-22.41C1057.38,60,1045.44,51.36,1045.44,32c0-18.67,15.54-32,36.93-32,16.44,0,28.15,4.9,39.63,14.24l-7.43,10.27c-10.35-8.87-20.94-12.6-32.42-12.6-14.64,0-23.87,8.4-23.87,18.91,0,11.2,5.85,17.51,30.62,22.88"/></g></g></svg>
