
<svg xmlns="http://www.w3.org/2000/svg" viewBox="0 0 148.03 61.61"><defs><style>.cls-1,.cls-2{fill:#635bff;}.cls-1{fill-rule:evenodd;}</style></defs><g id="Layer_2" data-name="Layer 2"><g id="Layer_1-2" data-name="Layer 1"><g id="Stripe"><path class="cls-1" d="M148,31.82C148,21.3,142.93,13,133.18,13s-15.71,8.3-15.71,18.76c0,12.38,7,18.65,17,18.65a23,23,0,0,0,11.38-2.67V39.47a21.61,21.61,0,0,1-10.09,2.27c-4,0-7.53-1.41-8-6.23h20.1C147.93,35,148,32.81,148,31.82ZM127.7,27.93c0-4.62,2.85-6.56,5.42-6.56s5.19,1.94,5.19,6.56Z"/><path class="cls-1" d="M101.59,13a11.48,11.48,0,0,0-8,3.22L93,13.68H84V61.61l10.27-2.18,0-11.62a11.5,11.5,0,0,0,7.26,2.6c7.35,0,14.07-5.92,14.07-19C115.6,19.49,108.8,13,101.59,13ZM99.14,41.33a6.11,6.11,0,0,1-4.84-1.94l-.06-15.26a6.2,6.2,0,0,1,4.9-2c3.76,0,6.34,4.21,6.34,9.58C105.48,37.2,102.94,41.33,99.14,41.33Z"/><polygon class="cls-1" points="69.82 10.55 80.13 8.36 80.13 0 69.82 2.19 69.82 10.55"/><rect class="cls-2" x="69.82" y="13.68" width="10.31" height="35.99"/><path class="cls-1" d="M58.78,16.72l-.65-3H49.26v36H59.52V25.27c2.42-3.18,6.52-2.57,7.83-2.15V13.69C66,13.19,61.18,12.3,58.78,16.72Z"/><path class="cls-1" d="M38.19,4.77l-10,2.13,0,32.94A10.34,10.34,0,0,0,38.78,50.41,15.89,15.89,0,0,0,46,49.05V40.69c-1.32.52-7.8,2.41-7.8-3.64V22.44H46V13.68h-7.8Z"/><path class="cls-1" d="M10.39,24.13c0-1.6,1.33-2.23,3.48-2.23a22.93,22.93,0,0,1,10.21,2.65V14.88A27.05,27.05,0,0,0,13.88,13C5.55,13,0,17.35,0,24.62,0,36,15.61,34.14,15.61,39c0,1.9-1.65,2.51-3.94,2.51A25.82,25.82,0,0,1,.43,38.27v9.81a28.55,28.55,0,0,0,11.23,2.33c8.54,0,14.42-4.22,14.42-11.61C26.08,26.55,10.39,28.75,10.39,24.13Z"/></g></g></g></svg>
