<?xml version="1.0" encoding="UTF-8"?>
<!DOCTYPE svg PUBLIC "-//W3C//DTD SVG 1.1//EN" "http://www.w3.org/Graphics/SVG/1.1/DTD/svg11.dtd">
<svg version="1.1" xmlns="http://www.w3.org/2000/svg" xmlns:xlink="http://www.w3.org/1999/xlink" x="0" y="0" width="300" height="300" viewBox="0, 0, 300, 300">
  <g id="weather">
    <path d="M150.001,16.717 C123.648,16.717 99.11,24.396 78.429,37.586 C65.237,58.264 57.567,82.806 57.567,109.155 C57.567,182.763 117.231,242.434 190.849,242.434 C217.192,242.434 241.733,234.76 262.421,221.575 C275.607,200.891 283.283,176.355 283.283,150 C283.283,76.388 223.606,16.717 150.001,16.717 z" fill="#D1D1B0" id="Path"/>
    <path d="M57.567,109.155 C57.567,82.872 65.203,58.391 78.335,37.748 C41.32,61.427 16.717,102.797 16.717,150 C16.717,223.612 76.395,283.283 150.001,283.283 C197.194,283.283 238.564,258.684 262.247,221.678 C241.596,234.797 217.119,242.434 190.849,242.434 C117.231,242.434 57.567,182.763 57.567,109.155 z" fill="#C6C5A3" id="Path"/>
    <path d="M64.036,108.578 C59.098,108.578 54.495,110.015 50.613,112.488 C48.15,116.367 46.703,120.964 46.703,125.902 C46.703,139.706 57.885,150.886 71.694,150.886 C76.631,150.886 81.229,149.454 85.108,146.973 C87.583,143.1 89.02,138.499 89.02,133.562 C89.02,119.764 77.835,108.578 64.036,108.578 z" fill="#C1BE99" id="Path"/>
    <path d="M156.072,109.294 C149.148,109.294 142.701,111.314 137.269,114.777 C133.811,120.206 131.786,126.654 131.786,133.575 C131.786,152.912 147.466,168.591 166.806,168.591 C173.726,168.591 180.168,166.578 185.602,163.114 C189.072,157.676 191.086,151.232 191.086,144.314 C191.086,124.97 175.409,109.294 156.072,109.294 z" fill="#C1BE99" id="Path"/>
    <path d="M94.491,204.511 C91.598,204.511 88.905,205.355 86.63,206.805 C85.184,209.073 84.344,211.766 84.344,214.662 C84.344,222.751 90.888,229.292 98.977,229.292 C101.864,229.292 104.557,228.45 106.832,227.006 C108.281,224.728 109.124,222.038 109.124,219.142 C109.124,211.066 102.57,204.511 94.491,204.511 z" fill="#C1BE99" id="Path"/>
    <path d="M212.54,55.158 C208.989,55.158 205.689,56.19 202.908,57.966 C201.124,60.745 200.093,64.053 200.093,67.608 C200.093,77.507 208.133,85.544 218.032,85.544 C221.587,85.544 224.88,84.516 227.674,82.736 C229.447,79.954 230.482,76.652 230.482,73.103 C230.482,63.195 222.457,55.158 212.54,55.158 z" fill="#C1BE99" id="Path"/>
    <path d="M112.903,42.263 C110.881,42.263 109.003,42.851 107.423,43.858 C106.41,45.454 105.819,47.328 105.819,49.35 C105.819,54.992 110.388,59.568 116.033,59.568 C118.056,59.568 119.936,58.979 121.526,57.966 C122.535,56.384 123.121,54.503 123.121,52.478 C123.121,46.833 118.541,42.263 112.903,42.263 z" fill="#C1BE99" id="Path"/>
    <path d="M247.08,145.06 C243.386,145.06 239.95,146.121 237.069,147.986 C235.216,150.868 234.158,154.291 234.158,157.985 C234.158,168.276 242.501,176.621 252.788,176.621 C256.47,176.621 259.903,175.554 262.794,173.713 C264.655,170.818 265.713,167.384 265.713,163.693 C265.713,153.409 257.371,145.06 247.08,145.06 z" fill="#C1BE99" id="Path"/>
    <path d="M189.985,224.101 C186.81,224.101 183.856,225.032 181.363,226.618 C179.767,229.108 178.845,232.071 178.845,235.246 C178.845,244.114 186.036,251.308 194.91,251.308 C198.085,251.308 201.042,250.386 203.536,248.797 C205.127,246.301 206.052,243.341 206.052,240.165 C206.052,231.297 198.862,224.101 189.985,224.101 z" fill="#C1BE99" id="Path"/>
    <path d="M200.093,67.608 C200.093,64.075 201.115,60.788 202.877,58.021 C197.903,61.212 194.592,66.758 194.592,73.103 C194.592,83.011 202.626,91.045 212.54,91.045 C218.89,91.045 224.431,87.734 227.619,82.763 C224.838,84.525 221.566,85.544 218.032,85.544 C208.133,85.544 200.093,77.507 200.093,67.608 z" fill="#B7B284" id="Path"/>
    <path d="M105.819,49.35 C105.819,47.34 106.407,45.475 107.411,43.886 C104.575,45.703 102.686,48.859 102.686,52.478 C102.686,58.124 107.253,62.698 112.903,62.698 C116.512,62.698 119.67,60.812 121.489,57.986 C119.906,58.982 118.041,59.568 116.033,59.568 C110.388,59.568 105.819,54.992 105.819,49.35 z" fill="#B7B284" id="Path"/>
    <path d="M131.786,133.575 C131.786,126.669 133.805,120.236 137.248,114.814 C127.521,121.036 121.058,131.907 121.058,144.314 C121.058,163.648 136.729,179.321 156.072,179.321 C168.473,179.321 179.342,172.858 185.56,163.135 C180.137,166.583 173.708,168.591 166.806,168.591 C147.466,168.591 131.786,152.912 131.786,133.575 z" fill="#B7B284" id="Path"/>
    <path d="M234.158,157.985 C234.158,154.31 235.207,150.901 237.044,148.029 C231.877,151.343 228.432,157.106 228.432,163.693 C228.432,173.986 236.774,182.347 247.08,182.347 C253.665,182.347 259.421,178.906 262.733,173.746 C259.854,175.563 256.446,176.621 252.788,176.621 C242.501,176.621 234.158,168.276 234.158,157.985 z" fill="#B7B284" id="Path"/>
    <path d="M181.345,226.66 C179.761,229.144 178.845,232.086 178.845,235.246 C178.845,244.114 186.036,251.308 194.91,251.308 C198.067,251.308 201.006,250.392 203.49,248.818 C200.633,253.267 195.669,256.233 189.985,256.233 C181.111,256.233 173.92,249.046 173.92,240.165 C173.92,234.485 176.889,229.517 181.345,226.66 z M189.985,224.101 C188.556,224.101 187.195,224.346 185.876,224.698 C187.192,224.346 188.556,224.101 189.985,224.101 z" fill="#B7B284" id="Composite_Path"/>
    <path d="M84.344,214.662 C84.344,211.784 85.18,209.107 86.612,206.847 C82.56,209.449 79.861,213.971 79.861,219.142 C79.861,227.224 86.405,233.778 94.491,233.778 C99.662,233.778 104.184,231.078 106.786,227.027 C104.521,228.453 101.846,229.292 98.977,229.292 C90.888,229.292 84.344,222.751 84.344,214.662 z" fill="#B7B284" id="Path"/>
    <path d="M46.703,125.902 C46.703,120.997 48.135,116.433 50.567,112.572 C43.653,117.016 39.046,124.735 39.046,133.562 C39.046,147.358 50.234,158.543 64.036,158.543 C72.87,158.543 80.589,153.931 85.032,147.016 C81.169,149.466 76.601,150.886 71.694,150.886 C57.885,150.886 46.703,139.707 46.703,125.902 z" fill="#B7B284" id="Path"/>
  </g>
</svg>
