<?xml version="1.0" encoding="UTF-8"?>
<!DOCTYPE svg PUBLIC "-//W3C//DTD SVG 1.1//EN" "http://www.w3.org/Graphics/SVG/1.1/DTD/svg11.dtd">
<svg version="1.1" xmlns="http://www.w3.org/2000/svg" xmlns:xlink="http://www.w3.org/1999/xlink" x="0" y="0" width="300" height="300" viewBox="0, 0, 300, 300">
  <g id="weather">
    <path d="M258.999,150 C258.999,210.201 210.195,258.999 150,258.999 C89.8,258.999 40.995,210.201 40.995,150 C40.995,89.805 89.8,41.001 150,41.001 C210.195,41.001 258.999,89.805 258.999,150 z" fill="#FFDA24" id="Path"/>
    <path d="M170.187,257.057 L170.187,270.742 C170.187,277.996 164.254,283.928 157,283.928 L142.995,283.928 C135.74,283.928 129.802,277.996 129.802,270.742 L129.802,257.057 C136.352,258.289 143.086,258.999 150,258.999 C156.903,258.999 163.636,258.289 170.187,257.057 z M59.987,211.444 C67.654,222.648 77.353,232.346 88.55,240.014 C88.55,240.014 78.899,249.658 78.899,249.658 C73.768,254.784 65.379,254.784 60.242,249.658 C60.242,249.658 50.343,239.746 50.343,239.746 C45.211,234.615 45.211,226.227 50.343,221.094 C50.343,221.094 59.987,211.444 59.987,211.444 z M240.002,211.444 C240.002,211.444 249.652,221.088 249.652,221.088 C254.778,226.221 254.778,234.615 249.652,239.746 C249.652,239.746 239.747,249.646 239.747,249.646 C234.615,254.777 226.22,254.777 221.095,249.646 C221.095,249.646 211.445,240.001 211.445,240.001 C222.648,232.34 232.347,222.648 240.002,211.444 z M270.73,129.802 C277.99,129.802 283.929,135.746 283.928,143 L283.928,156.999 C283.929,164.267 277.99,170.199 270.73,170.199 L257.057,170.199 C258.283,163.642 258.999,156.903 258.999,150 C258.999,143.097 258.283,136.352 257.057,129.802 L270.73,129.802 z M42.942,129.802 C41.711,136.352 40.995,143.097 40.995,150 C40.995,156.903 41.711,163.642 42.942,170.199 L29.258,170.199 C22.004,170.199 16.072,164.267 16.072,156.999 L16.072,143 C16.072,135.746 22.004,129.802 29.258,129.802 L42.942,129.802 z M231.685,46.558 C234.826,46.864 237.44,48.261 239.747,50.342 C239.747,50.342 249.652,60.254 249.652,60.253 C254.778,65.385 254.778,73.774 249.652,78.905 C249.652,78.905 240.002,88.555 240.002,88.555 C232.341,77.346 222.642,67.654 211.445,59.993 C211.445,59.993 221.095,50.342 221.095,50.342 C224.548,47.139 227.133,46.558 231.685,46.558 z M70.84,46.554 C73.981,46.86 76.593,48.259 78.899,50.342 C78.899,50.342 88.555,59.987 88.555,59.987 C77.353,67.654 67.654,77.346 59.992,88.543 C59.993,88.543 50.343,78.899 50.343,78.899 C45.211,73.768 45.211,65.385 50.343,60.253 C50.343,60.254 60.254,50.342 60.254,50.342 C63.705,47.136 66.287,46.554 70.84,46.554 z M157,16.072 C164.254,16.072 170.187,22.003 170.187,29.258 L170.187,42.942 C163.636,41.717 156.903,41 150,41 C143.086,41 136.352,41.717 129.802,42.942 L129.802,29.258 C129.802,22.003 135.74,16.072 142.995,16.072 L157,16.072 z" fill="#FFDA24" id="Composite_Path"/>
    <path d="M170.187,257.058 L170.187,262.748 C163.623,263.912 156.897,264.628 150,264.627 C143.098,264.628 136.371,263.912 129.802,262.748 L129.802,257.058 C136.352,258.289 143.086,258.999 150,258.999 C156.903,258.999 163.636,258.289 170.187,257.058 z M59.987,211.444 C67.654,222.648 77.353,232.346 88.55,240.014 C88.55,240.014 84.528,244.029 84.528,244.029 C73.404,236.271 63.736,226.597 55.971,215.465 C55.971,215.465 59.987,211.444 59.987,211.444 z M240.002,211.444 C240.002,211.444 244.029,215.465 244.029,215.465 C236.265,226.591 226.596,236.259 215.472,244.017 C215.472,244.017 211.445,240.001 211.445,240.001 C222.648,232.34 232.347,222.648 240.002,211.444 z M42.942,129.802 C41.711,136.352 40.995,143.097 40.995,150 C40.995,156.903 41.711,163.642 42.942,170.199 L37.253,170.199 C36.076,163.63 35.367,156.903 35.367,150 C35.367,143.097 36.076,136.377 37.253,129.802 L42.942,129.802 z M262.748,129.802 C263.912,136.377 264.628,143.097 264.628,150 C264.628,156.903 263.912,163.63 262.748,170.199 L257.057,170.199 C258.283,163.642 258.999,156.903 258.999,150 C258.999,143.097 258.283,136.352 257.057,129.802 L262.748,129.802 z M215.466,55.977 C226.591,63.735 236.26,73.404 244.023,84.534 C244.023,84.534 240.002,88.555 240.002,88.555 C232.341,77.346 222.642,67.654 211.445,59.993 C211.445,59.993 215.466,55.977 215.466,55.977 z M84.528,55.971 C84.528,55.971 88.555,59.987 88.555,59.987 C77.353,67.654 67.654,77.346 59.992,88.543 C59.993,88.543 55.971,84.528 55.971,84.528 C63.736,73.404 73.404,63.735 84.528,55.971 z M150,35.366 C156.897,35.366 163.623,36.088 170.187,37.252 L170.187,42.942 C163.636,41.717 156.903,41.001 150,41.001 C143.086,41.001 136.352,41.717 129.802,42.942 L129.802,37.252 C136.371,36.088 143.098,35.366 150,35.366 z" fill="#FFA300" id="Composite_Path"/>
    <path d="M221.095,50.342 C221.095,50.342 211.445,59.993 211.445,59.993 C199.253,51.652 185.26,45.769 170.187,42.942 C170.187,42.942 170.187,29.258 170.187,29.258 C170.187,22.004 164.254,16.072 157,16.072 C157,16.072 142.995,16.072 142.995,16.072 C135.74,16.072 129.802,22.004 129.802,29.258 C129.802,29.258 129.802,42.942 129.802,42.942 C114.735,45.769 100.748,51.652 88.555,59.987 C88.555,59.987 78.899,50.342 78.899,50.342 C73.768,45.211 65.379,45.211 60.254,50.342 C60.254,50.342 50.343,60.254 50.343,60.254 C45.211,65.385 45.211,73.768 50.343,78.899 C50.343,78.899 59.993,88.543 59.993,88.543 C51.653,100.747 45.769,114.729 42.942,129.802 C42.942,129.802 29.258,129.802 29.258,129.802 C22.004,129.802 16.072,135.746 16.072,143 C16.072,143 16.072,157 16.072,157 C16.072,164.267 22.004,170.199 29.258,170.199 C29.258,170.199 42.942,170.199 42.942,170.199 C45.769,185.266 51.653,199.253 59.987,211.444 C59.987,211.444 50.343,221.094 50.343,221.094 C45.211,226.227 45.211,234.615 50.343,239.746 C50.343,239.746 56.069,245.479 56.069,245.479 C56.069,245.479 245.472,56.068 245.472,56.068 C245.472,56.068 239.747,50.342 239.747,50.342 C234.615,45.216 226.22,45.216 221.095,50.342 z" fill="#FFFFFF" id="Path" opacity="0.2"/>
  </g>
</svg>
