<?xml version="1.0" encoding="UTF-8"?>
<!DOCTYPE svg PUBLIC "-//W3C//DTD SVG 1.1//EN" "http://www.w3.org/Graphics/SVG/1.1/DTD/svg11.dtd">
<svg version="1.1" xmlns="http://www.w3.org/2000/svg" xmlns:xlink="http://www.w3.org/1999/xlink" x="0" y="0" width="300" height="300" viewBox="0, 0, 300, 300">
  <g id="weather">
    <path d="M165.112,60.099 C132.018,60.099 104.007,81.685 94.281,111.529 C75.672,115.666 60.502,128.803 53.545,146.169 C28.388,147.024 8.244,167.629 8.244,192.989 C8.244,218.32 28.318,238.887 53.414,239.815 C53.414,239.815 53.414,239.901 53.414,239.901 C53.414,239.901 165.982,239.901 165.982,239.901 C165.982,239.901 165.982,60.14 165.982,60.14 C165.692,60.128 165.406,60.099 165.112,60.099 z" fill="#FFFFFF" id="Path"/>
    <path d="M239.022,125.473 C234.539,88.928 203.641,60.571 165.982,60.14 C165.982,60.14 165.982,239.901 165.982,239.901 C165.982,239.901 236.942,239.901 236.942,239.901 C236.942,239.901 236.942,239.767 236.942,239.767 C267.433,238.445 291.756,213.381 291.756,182.569 C291.756,152.46 268.525,127.821 239.022,125.473 z" fill="#F2F4F9" id="Path"/>
  </g>
</svg>
