<?xml version="1.0" encoding="UTF-8"?>
<!DOCTYPE svg PUBLIC "-//W3C//DTD SVG 1.1//EN" "http://www.w3.org/Graphics/SVG/1.1/DTD/svg11.dtd">
<svg version="1.1" xmlns="http://www.w3.org/2000/svg" xmlns:xlink="http://www.w3.org/1999/xlink" x="0" y="0" width="300" height="300" viewBox="0, 0, 300, 300">
  <g id="weather">
    <path d="M165.109,36.407 C132.017,36.407 104.007,57.994 94.281,87.835 C75.671,91.973 60.502,105.112 53.543,122.477 C28.386,123.332 8.243,143.937 8.243,169.297 C8.243,194.627 28.316,215.196 53.414,216.124 C53.414,216.124 53.414,216.208 53.414,216.208 C53.414,216.208 165.982,216.208 165.982,216.208 C165.982,216.208 165.982,36.45 165.982,36.45 C165.691,36.436 165.405,36.407 165.109,36.407 z" fill="#FFFFFF" id="Path"/>
    <path d="M239.023,101.781 C234.536,65.236 203.636,36.879 165.982,36.45 C165.982,36.45 165.982,216.209 165.982,216.209 C165.982,216.209 236.937,216.209 236.937,216.209 C236.937,216.209 236.937,216.076 236.937,216.076 C267.435,214.754 291.757,189.689 291.757,158.878 C291.757,128.766 268.527,104.129 239.023,101.781 z" fill="#F2F4F9" id="Path"/>
    <path d="M144.017,181.623 C144.017,183.393 142.57,184.837 140.796,184.837 C140.796,184.837 36.82,184.837 36.82,184.837 C35.052,184.837 33.6,183.393 33.6,181.623 C33.6,181.623 33.6,174.635 33.6,174.635 C33.6,172.863 35.052,171.408 36.82,171.408 C36.82,171.408 140.796,171.408 140.796,171.408 C142.57,171.408 144.017,172.863 144.017,174.635 C144.017,174.635 144.017,181.623 144.017,181.623 z" fill="#00E1FF" id="Path"/>
    <path d="M47.654,253.379 C47.654,251.608 49.11,250.152 50.88,250.152 C50.88,250.152 154.857,250.152 154.857,250.152 C156.622,250.152 158.072,251.608 158.072,253.379 C158.072,253.379 158.072,260.354 158.072,260.354 C158.072,262.125 156.622,263.593 154.857,263.593 C154.857,263.593 50.88,263.593 50.88,263.593 C49.11,263.593 47.654,262.125 47.654,260.354 C47.654,260.354 47.654,253.379 47.654,253.379 z" fill="#00E1FF" id="Path"/>
    <path d="M223.532,220.188 C223.532,221.959 222.087,223.403 220.305,223.403 C220.305,223.403 152.068,223.403 152.068,223.403 C150.296,223.403 148.846,221.959 148.846,220.188 C148.846,220.188 148.846,213.201 148.846,213.201 C148.846,211.429 150.296,209.979 152.068,209.979 C152.068,209.979 220.305,209.979 220.305,209.979 C222.087,209.979 223.532,211.429 223.532,213.201 C223.532,213.201 223.532,220.188 223.532,220.188 z" fill="#00E1FF" id="Path"/>
    <path d="M183.857,253.379 C183.857,251.608 185.3,250.165 187.084,250.165 C187.084,250.165 255.321,250.165 255.321,250.165 C257.092,250.165 258.542,251.608 258.542,253.379 C258.542,253.379 258.542,260.366 258.542,260.366 C258.542,262.136 257.092,263.587 255.321,263.587 C255.321,263.587 187.084,263.587 187.084,263.587 C185.3,263.587 183.857,262.136 183.857,260.366 C183.857,260.366 183.857,253.379 183.857,253.379 z" fill="#00E1FF" id="Path"/>
    <path d="M68.556,220.297 C68.556,222.007 69.954,223.403 71.661,223.403 C71.661,223.403 112.811,223.403 112.811,223.403 C114.518,223.403 115.916,222.007 115.916,220.297 C115.916,220.297 115.916,213.091 115.916,213.091 C115.916,211.381 114.518,209.985 112.811,209.985 C112.811,209.985 71.661,209.985 71.661,209.985 C69.954,209.985 68.556,211.381 68.556,213.091 C68.556,213.091 68.556,220.297 68.556,220.297 z" fill="#00E1FF" id="Path"/>
    <path d="M223.834,181.738 C223.834,183.448 225.23,184.843 226.94,184.843 C226.94,184.843 268.089,184.843 268.089,184.843 C269.8,184.843 271.196,183.448 271.196,181.738 C271.196,181.738 271.196,174.526 271.196,174.526 C271.196,172.815 269.8,171.42 268.089,171.42 C268.089,171.42 226.94,171.42 226.94,171.42 C225.23,171.42 223.834,172.815 223.834,174.526 C223.834,174.526 223.834,181.738 223.834,181.738 z" fill="#00E1FF" id="Path"/>
    <path d="M171.816,181.738 C171.816,183.448 173.212,184.843 174.922,184.843 C174.922,184.843 186.568,184.843 186.568,184.843 C188.279,184.843 189.674,183.448 189.674,181.738 C189.674,181.738 189.674,174.526 189.674,174.526 C189.674,172.815 188.279,171.42 186.568,171.42 C186.568,171.42 174.922,171.42 174.922,171.42 C173.212,171.42 171.816,172.815 171.816,174.526 C171.816,174.526 171.816,181.738 171.816,181.738 z" fill="#00E1FF" id="Path"/>
    <path d="M143.405,172.851 C143.405,172.851 180.533,209.979 180.533,209.979 L152.068,209.979 C150.296,209.979 148.846,211.429 148.846,213.201 L148.846,216.208 C148.846,216.209 115.916,216.209 115.916,216.208 L115.916,213.091 C115.916,211.381 114.518,209.985 112.811,209.985 L71.66,209.985 C69.954,209.985 68.556,211.381 68.556,213.091 L68.556,216.208 C68.556,216.209 66.809,216.209 66.809,216.208 C66.809,216.209 34.588,183.988 34.588,183.988 C34.588,183.988 34.627,183.945 34.627,183.945 C35.204,184.493 35.971,184.837 36.819,184.837 L140.796,184.837 C142.57,184.837 144.017,183.393 144.017,181.623 L144.017,174.635 C144.017,173.962 143.763,173.374 143.405,172.851 z M189.11,172.845 C189.11,172.845 232.473,216.209 232.473,216.208 L223.532,216.208 C223.532,216.209 223.532,213.201 223.532,213.201 C223.532,211.429 222.087,209.979 220.305,209.979 L198.779,209.979 C198.779,209.979 172.739,183.939 172.739,183.939 C173.296,184.499 174.073,184.843 174.922,184.843 L186.568,184.843 C188.279,184.843 189.674,183.448 189.674,181.738 L189.674,174.526 C189.674,173.895 189.437,173.336 189.11,172.845 z M270.71,172.828 C270.71,172.828 284.527,186.645 284.526,186.645 C277.801,198.727 266.851,208.128 253.636,212.819 C253.636,212.819 225,184.182 225,184.182 C225,184.182 225.037,184.128 225.036,184.128 C225.57,184.552 226.213,184.843 226.94,184.843 L268.089,184.843 C269.8,184.843 271.195,183.448 271.195,181.738 L271.195,174.526 C271.195,173.889 270.952,173.331 270.624,172.839 C270.624,172.839 270.71,172.828 270.71,172.828 z M172.617,183.763 C172.66,183.812 172.677,183.878 172.72,183.921 C172.72,183.922 172.593,183.794 172.593,183.793 L172.617,183.763 z" fill="#D0D5D8" id="Composite_Path"/>
  </g>
</svg>
