<?xml version="1.0" encoding="UTF-8"?>
<!DOCTYPE svg PUBLIC "-//W3C//DTD SVG 1.1//EN" "http://www.w3.org/Graphics/SVG/1.1/DTD/svg11.dtd">
<svg version="1.1" xmlns="http://www.w3.org/2000/svg" xmlns:xlink="http://www.w3.org/1999/xlink" x="0" y="0" width="300" height="300" viewBox="0, 0, 300, 300">
  <g id="Background">
    <rect x="0" y="0" width="300" height="300" fill="#000000" fill-opacity="0"/>
  </g>
  <g id="Layer_1">
    <path d="M165.112,27.969 C132.018,27.969 104.007,49.557 94.281,79.399 C75.672,83.537 60.501,96.675 53.545,114.04 C28.388,114.895 8.244,135.5 8.244,160.86 C8.244,186.191 28.317,206.759 53.415,207.687 C53.415,207.687 53.415,207.772 53.415,207.772 C53.415,207.772 165.983,207.772 165.983,207.772 C165.983,207.772 165.983,28.012 165.983,28.012 C165.691,28 165.406,27.969 165.112,27.969 z" fill="#FFFFFF" id="Path"/>
    <path d="M239.021,93.346 C234.539,56.799 203.641,28.443 165.982,28.012 C165.982,28.012 165.982,207.773 165.982,207.773 C165.982,207.773 236.94,207.773 236.94,207.773 C236.94,207.773 236.94,207.639 236.94,207.639 C267.432,206.316 291.756,181.254 291.756,150.44 C291.756,120.33 268.524,95.693 239.021,93.346 z" fill="#F2F4F9" id="Path"/>
    <path d="M59.196,217.318 C53.595,220.862 51.927,228.274 55.47,233.875 C59.014,239.476 66.426,241.144 72.027,237.6 C77.628,234.057 79.296,226.644 75.752,221.044 C72.209,215.443 64.796,213.775 59.196,217.318 z" fill="#00E1FF"/>
    <path d="M95.454,248.47 C88.826,248.47 83.454,253.843 83.454,260.47 C83.454,267.098 88.826,272.47 95.454,272.47 C102.081,272.47 107.454,267.098 107.454,260.47 C107.454,253.843 102.081,248.47 95.454,248.47 z" fill="#00E1FF"/>
    <path d="M122.65,215.459 C116.022,215.459 110.65,220.832 110.65,227.459 C110.65,234.087 116.022,239.459 122.65,239.459 C129.277,239.459 134.65,234.087 134.65,227.459 C134.65,220.832 129.277,215.459 122.65,215.459 z" fill="#00E1FF"/>
    <path d="M89.169,270.693 C94.815,274.163 102.205,272.398 105.676,266.752 C109.146,261.106 107.381,253.715 101.735,250.245 z" fill="#00C6F4"/>
    <path d="M76.359,222.209 C73.409,216.274 66.207,213.854 60.272,216.804 C54.337,219.753 51.917,226.955 54.866,232.89 z" fill="#00C6F4"/>
    <path d="M110.651,227.347 C110.589,233.974 115.911,239.397 122.538,239.459 C129.165,239.521 134.588,234.199 134.65,227.572 z" fill="#00C6F4"/>
    <path d="M194.466,239.196 C194.466,239.196 189.618,236.677 189.618,236.677 C189.618,236.677 193.838,235.659 193.838,235.659 C194.064,235.606 194.198,235.394 194.139,235.189 C194.139,235.189 193.457,232.903 193.457,232.903 C193.397,232.7 193.163,232.577 192.936,232.631 C192.936,232.631 185.349,234.461 185.349,234.461 C185.349,234.461 179.16,231.245 179.16,231.245 C179.16,231.245 185.349,228.028 185.349,228.028 C185.349,228.028 192.936,229.858 192.936,229.858 C193.163,229.913 193.397,229.791 193.457,229.587 C193.457,229.587 194.139,227.3 194.139,227.3 C194.198,227.096 194.064,226.886 193.838,226.829 C193.838,226.829 189.618,225.813 189.618,225.813 C189.618,225.813 194.466,223.294 194.466,223.294 C194.668,223.188 194.738,222.953 194.62,222.77 C194.62,222.77 193.306,220.719 193.306,220.719 C193.19,220.536 192.925,220.474 192.726,220.58 C192.726,220.58 187.875,223.098 187.875,223.098 C187.875,223.098 189.008,219.302 189.008,219.302 C189.067,219.096 188.932,218.885 188.705,218.832 C188.705,218.832 186.164,218.22 186.164,218.22 C185.937,218.163 185.7,218.286 185.641,218.49 C185.641,218.49 183.606,225.317 183.606,225.317 C183.606,225.317 177.42,228.531 177.42,228.531 C177.42,228.531 177.42,222.394 177.42,222.394 C177.42,222.394 182.97,217.397 182.97,217.397 C183.137,217.249 183.137,217.004 182.97,216.856 C182.97,216.856 181.113,215.182 181.113,215.182 C180.946,215.032 180.674,215.032 180.509,215.182 C180.509,215.182 177.42,217.962 177.42,217.962 C177.42,217.962 177.42,212.629 177.42,212.629 C177.42,212.418 177.228,212.245 176.991,212.245 C176.991,212.245 174.363,212.245 174.363,212.245 C174.128,212.245 173.937,212.418 173.937,212.629 C173.937,212.629 173.937,217.962 173.937,217.962 C173.937,217.962 170.845,215.182 170.845,215.182 C170.683,215.032 170.408,215.032 170.246,215.182 C170.246,215.182 168.384,216.856 168.384,216.856 C168.217,217.004 168.217,217.249 168.384,217.397 C168.384,217.397 173.937,222.394 173.937,222.394 C173.937,222.394 173.937,228.531 173.937,228.531 C173.937,228.531 168.031,225.462 168.031,225.462 C168.031,225.462 165.999,218.638 165.999,218.638 C165.94,218.434 165.702,218.31 165.476,218.367 C165.476,218.367 162.934,218.98 162.934,218.98 C162.707,219.033 162.573,219.245 162.632,219.448 C162.632,219.448 163.765,223.246 163.765,223.246 C163.765,223.246 158.634,220.58 158.634,220.58 C158.429,220.474 158.168,220.536 158.051,220.719 C158.051,220.719 156.734,222.77 156.734,222.77 C156.618,222.953 156.685,223.188 156.891,223.294 C156.891,223.294 162.022,225.96 162.022,225.96 C162.022,225.96 157.802,226.977 157.802,226.977 C157.576,227.033 157.441,227.244 157.5,227.448 C157.5,227.448 158.181,229.734 158.181,229.734 C158.245,229.937 158.477,230.061 158.704,230.006 C158.704,230.006 166.29,228.176 166.29,228.176 C166.29,228.176 172.194,231.245 172.194,231.245 C172.194,231.245 166.29,234.314 166.29,234.314 C166.29,234.314 158.704,232.483 158.704,232.483 C158.477,232.429 158.245,232.551 158.183,232.755 C158.183,232.755 157.5,235.042 157.5,235.042 C157.441,235.247 157.576,235.457 157.802,235.511 C157.802,235.511 162.022,236.529 162.022,236.529 C162.022,236.529 156.891,239.196 156.891,239.196 C156.685,239.301 156.618,239.536 156.734,239.72 C156.734,239.72 158.051,241.77 158.051,241.77 C158.168,241.953 158.429,242.016 158.634,241.911 C158.634,241.911 163.765,239.245 163.765,239.245 C163.765,239.245 162.632,243.041 162.632,243.041 C162.573,243.246 162.707,243.457 162.934,243.51 C162.934,243.51 165.476,244.125 165.476,244.125 C165.702,244.178 165.94,244.057 165.999,243.853 C165.999,243.853 168.031,237.028 168.031,237.028 C168.031,237.028 173.937,233.96 173.937,233.96 C173.937,233.96 173.937,240.391 173.937,240.391 C173.937,240.391 168.384,245.387 168.384,245.387 C168.217,245.535 168.217,245.779 168.384,245.929 C168.384,245.929 170.246,247.603 170.246,247.603 C170.408,247.753 170.683,247.753 170.845,247.603 C170.845,247.603 173.937,244.823 173.937,244.823 C173.937,244.823 173.937,249.862 173.937,249.862 C173.937,250.072 174.128,250.245 174.363,250.245 C174.363,250.245 176.991,250.245 176.991,250.245 C177.228,250.245 177.42,250.072 177.42,249.862 C177.42,249.862 177.42,244.823 177.42,244.823 C177.42,244.823 180.509,247.603 180.509,247.603 C180.674,247.753 180.946,247.753 181.113,247.603 C181.113,247.603 182.97,245.929 182.97,245.929 C183.137,245.779 183.137,245.535 182.97,245.387 C182.97,245.387 177.42,240.391 177.42,240.391 C177.42,240.391 177.42,233.96 177.42,233.96 C177.42,233.96 183.606,237.176 183.606,237.176 C183.606,237.176 185.641,243.998 185.641,243.998 C185.7,244.204 185.937,244.326 186.164,244.272 C186.164,244.272 188.705,243.659 188.705,243.659 C188.932,243.605 189.067,243.393 189.008,243.189 C189.008,243.189 187.875,239.392 187.875,239.392 C187.875,239.392 192.726,241.911 192.726,241.911 C192.925,242.016 193.19,241.953 193.306,241.77 C193.306,241.77 194.62,239.72 194.62,239.72 C194.738,239.536 194.668,239.301 194.466,239.196 z" fill="#00E1FF" id="Path"/>
    <path d="M262.434,239.391 C262.434,239.391 257.209,236.81 257.209,236.81 C257.209,236.81 261.757,235.767 261.757,235.767 C262.001,235.712 262.146,235.496 262.082,235.286 C262.082,235.286 261.347,232.944 261.347,232.944 C261.283,232.735 261.03,232.609 260.785,232.665 C260.785,232.665 252.609,234.54 252.609,234.54 C252.609,234.54 245.939,231.245 245.939,231.245 C245.939,231.245 252.609,227.95 252.609,227.95 C252.609,227.95 260.785,229.824 260.785,229.824 C261.03,229.881 261.283,229.755 261.347,229.547 C261.347,229.547 262.082,227.204 262.082,227.204 C262.146,226.995 262.001,226.78 261.757,226.721 C261.757,226.721 257.209,225.68 257.209,225.68 C257.209,225.68 262.434,223.1 262.434,223.1 C262.652,222.991 262.728,222.75 262.6,222.563 C262.6,222.563 261.184,220.462 261.184,220.462 C261.059,220.275 260.774,220.211 260.558,220.319 C260.558,220.319 255.331,222.899 255.331,222.899 C255.331,222.899 256.552,219.01 256.552,219.01 C256.616,218.799 256.47,218.583 256.226,218.528 C256.226,218.528 253.487,217.902 253.487,217.902 C253.243,217.843 252.987,217.969 252.923,218.178 C252.923,218.178 250.73,225.172 250.73,225.172 C250.73,225.172 244.063,228.465 244.063,228.465 C244.063,228.465 244.063,222.177 244.063,222.177 C244.063,222.177 250.045,217.058 250.045,217.058 C250.225,216.907 250.225,216.656 250.045,216.504 C250.045,216.504 248.044,214.789 248.044,214.789 C247.863,214.636 247.57,214.636 247.393,214.789 C247.393,214.789 244.063,217.637 244.063,217.637 C244.063,217.637 244.063,212.174 244.063,212.174 C244.063,211.958 243.857,211.781 243.601,211.781 C243.601,211.781 240.769,211.781 240.769,211.781 C240.516,211.781 240.31,211.958 240.31,212.174 C240.31,212.174 240.31,217.637 240.31,217.637 C240.31,217.637 236.978,214.789 236.978,214.789 C236.803,214.636 236.506,214.636 236.332,214.789 C236.332,214.789 234.325,216.504 234.325,216.504 C234.146,216.656 234.146,216.907 234.325,217.058 C234.325,217.058 240.31,222.177 240.31,222.177 C240.31,222.177 240.31,228.465 240.31,228.465 C240.31,228.465 233.945,225.321 233.945,225.321 C233.945,225.321 231.755,218.33 231.755,218.33 C231.692,218.12 231.435,217.994 231.191,218.052 C231.191,218.052 228.452,218.68 228.452,218.68 C228.207,218.735 228.063,218.951 228.126,219.16 C228.126,219.16 229.348,223.05 229.348,223.05 C229.348,223.05 223.818,220.319 223.818,220.319 C223.596,220.211 223.315,220.275 223.189,220.462 C223.189,220.462 221.77,222.563 221.77,222.563 C221.645,222.75 221.718,222.991 221.939,223.1 C221.939,223.1 227.469,225.831 227.469,225.831 C227.469,225.831 222.921,226.873 222.921,226.873 C222.677,226.93 222.532,227.147 222.596,227.355 C222.596,227.355 223.329,229.697 223.329,229.697 C223.399,229.905 223.649,230.032 223.893,229.976 C223.893,229.976 232.069,228.101 232.069,228.101 C232.069,228.101 238.431,231.245 238.431,231.245 C238.431,231.245 232.069,234.389 232.069,234.389 C232.069,234.389 223.893,232.514 223.893,232.514 C223.649,232.458 223.399,232.583 223.332,232.792 C223.332,232.792 222.596,235.135 222.596,235.135 C222.532,235.344 222.677,235.56 222.921,235.615 C222.921,235.615 227.469,236.659 227.469,236.659 C227.469,236.659 221.939,239.391 221.939,239.391 C221.718,239.498 221.645,239.739 221.77,239.927 C221.77,239.927 223.189,242.027 223.189,242.027 C223.315,242.215 223.596,242.279 223.818,242.171 C223.818,242.171 229.348,239.44 229.348,239.44 C229.348,239.44 228.126,243.329 228.126,243.329 C228.063,243.539 228.207,243.755 228.452,243.81 C228.452,243.81 231.191,244.439 231.191,244.439 C231.435,244.494 231.692,244.37 231.755,244.161 C231.755,244.161 233.945,237.17 233.945,237.17 C233.945,237.17 240.31,234.026 240.31,234.026 C240.31,234.026 240.31,240.614 240.31,240.614 C240.31,240.614 234.325,245.733 234.325,245.733 C234.146,245.885 234.146,246.134 234.325,246.288 C234.325,246.288 236.332,248.002 236.332,248.002 C236.506,248.157 236.803,248.157 236.978,248.002 C236.978,248.002 240.31,245.155 240.31,245.155 C240.31,245.155 240.31,250.317 240.31,250.317 C240.31,250.532 240.516,250.71 240.769,250.71 C240.769,250.71 243.601,250.71 243.601,250.71 C243.857,250.71 244.063,250.532 244.063,250.317 C244.063,250.317 244.063,245.155 244.063,245.155 C244.063,245.155 247.393,248.002 247.393,248.002 C247.57,248.157 247.863,248.157 248.044,248.002 C248.044,248.002 250.045,246.288 250.045,246.288 C250.225,246.134 250.225,245.885 250.045,245.733 C250.045,245.733 244.063,240.614 244.063,240.614 C244.063,240.614 244.063,234.026 244.063,234.026 C244.063,234.026 250.73,237.321 250.73,237.321 C250.73,237.321 252.923,244.31 252.923,244.31 C252.987,244.521 253.243,244.646 253.487,244.59 C253.487,244.59 256.226,243.962 256.226,243.962 C256.47,243.907 256.616,243.69 256.552,243.481 C256.552,243.481 255.331,239.591 255.331,239.591 C255.331,239.591 260.558,242.171 260.558,242.171 C260.774,242.279 261.059,242.215 261.184,242.027 C261.184,242.027 262.6,239.927 262.6,239.927 C262.728,239.739 262.652,239.498 262.434,239.391 z" fill="#00E1FF" id="Path"/>
    <path d="M221.559,273.349 C221.559,273.349 218.11,271.585 218.11,271.585 C218.11,271.585 221.112,270.872 221.112,270.872 C221.273,270.834 221.368,270.686 221.326,270.543 C221.326,270.543 220.841,268.942 220.841,268.942 C220.798,268.799 220.632,268.713 220.47,268.752 C220.47,268.752 215.073,270.033 215.073,270.033 C215.073,270.033 210.671,267.781 210.671,267.781 C210.671,267.781 215.073,265.528 215.073,265.528 C215.073,265.528 220.47,266.809 220.47,266.809 C220.632,266.848 220.798,266.763 220.841,266.62 C220.841,266.62 221.326,265.018 221.326,265.018 C221.368,264.876 221.273,264.728 221.112,264.688 C221.112,264.688 218.11,263.977 218.11,263.977 C218.11,263.977 221.559,262.213 221.559,262.213 C221.702,262.139 221.752,261.974 221.668,261.846 C221.668,261.846 220.733,260.41 220.733,260.41 C220.651,260.282 220.463,260.239 220.32,260.312 C220.32,260.312 216.87,262.076 216.87,262.076 C216.87,262.076 217.676,259.417 217.676,259.417 C217.718,259.274 217.622,259.126 217.461,259.088 C217.461,259.088 215.653,258.66 215.653,258.66 C215.492,258.62 215.323,258.706 215.281,258.849 C215.281,258.849 213.833,263.629 213.833,263.629 C213.833,263.629 209.433,265.88 209.433,265.88 C209.433,265.88 209.433,261.583 209.433,261.583 C209.433,261.583 213.381,258.084 213.381,258.084 C213.5,257.98 213.5,257.808 213.381,257.705 C213.381,257.705 212.06,256.532 212.06,256.532 C211.941,256.428 211.747,256.428 211.63,256.532 C211.63,256.532 209.433,258.479 209.433,258.479 C209.433,258.479 209.433,254.745 209.433,254.745 C209.433,254.597 209.296,254.476 209.128,254.476 C209.128,254.476 207.258,254.476 207.258,254.476 C207.091,254.476 206.955,254.597 206.955,254.745 C206.955,254.745 206.955,258.479 206.955,258.479 C206.955,258.479 204.756,256.532 204.756,256.532 C204.641,256.428 204.444,256.428 204.329,256.532 C204.329,256.532 203.005,257.705 203.005,257.705 C202.886,257.808 202.886,257.98 203.005,258.084 C203.005,258.084 206.955,261.583 206.955,261.583 C206.955,261.583 206.955,265.88 206.955,265.88 C206.955,265.88 202.754,263.731 202.754,263.731 C202.754,263.731 201.309,258.953 201.309,258.953 C201.267,258.81 201.097,258.723 200.936,258.763 C200.936,258.763 199.128,259.192 199.128,259.192 C198.967,259.23 198.871,259.377 198.913,259.52 C198.913,259.52 199.72,262.179 199.72,262.179 C199.72,262.179 196.069,260.312 196.069,260.312 C195.923,260.239 195.737,260.282 195.654,260.41 C195.654,260.41 194.718,261.846 194.718,261.846 C194.635,261.974 194.683,262.139 194.829,262.213 C194.829,262.213 198.48,264.08 198.48,264.08 C198.48,264.08 195.478,264.792 195.478,264.792 C195.317,264.831 195.221,264.979 195.263,265.122 C195.263,265.122 195.747,266.723 195.747,266.723 C195.793,266.865 195.958,266.951 196.119,266.913 C196.119,266.913 201.516,265.632 201.516,265.632 C201.516,265.632 205.715,267.781 205.715,267.781 C205.715,267.781 201.516,269.93 201.516,269.93 C201.516,269.93 196.119,268.648 196.119,268.648 C195.958,268.61 195.793,268.696 195.749,268.838 C195.749,268.838 195.263,270.44 195.263,270.44 C195.221,270.583 195.317,270.731 195.478,270.768 C195.478,270.768 198.48,271.481 198.48,271.481 C198.48,271.481 194.829,273.349 194.829,273.349 C194.683,273.422 194.635,273.587 194.718,273.715 C194.718,273.715 195.654,275.151 195.654,275.151 C195.737,275.279 195.923,275.323 196.069,275.249 C196.069,275.249 199.72,273.383 199.72,273.383 C199.72,273.383 198.913,276.041 198.913,276.041 C198.871,276.184 198.967,276.332 199.128,276.37 C199.128,276.37 200.936,276.8 200.936,276.8 C201.097,276.837 201.267,276.752 201.309,276.609 C201.309,276.609 202.754,271.83 202.754,271.83 C202.754,271.83 206.955,269.682 206.955,269.682 C206.955,269.682 206.955,274.185 206.955,274.185 C206.955,274.185 203.005,277.684 203.005,277.684 C202.886,277.788 202.886,277.958 203.005,278.063 C203.005,278.063 204.329,279.235 204.329,279.235 C204.444,279.341 204.641,279.341 204.756,279.235 C204.756,279.235 206.955,277.289 206.955,277.289 C206.955,277.289 206.955,280.817 206.955,280.817 C206.955,280.964 207.091,281.086 207.258,281.086 C207.258,281.086 209.128,281.086 209.128,281.086 C209.296,281.086 209.433,280.964 209.433,280.817 C209.433,280.817 209.433,277.289 209.433,277.289 C209.433,277.289 211.63,279.235 211.63,279.235 C211.747,279.341 211.941,279.341 212.06,279.235 C212.06,279.235 213.381,278.063 213.381,278.063 C213.5,277.958 213.5,277.788 213.381,277.684 C213.381,277.684 209.433,274.185 209.433,274.185 C209.433,274.185 209.433,269.682 209.433,269.682 C209.433,269.682 213.833,271.934 213.833,271.934 C213.833,271.934 215.281,276.711 215.281,276.711 C215.323,276.855 215.492,276.941 215.653,276.903 C215.653,276.903 217.461,276.473 217.461,276.473 C217.622,276.436 217.718,276.287 217.676,276.144 C217.676,276.144 216.87,273.485 216.87,273.485 C216.87,273.485 220.32,275.249 220.32,275.249 C220.463,275.323 220.651,275.279 220.733,275.151 C220.733,275.151 221.668,273.715 221.668,273.715 C221.752,273.587 221.702,273.422 221.559,273.349 z" fill="#00E1FF" id="Path"/>
  </g>
</svg>

