<?xml version="1.0" encoding="UTF-8"?>
<!DOCTYPE svg PUBLIC "-//W3C//DTD SVG 1.1//EN" "http://www.w3.org/Graphics/SVG/1.1/DTD/svg11.dtd">
<svg version="1.1" xmlns="http://www.w3.org/2000/svg" xmlns:xlink="http://www.w3.org/1999/xlink" x="0" y="0" width="300" height="300" viewBox="0, 0, 300, 300">
  <g id="weather">
    <path d="M174.508,32.905 C151.942,32.905 130.932,39.481 113.22,50.778 C101.926,68.483 95.363,89.497 95.363,112.061 C95.363,175.092 146.447,226.186 209.492,226.186 C232.045,226.186 253.061,219.616 270.773,208.325 C282.062,190.614 288.637,169.603 288.637,147.035 C288.637,84.002 237.54,32.905 174.508,32.905 z" fill="#D1D1B0" id="Path"/>
    <path d="M95.363,112.061 C95.363,89.552 101.9,68.589 113.141,50.914 C81.447,71.191 60.376,106.617 60.376,147.035 C60.376,210.069 111.479,261.165 174.508,261.165 C214.921,261.165 250.351,240.104 270.627,208.41 C252.946,219.647 231.984,226.186 209.492,226.186 C146.447,226.186 95.363,175.092 95.363,112.061 z" fill="#C6C5A3" id="Path"/>
    <path d="M100.895,111.567 C96.672,111.567 92.729,112.798 89.406,114.912 C87.295,118.233 86.058,122.172 86.058,126.397 C86.058,138.223 95.63,147.793 107.458,147.793 C111.685,147.793 115.622,146.566 118.939,144.443 C121.061,141.127 122.294,137.188 122.294,132.96 C122.294,121.145 112.709,111.567 100.895,111.567 z" fill="#C1BE99" id="Path"/>
    <path d="M179.71,112.177 C173.778,112.177 168.259,113.909 163.612,116.874 C160.646,121.524 158.911,127.044 158.911,132.969 C158.911,149.529 172.335,162.958 188.9,162.958 C194.826,162.958 200.34,161.232 204.998,158.266 C207.963,153.611 209.692,148.088 209.692,142.168 C209.692,125.603 196.27,112.177 179.71,112.177 z" fill="#C1BE99" id="Path"/>
    <path d="M126.976,193.713 C124.502,193.713 122.197,194.435 120.243,195.679 C119.006,197.62 118.29,199.928 118.29,202.405 C118.29,209.332 123.889,214.935 130.815,214.935 C133.291,214.935 135.596,214.212 137.543,212.975 C138.785,211.025 139.508,208.723 139.508,206.242 C139.508,199.327 133.897,193.713 126.976,193.713 z" fill="#C1BE99" id="Path"/>
    <path d="M228.065,65.824 C225.021,65.824 222.194,66.703 219.816,68.228 C218.287,70.606 217.402,73.439 217.402,76.484 C217.402,84.957 224.292,91.842 232.767,91.842 C235.805,91.842 238.632,90.962 241.022,89.437 C242.538,87.056 243.423,84.23 243.423,81.188 C243.423,72.704 236.557,65.824 228.065,65.824 z" fill="#C1BE99" id="Path"/>
    <path d="M142.747,54.781 C141.013,54.781 139.404,55.285 138.052,56.146 C137.185,57.51 136.682,59.118 136.682,60.847 C136.682,65.681 140.587,69.599 145.428,69.599 C147.15,69.599 148.764,69.096 150.123,68.228 C150.99,66.87 151.494,65.26 151.494,63.528 C151.494,58.693 147.574,54.781 142.747,54.781 z" fill="#C1BE99" id="Path"/>
    <path d="M257.642,142.808 C254.476,142.808 251.533,143.714 249.064,145.31 C247.482,147.779 246.572,150.708 246.572,153.871 C246.572,162.685 253.717,169.833 262.53,169.833 C265.685,169.833 268.62,168.917 271.095,167.34 C272.685,164.859 273.594,161.921 273.594,158.763 C273.594,149.953 266.449,142.808 257.642,142.808 z" fill="#C1BE99" id="Path"/>
    <path d="M208.746,210.491 C206.029,210.491 203.501,211.285 201.365,212.644 C200,214.777 199.211,217.315 199.211,220.032 C199.211,227.626 205.368,233.786 212.963,233.786 C215.68,233.786 218.215,232.997 220.35,231.636 C221.716,229.5 222.51,226.965 222.51,224.245 C222.51,216.651 216.347,210.491 208.746,210.491 z" fill="#C1BE99" id="Path"/>
    <path d="M217.402,76.484 C217.402,73.456 218.275,70.643 219.787,68.274 C215.527,71.006 212.695,75.756 212.695,81.188 C212.695,89.676 219.574,96.554 228.065,96.554 C233.5,96.554 238.244,93.716 240.973,89.461 C238.596,90.968 235.793,91.842 232.767,91.842 C224.292,91.842 217.402,84.957 217.402,76.484 z" fill="#B7B284" id="Path"/>
    <path d="M136.682,60.847 C136.682,59.127 137.179,57.531 138.04,56.17 C135.613,57.726 133.994,60.428 133.994,63.528 C133.994,68.362 137.906,72.28 142.747,72.28 C145.834,72.28 148.533,70.663 150.099,68.24 C148.74,69.099 147.139,69.599 145.428,69.599 C140.587,69.599 136.682,65.681 136.682,60.847 z" fill="#B7B284" id="Path"/>
    <path d="M158.911,132.969 C158.911,127.056 160.641,121.548 163.588,116.905 C155.26,122.233 149.723,131.541 149.723,142.168 C149.723,158.721 163.145,172.141 179.71,172.141 C190.326,172.141 199.636,166.609 204.955,158.285 C200.315,161.235 194.814,162.958 188.9,162.958 C172.335,162.958 158.911,149.529 158.911,132.969 z" fill="#B7B284" id="Path"/>
    <path d="M246.572,153.871 C246.572,150.726 247.477,147.806 249.047,145.346 C244.618,148.188 241.67,153.12 241.67,158.763 C241.67,167.578 248.816,174.734 257.642,174.734 C263.277,174.734 268.207,171.786 271.046,167.367 C268.578,168.924 265.661,169.833 262.53,169.833 C253.717,169.833 246.572,162.685 246.572,153.871 z" fill="#B7B284" id="Path"/>
    <path d="M201.353,212.681 C199.994,214.807 199.211,217.327 199.211,220.032 C199.211,227.626 205.368,233.786 212.963,233.786 C215.667,233.786 218.184,233 220.314,231.653 C217.869,235.466 213.617,238.004 208.746,238.004 C201.146,238.004 194.99,231.848 194.99,224.245 C194.99,219.38 197.531,215.125 201.353,212.681 z" fill="#B7B284" id="Composite_Path"/>
    <path d="M118.29,202.405 C118.29,199.943 119.006,197.647 120.23,195.716 C116.762,197.945 114.451,201.811 114.451,206.242 C114.451,213.165 120.049,218.777 126.976,218.777 C131.404,218.777 135.274,216.466 137.506,212.993 C135.564,214.215 133.273,214.935 130.815,214.935 C123.889,214.935 118.29,209.332 118.29,202.405 z" fill="#B7B284" id="Path"/>
    <path d="M86.058,126.397 C86.058,122.2 87.283,118.29 89.364,114.985 C83.438,118.791 79.5,125.4 79.5,132.96 C79.5,144.776 89.079,154.351 100.895,154.351 C108.465,154.351 115.07,150.402 118.873,144.479 C115.567,146.578 111.654,147.793 107.458,147.793 C95.63,147.793 86.058,138.223 86.058,126.397 z" fill="#B7B284" id="Path"/>
    <path d="M161.727,94.747 C130.018,94.747 103.165,115.443 93.837,144.045 C75.998,148.012 61.464,160.605 54.793,177.248 C30.676,178.067 11.363,197.82 11.363,222.124 C11.363,246.408 30.615,266.121 54.666,267.016 C54.666,267.016 54.666,267.095 54.666,267.095 C54.666,267.095 162.563,267.095 162.563,267.095 C162.563,267.095 162.563,94.786 162.563,94.786 C162.284,94.781 162.018,94.747 161.727,94.747 z" fill="#FFFFFF" id="Path"/>
    <path d="M232.585,157.409 C228.278,122.385 198.665,95.198 162.562,94.786 C162.562,94.786 162.562,267.095 162.562,267.095 C162.562,267.095 230.583,267.095 230.583,267.095 C230.583,267.095 230.583,266.965 230.583,266.965 C259.807,265.697 283.123,241.675 283.123,212.14 C283.123,183.278 260.85,159.658 232.585,157.409 z" fill="#F2F4F9" id="Path"/>
  </g>
</svg>
