<?xml version="1.0" encoding="UTF-8"?>
<!DOCTYPE svg PUBLIC "-//W3C//DTD SVG 1.1//EN" "http://www.w3.org/Graphics/SVG/1.1/DTD/svg11.dtd">
<svg version="1.1" xmlns="http://www.w3.org/2000/svg" xmlns:xlink="http://www.w3.org/1999/xlink" x="0" y="0" width="300" height="300" viewBox="0, 0, 300, 300">
  <g id="weather">
    <path d="M268.072,149.343 C268.072,202.399 225.068,245.411 172.01,245.411 C118.961,245.411 75.947,202.399 75.947,149.343 C75.947,96.293 118.961,53.275 172.01,53.275 C225.068,53.275 268.072,96.293 268.072,149.343 z" fill="#FFDA24" id="Path"/>
    <path d="M189.808,243.7 L189.808,255.758 C189.808,262.151 184.579,267.38 178.186,267.38 L165.849,267.38 C159.443,267.38 154.213,262.151 154.213,255.758 L154.213,243.7 C159.989,244.779 165.921,245.411 172.01,245.411 C178.101,245.411 184.033,244.779 189.808,243.7 z M92.686,203.497 C99.442,213.371 107.995,221.924 117.857,228.669 C117.857,228.669 109.353,237.173 109.353,237.173 C104.829,241.692 97.441,241.692 92.916,237.173 C92.917,237.173 84.182,228.438 84.182,228.438 C79.666,223.919 79.666,216.525 84.182,212.001 C84.182,212.001 92.686,203.497 92.686,203.497 z M251.331,203.497 C251.331,203.497 259.834,211.995 259.834,211.995 C264.36,216.52 264.36,223.913 259.834,228.438 C259.834,228.438 251.112,237.167 251.112,237.167 C246.588,241.686 239.188,241.686 234.664,237.167 C234.664,237.167 226.158,228.669 226.158,228.669 C236.034,221.912 244.585,213.371 251.331,203.497 z M278.42,131.547 C284.813,131.547 290.042,136.775 290.041,143.174 L290.041,155.518 C290.042,161.911 284.813,167.14 278.42,167.14 L266.362,167.14 C267.441,161.365 268.072,155.427 268.072,149.343 C268.072,143.26 267.441,137.321 266.362,131.547 L278.42,131.547 z M77.658,131.547 C76.578,137.321 75.947,143.26 75.947,149.343 C75.947,155.427 76.578,161.365 77.658,167.14 L65.605,167.14 C59.212,167.14 53.971,161.911 53.971,155.518 L53.971,143.174 C53.971,136.775 59.212,131.547 65.605,131.547 L77.658,131.547 z M243.999,58.182 C246.768,58.451 249.074,59.682 251.112,61.514 C251.112,61.514 259.834,70.254 259.834,70.254 C264.36,74.773 264.36,82.16 259.834,86.686 C259.834,86.686 251.331,95.19 251.331,95.19 C244.585,85.315 236.034,76.769 226.158,70.023 C226.158,70.023 234.664,61.514 234.664,61.514 C237.638,58.721 240.057,58.182 243.999,58.182 z M102.25,58.173 C105.019,58.443 107.321,59.678 109.353,61.514 C109.353,61.514 117.857,70.018 117.857,70.018 C107.995,76.769 99.442,85.309 92.698,95.184 C92.698,95.184 84.182,86.68 84.182,86.68 C79.666,82.154 79.666,74.767 84.182,70.248 C84.182,70.248 92.917,61.514 92.916,61.514 C95.89,58.716 98.305,58.173 102.25,58.173 z M178.186,31.307 C184.579,31.307 189.808,36.535 189.808,42.928 L189.808,54.993 C184.033,53.907 178.101,53.275 172.01,53.275 C165.921,53.275 159.989,53.907 154.213,54.993 L154.213,42.928 C154.213,36.535 159.443,31.307 165.849,31.307 L178.186,31.307 z" fill="#FFDA24" id="Composite_Path"/>
    <path d="M189.808,243.7 L189.808,248.709 C184.021,249.741 178.101,250.372 172.01,250.372 C165.934,250.372 160.001,249.741 154.213,248.709 L154.213,243.7 C159.989,244.779 165.921,245.411 172.01,245.411 C178.101,245.411 184.033,244.779 189.808,243.7 z M92.686,203.497 C99.442,213.371 107.995,221.924 117.857,228.669 C117.857,228.669 114.315,232.212 114.315,232.212 C104.514,225.381 95.985,216.848 89.143,207.039 C89.143,207.039 92.686,203.497 92.686,203.497 z M251.331,203.497 C251.331,203.497 254.874,207.039 254.873,207.039 C248.032,216.848 239.515,225.369 229.713,232.205 C229.713,232.205 226.158,228.669 226.158,228.669 C236.034,221.912 244.585,213.371 251.331,203.497 z M77.658,131.547 C76.578,137.321 75.947,143.26 75.947,149.343 C75.947,155.427 76.578,161.365 77.658,167.14 L72.641,167.14 C71.61,161.353 70.986,155.421 70.986,149.343 C70.986,143.266 71.61,137.333 72.641,131.547 L77.658,131.547 z M271.373,131.547 C272.403,137.333 273.034,143.266 273.033,149.343 C273.034,155.421 272.403,161.353 271.373,167.14 L266.362,167.14 C267.441,161.365 268.072,155.427 268.072,149.343 C268.072,143.26 267.441,137.321 266.362,131.547 L271.373,131.547 z M229.713,66.475 C239.515,73.317 248.032,81.839 254.873,91.647 C254.874,91.648 251.331,95.19 251.331,95.19 C244.585,85.315 236.034,76.769 226.158,70.023 C226.158,70.023 229.713,66.475 229.713,66.475 z M114.315,66.469 C114.315,66.469 117.857,70.018 117.857,70.018 C107.995,76.769 99.442,85.309 92.698,95.184 C92.698,95.184 89.143,91.642 89.143,91.642 C95.985,81.839 104.514,73.317 114.315,66.469 z M172.01,48.314 C178.101,48.314 184.021,48.945 189.808,49.977 L189.808,54.993 C184.033,53.907 178.101,53.275 172.01,53.275 C165.921,53.275 159.989,53.907 154.213,54.993 L154.213,49.977 C160.001,48.945 165.934,48.314 172.01,48.314 z" fill="#FFA300" id="Composite_Path"/>
    <path d="M234.664,61.514 C234.664,61.514 226.158,70.023 226.158,70.023 C215.41,62.66 203.091,57.485 189.808,54.993 C189.808,54.993 189.808,42.928 189.808,42.928 C189.808,36.535 184.579,31.307 178.186,31.307 C178.186,31.307 165.849,31.307 165.849,31.307 C159.443,31.307 154.213,36.535 154.213,42.928 C154.213,42.928 154.213,54.993 154.213,54.993 C140.931,57.485 128.606,62.66 117.857,70.018 C117.857,70.018 109.353,61.514 109.353,61.514 C104.828,56.988 97.441,56.988 92.917,61.514 C92.917,61.514 84.182,70.248 84.182,70.248 C79.666,74.767 79.666,82.154 84.182,86.68 C84.182,86.68 92.698,95.184 92.698,95.184 C85.334,105.937 80.151,118.264 77.658,131.547 C77.658,131.547 65.605,131.547 65.605,131.547 C59.212,131.547 53.971,136.775 53.971,143.174 C53.971,143.174 53.971,155.518 53.971,155.518 C53.971,161.911 59.212,167.14 65.605,167.14 C65.605,167.14 77.658,167.14 77.658,167.14 C80.151,180.423 85.334,192.749 92.686,203.497 C92.686,203.497 84.182,212.001 84.182,212.001 C79.666,216.525 79.666,223.919 84.182,228.438 C84.182,228.438 89.227,233.491 89.227,233.491 C89.227,233.491 256.159,66.56 256.159,66.56 C256.159,66.56 251.112,61.514 251.112,61.514 C246.575,57.001 239.188,57.001 234.664,61.514 z" fill="#FFFFFF" id="Path" opacity="0.2"/>
    <path d="M160.329,96.345 C128.618,96.345 101.76,117.041 92.43,145.644 C74.594,149.61 60.062,162.202 53.389,178.847 C29.272,179.665 9.959,199.418 9.959,223.722 C9.959,248.006 29.212,267.719 53.261,268.614 C53.261,268.614 53.261,268.693 53.261,268.693 C53.261,268.693 161.166,268.693 161.166,268.693 C161.166,268.693 161.166,96.385 161.166,96.385 C160.887,96.379 160.608,96.345 160.329,96.345 z" fill="#FFFFFF" id="Path"/>
    <path d="M231.168,159.006 C226.873,123.983 197.268,96.797 161.165,96.385 C161.165,96.385 161.165,268.693 161.165,268.693 C161.165,268.693 229.18,268.693 229.18,268.693 C229.18,268.693 229.18,268.563 229.18,268.563 C258.403,267.295 281.719,243.272 281.719,213.738 C281.719,184.876 259.447,161.256 231.168,159.006 z" fill="#F2F4F9" id="Path"/>
  </g>
</svg>
