<?xml version="1.0" encoding="UTF-8"?>
<!DOCTYPE svg PUBLIC "-//W3C//DTD SVG 1.1//EN" "http://www.w3.org/Graphics/SVG/1.1/DTD/svg11.dtd">
<svg version="1.1" xmlns="http://www.w3.org/2000/svg" xmlns:xlink="http://www.w3.org/1999/xlink" x="0" y="0" width="300" height="300" viewBox="0, 0, 300, 300">
  <g id="weather">
    <path d="M165.112,30.228 C132.018,30.228 104.007,51.815 94.281,81.658 C75.672,85.796 60.502,98.933 53.545,116.299 C28.388,117.154 8.244,137.759 8.244,163.12 C8.244,188.449 28.318,209.018 53.414,209.946 C53.414,209.946 53.414,210.03 53.414,210.03 C53.414,210.03 165.982,210.03 165.982,210.03 C165.982,210.03 165.982,30.271 165.982,30.271 C165.692,30.259 165.406,30.228 165.112,30.228 z" fill="#FFFFFF" id="Path"/>
    <path d="M239.022,95.603 C234.539,59.059 203.641,30.701 165.982,30.271 C165.982,30.271 165.982,210.03 165.982,210.03 C165.982,210.03 236.942,210.03 236.942,210.03 C236.942,210.03 236.942,209.897 236.942,209.897 C267.433,208.575 291.756,183.512 291.756,152.699 C291.756,122.59 268.525,97.951 239.022,95.603 z" fill="#F2F4F9" id="Path"/>
    <path d="M104.62,174.074 C104.62,174.074 59.316,186.242 59.316,186.242 C59.316,186.242 55.473,187.272 55.473,187.272 C50.978,188.747 46.744,191.246 43.172,194.818 C30.969,207.022 30.966,226.809 43.172,239.012 C43.172,239.012 107.613,174.572 107.613,174.572 C106.98,173.941 105.933,173.723 104.62,174.074 z" fill="#00E1FF" id="Path"/>
    <path d="M94.909,226.729 C94.909,226.729 95.944,222.854 95.944,222.854 C95.944,222.854 108.111,177.555 108.111,177.555 C108.463,176.258 108.244,175.203 107.613,174.572 C107.613,174.572 43.172,239.012 43.172,239.012 C55.37,251.204 75.159,251.204 87.363,239.012 C90.926,235.446 93.423,231.224 94.909,226.729 z" fill="#00C6F4" id="Path"/>
    <path d="M248.811,183.451 C248.811,183.451 203.507,195.619 203.507,195.619 C203.507,195.619 199.662,196.65 199.662,196.65 C195.161,198.13 190.933,200.63 187.361,204.196 C175.157,216.399 175.157,236.186 187.361,248.39 C187.361,248.39 251.802,183.949 251.802,183.949 C251.171,183.318 250.128,183.1 248.811,183.451 z" fill="#00E1FF" id="Path"/>
    <path d="M239.1,236.113 C239.1,236.113 240.131,232.23 240.131,232.23 C240.131,232.23 252.299,186.945 252.299,186.945 C252.651,185.629 252.432,184.58 251.802,183.949 C251.802,183.949 187.361,248.39 187.361,248.39 C199.565,260.594 219.35,260.594 231.554,248.39 C235.121,244.824 237.614,240.601 239.1,236.113 z" fill="#00C6F4" id="Path"/>
    <path d="M151.504,224.807 C151.504,224.807 124.009,232.188 124.009,232.188 C124.009,232.188 121.67,232.813 121.67,232.813 C118.944,233.711 116.375,235.227 114.204,237.399 C106.801,244.805 106.801,256.809 114.204,264.221 C114.204,264.221 153.318,225.11 153.318,225.11 C152.936,224.722 152.298,224.6 151.504,224.807 z" fill="#00E1FF" id="Path"/>
    <path d="M145.608,256.76 C145.608,256.76 146.236,254.413 146.236,254.413 C146.236,254.413 153.618,226.917 153.618,226.917 C153.83,226.129 153.699,225.486 153.318,225.11 C153.318,225.11 114.204,264.221 114.204,264.221 C121.61,271.622 133.619,271.622 141.026,264.221 C143.194,262.05 144.704,259.49 145.608,256.76 z" fill="#00C6F4" id="Path"/>
    <path d="M108.111,177.555 C108.111,177.555 99.388,210.03 99.388,210.03 C99.388,210.03 143.07,210.03 143.07,210.03 C143.07,210.03 107.614,174.572 107.614,174.572 C108.244,175.203 108.463,176.258 108.111,177.555 z" fill="#D0D5D8" id="Path"/>
    <path d="M252.299,186.945 C252.299,186.945 246.464,208.647 246.464,208.647 C254.112,207.01 261.203,203.881 267.384,199.537 C267.384,199.537 251.802,183.949 251.802,183.949 C252.432,184.58 252.651,185.629 252.299,186.945 z" fill="#D0D5D8" id="Path"/>
  </g>
</svg>
