<?xml version="1.0" encoding="UTF-8"?>
<!DOCTYPE svg PUBLIC "-//W3C//DTD SVG 1.1//EN" "http://www.w3.org/Graphics/SVG/1.1/DTD/svg11.dtd">
<svg version="1.1" xmlns="http://www.w3.org/2000/svg" xmlns:xlink="http://www.w3.org/1999/xlink" x="0" y="0" width="300" height="300" viewBox="0, 0, 300, 300">
  <g id="Background">
    <rect x="0" y="0" width="300" height="300" fill="#FFFFFF" fill-opacity="0"/>
  </g>
  <g id="Layer_1">
    <path d="M165.116,34.244 C132.022,34.244 104.011,55.831 94.28,85.674 C75.671,89.812 60.502,102.949 53.544,120.315 C28.384,121.17 8.247,141.775 8.247,167.136 C8.247,192.465 28.318,213.034 53.412,213.962 C53.412,213.962 53.412,214.046 53.412,214.046 C53.412,214.046 165.983,214.046 165.983,214.046 C165.983,214.046 165.983,34.286 165.983,34.286 C165.692,34.274 165.406,34.244 165.116,34.244 z" fill="#FFFFFF" id="Path"/>
    <path d="M239.019,99.619 C234.542,63.074 203.643,34.717 165.983,34.286 C165.983,34.286 165.983,214.046 165.983,214.046 C165.983,214.046 236.945,214.046 236.945,214.046 C236.945,214.046 236.945,213.913 236.945,213.913 C267.429,212.591 291.753,187.527 291.753,156.714 C291.753,126.605 268.521,101.966 239.019,99.619 z" fill="#F2F4F9" id="Path"/>
    <path d="M248.808,187.467 C248.808,187.467 203.51,199.635 203.51,199.635 C203.51,199.635 199.665,200.666 199.665,200.666 C195.165,202.146 190.931,204.645 187.364,208.212 C175.16,220.415 175.16,240.201 187.364,252.405 C187.364,252.405 251.804,187.964 251.804,187.964 C251.173,187.334 250.13,187.115 248.808,187.467 z" fill="#00E1FF" id="Path"/>
    <path d="M239.103,240.128 C239.103,240.128 240.134,236.246 240.134,236.246 C240.134,236.246 252.302,190.961 252.302,190.961 C252.654,189.645 252.435,188.595 251.804,187.964 C251.804,187.964 187.364,252.405 187.364,252.405 C199.568,264.609 219.354,264.609 231.557,252.405 C235.124,248.839 237.612,244.617 239.103,240.128 z" fill="#00C6F4" id="Path"/>
    <path d="M252.302,190.961 C252.302,190.961 246.466,212.664 246.466,212.664 C254.11,211.026 261.208,207.896 267.381,203.553 C267.381,203.553 251.804,187.964 251.804,187.964 C252.435,188.595 252.654,189.645 252.302,190.961 z" fill="#D0D5D8" id="Path"/>
    <path d="M113.164,238.151 C113.164,238.151 102.264,231.858 102.264,231.858 C102.264,231.858 111.751,229.313 111.751,229.313 C112.26,229.18 112.562,228.652 112.429,228.14 C112.429,228.14 110.895,222.429 110.895,222.429 C110.761,221.92 110.234,221.613 109.723,221.75 C109.723,221.75 92.667,226.32 92.667,226.32 C92.667,226.32 78.753,218.286 78.753,218.286 C78.753,218.286 92.667,210.249 92.667,210.249 C92.667,210.249 109.723,214.82 109.723,214.82 C110.234,214.959 110.761,214.653 110.895,214.144 C110.895,214.144 112.429,208.43 112.429,208.43 C112.562,207.92 112.26,207.396 111.751,207.253 C111.751,207.253 102.264,204.715 102.264,204.715 C102.264,204.715 113.164,198.422 113.164,198.422 C113.618,198.157 113.776,197.569 113.509,197.111 C113.509,197.111 110.555,191.989 110.555,191.989 C110.295,191.531 109.7,191.376 109.251,191.64 C109.251,191.64 98.345,197.931 98.345,197.931 C98.345,197.931 100.892,188.447 100.892,188.447 C101.026,187.934 100.722,187.406 100.212,187.272 C100.212,187.272 94.499,185.745 94.499,185.745 C93.99,185.602 93.457,185.908 93.323,186.418 C93.323,186.418 88.748,203.474 88.748,203.474 C88.748,203.474 74.84,211.505 74.84,211.505 C74.84,211.505 74.84,196.171 74.84,196.171 C74.84,196.171 87.318,183.688 87.318,183.688 C87.695,183.318 87.695,182.706 87.318,182.335 C87.318,182.335 83.144,178.153 83.144,178.153 C82.768,177.78 82.156,177.78 81.787,178.153 C81.787,178.153 74.84,185.099 74.84,185.099 C74.84,185.099 74.84,171.775 74.84,171.775 C74.84,171.248 74.41,170.817 73.876,170.817 C73.876,170.817 67.969,170.817 67.969,170.817 C67.44,170.817 67.01,171.248 67.01,171.775 C67.01,171.775 67.01,185.099 67.01,185.099 C67.01,185.099 60.06,178.153 60.06,178.153 C59.696,177.78 59.076,177.78 58.712,178.153 C58.712,178.153 54.527,182.335 54.527,182.335 C54.152,182.706 54.152,183.318 54.527,183.688 C54.527,183.688 67.01,196.171 67.01,196.171 C67.01,196.171 67.01,211.505 67.01,211.505 C67.01,211.505 53.733,203.838 53.733,203.838 C53.733,203.838 49.166,186.788 49.166,186.788 C49.033,186.278 48.498,185.969 47.988,186.111 C47.988,186.111 42.275,187.643 42.275,187.643 C41.764,187.776 41.462,188.304 41.595,188.813 C41.595,188.813 44.143,198.301 44.143,198.301 C44.143,198.301 32.607,191.64 32.607,191.64 C32.145,191.376 31.558,191.531 31.295,191.989 C31.295,191.989 28.335,197.111 28.335,197.111 C28.075,197.569 28.226,198.157 28.688,198.422 C28.688,198.422 40.224,205.082 40.224,205.082 C40.224,205.082 30.737,207.623 30.737,207.623 C30.228,207.763 29.925,208.291 30.058,208.8 C30.058,208.8 31.587,214.51 31.587,214.51 C31.733,215.017 32.254,215.327 32.763,215.19 C32.763,215.19 49.82,210.619 49.82,210.619 C49.82,210.619 63.092,218.286 63.092,218.286 C63.092,218.286 49.82,225.953 49.82,225.953 C49.82,225.953 32.763,221.38 32.763,221.38 C32.254,221.243 31.733,221.55 31.593,222.059 C31.593,222.059 30.058,227.773 30.058,227.773 C29.925,228.283 30.228,228.81 30.737,228.943 C30.737,228.943 40.224,231.488 40.224,231.488 C40.224,231.488 28.688,238.151 28.688,238.151 C28.226,238.412 28.075,239.001 28.335,239.458 C28.335,239.458 31.295,244.581 31.295,244.581 C31.558,245.038 32.145,245.196 32.607,244.933 C32.607,244.933 44.143,238.272 44.143,238.272 C44.143,238.272 41.595,247.756 41.595,247.756 C41.462,248.268 41.764,248.796 42.275,248.93 C42.275,248.93 47.988,250.464 47.988,250.464 C48.498,250.598 49.033,250.294 49.166,249.785 C49.166,249.785 53.733,232.734 53.733,232.734 C53.733,232.734 67.01,225.068 67.01,225.068 C67.01,225.068 67.01,241.135 67.01,241.135 C67.01,241.135 54.527,253.619 54.527,253.619 C54.152,253.988 54.152,254.598 54.527,254.972 C54.527,254.972 58.712,259.153 58.712,259.153 C59.076,259.529 59.696,259.529 60.06,259.153 C60.06,259.153 67.01,252.208 67.01,252.208 C67.01,252.208 67.01,264.798 67.01,264.798 C67.01,265.322 67.44,265.756 67.969,265.756 C67.969,265.756 73.876,265.756 73.876,265.756 C74.41,265.756 74.84,265.322 74.84,264.798 C74.84,264.798 74.84,252.208 74.84,252.208 C74.84,252.208 81.787,259.153 81.787,259.153 C82.156,259.529 82.768,259.529 83.144,259.153 C83.144,259.153 87.318,254.972 87.318,254.972 C87.695,254.598 87.695,253.988 87.318,253.619 C87.318,253.619 74.84,241.135 74.84,241.135 C74.84,241.135 74.84,225.068 74.84,225.068 C74.84,225.068 88.748,233.105 88.748,233.105 C88.748,233.105 93.323,250.148 93.323,250.148 C93.457,250.662 93.99,250.967 94.499,250.831 C94.499,250.831 100.212,249.3 100.212,249.3 C100.722,249.166 101.026,248.636 100.892,248.126 C100.892,248.126 98.345,238.639 98.345,238.639 C98.345,238.639 109.251,244.933 109.251,244.933 C109.7,245.196 110.295,245.038 110.555,244.581 C110.555,244.581 113.509,239.458 113.509,239.458 C113.776,239.001 113.618,238.412 113.164,238.151 z" fill="#00E1FF" id="Path"/>
    <path d="M92.667,210.249 C92.667,210.249 106.836,214.047 106.836,214.046 L86.093,214.046 C86.093,214.047 92.667,210.249 92.667,210.249 z M110.555,191.989 C110.555,191.989 132.616,214.047 132.616,214.046 L110.925,214.046 C110.925,214.047 112.429,208.43 112.429,208.43 C112.562,207.921 112.26,207.396 111.75,207.253 C111.751,207.253 102.264,204.715 102.264,204.715 C102.264,204.715 113.164,198.422 113.164,198.422 C113.618,198.157 113.776,197.569 113.509,197.111 C113.509,197.111 110.555,191.989 110.555,191.989 z M49.82,210.619 C49.82,210.619 55.752,214.047 55.752,214.046 L52.513,214.046 C52.513,214.047 52.513,213.962 52.513,213.962 C49.13,213.837 45.853,213.331 42.7,212.527 C42.7,212.527 49.82,210.619 49.82,210.619 z M49.213,186.966 C49.213,186.966 67.01,204.76 67.01,204.76 L67.01,211.505 C67.01,211.505 53.733,203.838 53.733,203.838 C53.733,203.838 49.213,186.966 49.213,186.966 z M87.44,182.615 C87.44,182.615 87.524,182.67 87.524,182.669 C87.524,182.67 92.885,188.037 92.885,188.037 C92.885,188.037 88.748,203.474 88.748,203.474 C88.748,203.474 74.84,211.505 74.84,211.505 L74.84,196.171 C74.84,196.172 87.318,183.688 87.318,183.688 C87.621,183.394 87.609,182.972 87.44,182.615 z M100.722,187.618 C100.722,187.618 106.388,193.29 106.388,193.29 C106.388,193.29 98.345,197.931 98.345,197.931 C98.345,197.931 100.892,188.447 100.892,188.447 C100.971,188.14 100.856,187.858 100.673,187.631 C100.673,187.631 100.722,187.618 100.722,187.618 z M74.744,171.542 C74.744,171.542 81.568,178.368 81.568,178.368 C81.568,178.368 74.84,185.099 74.84,185.099 L74.84,171.776 C74.84,171.685 74.768,171.624 74.744,171.542 z" fill="#D0D5D8" id="Composite_Path"/>
  </g>
</svg>

