<?xml version="1.0" encoding="UTF-8"?>
<!DOCTYPE svg PUBLIC "-//W3C//DTD SVG 1.1//EN" "http://www.w3.org/Graphics/SVG/1.1/DTD/svg11.dtd">
<svg version="1.1" xmlns="http://www.w3.org/2000/svg" xmlns:xlink="http://www.w3.org/1999/xlink" x="0" y="0" width="300" height="300" viewBox="0, 0, 300, 300">
  <g id="weather">
    <path d="M165.112,21.823 C132.018,21.823 104.007,43.41 94.281,73.253 C75.672,77.39 60.502,90.528 53.545,107.894 C28.388,108.749 8.244,129.354 8.244,154.714 C8.244,180.044 28.318,200.612 53.414,201.541 C53.414,201.541 53.414,201.625 53.414,201.625 C53.414,201.625 165.982,201.625 165.982,201.625 C165.982,201.625 165.982,21.865 165.982,21.865 C165.692,21.853 165.406,21.823 165.112,21.823 z" fill="#FFFFFF" id="Path"/>
    <path d="M239.022,87.198 C234.539,50.653 203.641,22.296 165.982,21.865 C165.982,21.865 165.982,201.625 165.982,201.625 C165.982,201.625 236.942,201.625 236.942,201.625 C236.942,201.625 236.942,201.492 236.942,201.492 C267.433,200.17 291.756,175.107 291.756,144.294 C291.756,114.185 268.525,89.545 239.022,87.198 z" fill="#F2F4F9" id="Path"/>
    <path d="M163.59,264.12 C163.59,264.12 158.04,260.914 158.04,260.914 C158.04,260.914 162.868,259.618 162.868,259.618 C163.129,259.549 163.286,259.279 163.217,259.019 C163.217,259.019 162.437,256.113 162.437,256.113 C162.367,255.852 162.098,255.698 161.837,255.768 C161.837,255.768 153.157,258.093 153.157,258.093 C153.157,258.093 146.07,254.002 146.07,254.002 C146.07,254.002 153.157,249.907 153.157,249.907 C153.157,249.907 161.837,252.237 161.837,252.237 C162.098,252.307 162.367,252.152 162.437,251.891 C162.437,251.891 163.217,248.983 163.217,248.983 C163.286,248.722 163.129,248.455 162.868,248.382 C162.868,248.382 158.04,247.091 158.04,247.091 C158.04,247.091 163.59,243.885 163.59,243.885 C163.823,243.751 163.902,243.451 163.768,243.217 C163.768,243.217 162.261,240.609 162.261,240.609 C162.127,240.379 161.828,240.3 161.597,240.434 C161.597,240.434 156.044,243.636 156.044,243.636 C156.044,243.636 157.343,238.808 157.343,238.808 C157.409,238.547 157.254,238.277 156.996,238.207 C156.996,238.207 154.085,237.431 154.085,237.431 C153.827,237.358 153.557,237.513 153.488,237.773 C153.488,237.773 151.161,246.46 151.161,246.46 C151.161,246.46 144.077,250.548 144.077,250.548 C144.077,250.548 144.077,242.738 144.077,242.738 C144.077,242.738 150.431,236.381 150.431,236.381 C150.621,236.193 150.621,235.884 150.431,235.693 C150.431,235.693 148.301,233.564 148.301,233.564 C148.114,233.372 147.801,233.372 147.613,233.564 C147.613,233.564 144.077,237.1 144.077,237.1 C144.077,237.1 144.077,230.316 144.077,230.316 C144.077,230.049 143.855,229.828 143.585,229.828 C143.585,229.828 140.574,229.828 140.574,229.828 C140.306,229.828 140.086,230.049 140.086,230.316 C140.086,230.316 140.086,237.1 140.086,237.1 C140.086,237.1 136.55,233.564 136.55,233.564 C136.362,233.372 136.049,233.372 135.861,233.564 C135.861,233.564 133.729,235.693 133.729,235.693 C133.541,235.884 133.541,236.193 133.729,236.381 C133.729,236.381 140.086,242.738 140.086,242.738 C140.086,242.738 140.086,250.548 140.086,250.548 C140.086,250.548 133.326,246.644 133.326,246.644 C133.326,246.644 130.999,237.962 130.999,237.962 C130.929,237.701 130.662,237.546 130.399,237.616 C130.399,237.616 127.493,238.395 127.493,238.395 C127.232,238.465 127.077,238.735 127.147,238.993 C127.147,238.993 128.443,243.824 128.443,243.824 C128.443,243.824 122.565,240.434 122.565,240.434 C122.334,240.3 122.034,240.379 121.901,240.609 C121.901,240.609 120.39,243.217 120.39,243.217 C120.26,243.451 120.339,243.751 120.572,243.885 C120.572,243.885 126.447,247.279 126.447,247.279 C126.447,247.279 121.616,248.573 121.616,248.573 C121.355,248.643 121.203,248.913 121.27,249.171 C121.27,249.171 122.05,252.079 122.05,252.079 C122.119,252.337 122.389,252.495 122.647,252.425 C122.647,252.425 131.332,250.096 131.332,250.096 C131.332,250.096 138.092,254.002 138.092,254.002 C138.092,254.002 131.332,257.908 131.332,257.908 C131.332,257.908 122.647,255.579 122.647,255.579 C122.389,255.507 122.119,255.664 122.053,255.925 C122.053,255.925 121.27,258.833 121.27,258.833 C121.203,259.091 121.355,259.36 121.616,259.43 C121.616,259.43 126.45,260.726 126.45,260.726 C126.45,260.726 120.572,264.12 120.572,264.12 C120.339,264.253 120.26,264.55 120.39,264.784 C120.39,264.784 121.901,267.392 121.901,267.392 C122.034,267.625 122.334,267.704 122.565,267.57 C122.565,267.57 128.443,264.18 128.443,264.18 C128.443,264.18 127.147,269.009 127.147,269.009 C127.077,269.269 127.232,269.539 127.493,269.609 C127.493,269.609 130.399,270.389 130.399,270.389 C130.662,270.458 130.929,270.303 130.999,270.043 C130.999,270.043 133.326,261.359 133.326,261.359 C133.326,261.359 140.086,257.457 140.086,257.457 C140.086,257.457 140.086,265.639 140.086,265.639 C140.086,265.639 133.729,271.996 133.729,271.996 C133.541,272.184 133.541,272.493 133.729,272.684 C133.729,272.684 135.861,274.813 135.861,274.813 C136.049,275.004 136.362,275.004 136.55,274.813 C136.55,274.813 140.086,271.277 140.086,271.277 C140.086,271.277 140.086,277.688 140.086,277.688 C140.086,277.955 140.306,278.177 140.574,278.177 C140.574,278.177 143.585,278.177 143.585,278.177 C143.855,278.177 144.077,277.955 144.077,277.688 C144.077,277.688 144.077,271.277 144.077,271.277 C144.077,271.277 147.613,274.813 147.613,274.813 C147.801,275.004 148.114,275.004 148.301,274.813 C148.301,274.813 150.431,272.684 150.431,272.684 C150.621,272.493 150.621,272.184 150.431,271.996 C150.431,271.996 144.077,265.639 144.077,265.639 C144.077,265.639 144.077,257.457 144.077,257.457 C144.077,257.457 151.161,261.548 151.161,261.548 C151.161,261.548 153.488,270.227 153.488,270.227 C153.557,270.488 153.827,270.646 154.085,270.576 C154.085,270.576 156.996,269.797 156.996,269.797 C157.254,269.728 157.409,269.457 157.343,269.197 C157.343,269.197 156.044,264.368 156.044,264.368 C156.044,264.368 161.597,267.57 161.597,267.57 C161.828,267.704 162.127,267.625 162.261,267.392 C162.261,267.392 163.768,264.784 163.768,264.784 C163.902,264.55 163.823,264.253 163.59,264.12 z" fill="#00E1FF" id="Path"/>
    <path d="M114.064,225.73 C114.064,225.73 103.161,219.437 103.161,219.437 C103.161,219.437 112.648,216.893 112.648,216.893 C113.157,216.759 113.464,216.232 113.327,215.719 C113.327,215.719 111.796,210.008 111.796,210.008 C111.662,209.499 111.132,209.192 110.622,209.329 C110.622,209.329 93.571,213.899 93.571,213.899 C93.571,213.899 79.657,205.865 79.657,205.865 C79.657,205.865 93.571,197.828 93.571,197.828 C93.571,197.828 110.622,202.399 110.622,202.399 C111.132,202.539 111.662,202.232 111.796,201.723 C111.796,201.723 113.327,196.009 113.327,196.009 C113.464,195.499 113.157,194.975 112.648,194.832 C112.648,194.832 103.161,192.294 103.161,192.294 C103.161,192.294 114.064,186.001 114.064,186.001 C114.522,185.737 114.677,185.148 114.413,184.691 C114.413,184.691 111.456,179.567 111.456,179.567 C111.192,179.11 110.604,178.955 110.149,179.219 C110.149,179.219 99.245,185.51 99.245,185.51 C99.245,185.51 101.79,176.026 101.79,176.026 C101.927,175.513 101.621,174.985 101.111,174.852 C101.111,174.852 95.4,173.324 95.4,173.324 C94.89,173.181 94.36,173.487 94.223,173.997 C94.223,173.997 89.653,191.053 89.653,191.053 C89.653,191.053 75.741,199.084 75.741,199.084 C75.741,199.084 75.741,183.75 75.741,183.75 C75.741,183.75 88.222,171.267 88.222,171.267 C88.598,170.897 88.598,170.285 88.222,169.915 C88.222,169.915 84.043,165.732 84.043,165.732 C83.67,165.359 83.057,165.359 82.687,165.732 C82.687,165.732 75.741,172.678 75.741,172.678 C75.741,172.678 75.741,159.355 75.741,159.355 C75.741,158.827 75.308,158.396 74.78,158.396 C74.78,158.396 68.866,158.396 68.866,158.396 C68.341,158.396 67.908,158.827 67.908,159.355 C67.908,159.355 67.908,172.678 67.908,172.678 C67.908,172.678 60.963,165.732 60.963,165.732 C60.593,165.359 59.98,165.359 59.61,165.732 C59.61,165.732 55.427,169.915 55.427,169.915 C55.054,170.285 55.054,170.897 55.427,171.267 C55.427,171.267 67.908,183.75 67.908,183.75 C67.908,183.75 67.908,199.084 67.908,199.084 C67.908,199.084 54.633,191.417 54.633,191.417 C54.633,191.417 50.066,174.367 50.066,174.367 C49.929,173.857 49.402,173.548 48.889,173.69 C48.889,173.69 43.178,175.222 43.178,175.222 C42.669,175.356 42.363,175.883 42.499,176.393 C42.499,176.393 45.043,185.879 45.043,185.879 C45.043,185.879 33.504,179.219 33.504,179.219 C33.049,178.955 32.457,179.11 32.197,179.567 C32.197,179.567 29.237,184.691 29.237,184.691 C28.975,185.148 29.13,185.737 29.588,186.001 C29.588,186.001 41.125,192.661 41.125,192.661 C41.125,192.661 31.639,195.202 31.639,195.202 C31.129,195.342 30.826,195.869 30.963,196.379 C30.963,196.379 32.491,202.09 32.491,202.09 C32.63,202.596 33.158,202.906 33.664,202.77 C33.664,202.77 50.718,198.199 50.718,198.199 C50.718,198.199 63.992,205.865 63.992,205.865 C63.992,205.865 50.718,213.532 50.718,213.532 C50.718,213.532 33.664,208.959 33.664,208.959 C33.158,208.822 32.63,209.128 32.493,209.638 C32.493,209.638 30.963,215.352 30.963,215.352 C30.826,215.862 31.129,216.39 31.639,216.523 C31.639,216.523 41.128,219.067 41.128,219.067 C41.128,219.067 29.588,225.73 29.588,225.73 C29.13,225.991 28.975,226.579 29.237,227.038 C29.237,227.038 32.197,232.16 32.197,232.16 C32.457,232.617 33.049,232.775 33.504,232.512 C33.504,232.512 45.043,225.852 45.043,225.852 C45.043,225.852 42.499,235.335 42.499,235.335 C42.363,235.848 42.669,236.375 43.178,236.508 C43.178,236.508 48.889,238.043 48.889,238.043 C49.402,238.177 49.929,237.874 50.066,237.364 C50.066,237.364 54.633,220.313 54.633,220.313 C54.633,220.313 67.908,212.646 67.908,212.646 C67.908,212.646 67.908,228.715 67.908,228.715 C67.908,228.715 55.427,241.197 55.427,241.197 C55.054,241.567 55.054,242.177 55.427,242.55 C55.427,242.55 59.61,246.733 59.61,246.733 C59.98,247.108 60.593,247.108 60.963,246.733 C60.963,246.733 67.908,239.787 67.908,239.787 C67.908,239.787 67.908,252.376 67.908,252.376 C67.908,252.901 68.341,253.335 68.866,253.335 C68.866,253.335 74.78,253.335 74.78,253.335 C75.308,253.335 75.741,252.901 75.741,252.376 C75.741,252.376 75.741,239.787 75.741,239.787 C75.741,239.787 82.687,246.733 82.687,246.733 C83.057,247.108 83.67,247.108 84.043,246.733 C84.043,246.733 88.222,242.55 88.222,242.55 C88.598,242.177 88.598,241.567 88.222,241.197 C88.222,241.197 75.741,228.715 75.741,228.715 C75.741,228.715 75.741,212.646 75.741,212.646 C75.741,212.646 89.653,220.684 89.653,220.684 C89.653,220.684 94.223,237.728 94.223,237.728 C94.36,238.241 94.89,238.547 95.4,238.411 C95.4,238.411 101.111,236.879 101.111,236.879 C101.621,236.745 101.927,236.214 101.79,235.705 C101.79,235.705 99.245,226.218 99.245,226.218 C99.245,226.218 110.149,232.512 110.149,232.512 C110.604,232.775 111.192,232.617 111.456,232.16 C111.456,232.16 114.413,227.038 114.413,227.038 C114.677,226.579 114.522,225.991 114.064,225.73 z" fill="#00E1FF" id="Path"/>
    <path d="M93.571,197.828 C93.571,197.828 107.737,201.625 107.737,201.625 L86.996,201.625 C86.996,201.625 93.571,197.828 93.571,197.828 z M111.456,179.567 C111.456,179.567 133.513,201.625 133.513,201.625 L111.823,201.625 C111.823,201.625 113.327,196.009 113.327,196.009 C113.464,195.499 113.158,194.975 112.648,194.832 C112.648,194.832 103.161,192.293 103.161,192.293 C103.161,192.293 114.064,186.001 114.064,186.001 C114.522,185.737 114.677,185.148 114.413,184.691 C114.413,184.691 111.456,179.567 111.456,179.567 z M50.718,198.199 C50.718,198.199 56.65,201.625 56.65,201.625 L53.414,201.625 C53.414,201.625 53.414,201.541 53.414,201.541 C50.033,201.416 46.757,200.91 43.597,200.106 C43.597,200.106 50.718,198.199 50.718,198.199 z M50.114,174.545 C50.115,174.545 67.908,192.339 67.908,192.339 L67.908,199.084 C67.908,199.084 54.633,191.417 54.633,191.417 C54.633,191.417 50.115,174.545 50.114,174.545 z M88.337,170.193 C88.337,170.193 88.422,170.248 88.422,170.248 C88.422,170.248 93.79,175.616 93.79,175.616 C93.79,175.616 89.653,191.053 89.653,191.053 C89.653,191.053 75.741,199.084 75.741,199.084 L75.741,183.75 C75.741,183.75 88.222,171.267 88.222,171.267 C88.519,170.974 88.513,170.551 88.337,170.193 z M101.621,175.197 C101.621,175.197 107.292,180.869 107.292,180.869 C107.292,180.869 99.245,185.51 99.245,185.51 C99.245,185.51 101.79,176.026 101.79,176.026 C101.872,175.72 101.76,175.437 101.578,175.21 C101.578,175.21 101.621,175.197 101.621,175.197 z M75.645,159.121 C75.645,159.121 82.472,165.947 82.472,165.947 C82.472,165.947 75.741,172.678 75.741,172.678 L75.741,159.354 C75.741,159.264 75.669,159.203 75.645,159.121 z" fill="#D0D5D8" id="Composite_Path"/>
    <path d="M259.51,225.73 C259.51,225.73 248.608,219.437 248.608,219.437 C248.608,219.437 258.094,216.893 258.094,216.893 C258.604,216.759 258.91,216.232 258.774,215.719 C258.774,215.719 257.242,210.008 257.242,210.008 C257.109,209.499 256.578,209.192 256.069,209.329 C256.069,209.329 239.019,213.899 239.019,213.899 C239.019,213.899 225.104,205.865 225.104,205.865 C225.104,205.865 239.019,197.828 239.019,197.828 C239.019,197.828 256.069,202.399 256.069,202.399 C256.578,202.539 257.109,202.232 257.242,201.723 C257.242,201.723 258.774,196.009 258.774,196.009 C258.91,195.499 258.604,194.975 258.094,194.832 C258.094,194.832 248.608,192.294 248.608,192.294 C248.608,192.294 259.51,186.001 259.51,186.001 C259.969,185.737 260.124,185.148 259.86,184.691 C259.86,184.691 256.903,179.567 256.903,179.567 C256.639,179.11 256.051,178.955 255.596,179.219 C255.596,179.219 244.693,185.51 244.693,185.51 C244.693,185.51 247.238,176.026 247.238,176.026 C247.374,175.513 247.068,174.985 246.558,174.852 C246.558,174.852 240.847,173.324 240.847,173.324 C240.338,173.181 239.807,173.487 239.67,173.997 C239.67,173.997 235.1,191.053 235.1,191.053 C235.1,191.053 221.189,199.084 221.189,199.084 C221.189,199.084 221.189,183.75 221.189,183.75 C221.189,183.75 233.669,171.267 233.669,171.267 C234.045,170.897 234.045,170.285 233.669,169.915 C233.669,169.915 229.49,165.732 229.49,165.732 C229.116,165.359 228.504,165.359 228.134,165.732 C228.134,165.732 221.189,172.678 221.189,172.678 C221.189,172.678 221.189,159.355 221.189,159.355 C221.189,158.827 220.755,158.396 220.227,158.396 C220.227,158.396 214.313,158.396 214.313,158.396 C213.788,158.396 213.355,158.827 213.355,159.355 C213.355,159.355 213.355,172.678 213.355,172.678 C213.355,172.678 206.41,165.732 206.41,165.732 C206.04,165.359 205.427,165.359 205.057,165.732 C205.057,165.732 200.874,169.915 200.874,169.915 C200.502,170.285 200.502,170.897 200.874,171.267 C200.874,171.267 213.355,183.75 213.355,183.75 C213.355,183.75 213.355,199.084 213.355,199.084 C213.355,199.084 200.08,191.417 200.08,191.417 C200.08,191.417 195.513,174.367 195.513,174.367 C195.377,173.857 194.848,173.548 194.336,173.69 C194.336,173.69 188.625,175.222 188.625,175.222 C188.115,175.356 187.809,175.883 187.946,176.393 C187.946,176.393 190.49,185.879 190.49,185.879 C190.49,185.879 178.951,179.219 178.951,179.219 C178.496,178.955 177.904,179.11 177.643,179.567 C177.643,179.567 174.683,184.691 174.683,184.691 C174.423,185.148 174.577,185.737 175.036,186.001 C175.036,186.001 186.573,192.661 186.573,192.661 C186.573,192.661 177.086,195.202 177.086,195.202 C176.576,195.342 176.273,195.869 176.409,196.379 C176.409,196.379 177.938,202.09 177.938,202.09 C178.077,202.596 178.605,202.906 179.111,202.77 C179.111,202.77 196.164,198.199 196.164,198.199 C196.164,198.199 209.44,205.865 209.44,205.865 C209.44,205.865 196.164,213.532 196.164,213.532 C196.164,213.532 179.111,208.959 179.111,208.959 C178.605,208.822 178.077,209.128 177.941,209.638 C177.941,209.638 176.409,215.352 176.409,215.352 C176.273,215.862 176.576,216.39 177.086,216.523 C177.086,216.523 186.576,219.067 186.576,219.067 C186.576,219.067 175.036,225.73 175.036,225.73 C174.577,225.991 174.423,226.579 174.683,227.038 C174.683,227.038 177.643,232.16 177.643,232.16 C177.904,232.617 178.496,232.775 178.951,232.512 C178.951,232.512 190.49,225.852 190.49,225.852 C190.49,225.852 187.946,235.335 187.946,235.335 C187.809,235.848 188.115,236.375 188.625,236.508 C188.625,236.508 194.336,238.043 194.336,238.043 C194.848,238.177 195.377,237.874 195.513,237.364 C195.513,237.364 200.08,220.313 200.08,220.313 C200.08,220.313 213.355,212.646 213.355,212.646 C213.355,212.646 213.355,228.715 213.355,228.715 C213.355,228.715 200.874,241.197 200.874,241.197 C200.502,241.567 200.502,242.177 200.874,242.55 C200.874,242.55 205.057,246.733 205.057,246.733 C205.427,247.108 206.04,247.108 206.41,246.733 C206.41,246.733 213.355,239.787 213.355,239.787 C213.355,239.787 213.355,252.376 213.355,252.376 C213.355,252.901 213.788,253.335 214.313,253.335 C214.313,253.335 220.227,253.335 220.227,253.335 C220.755,253.335 221.189,252.901 221.189,252.376 C221.189,252.376 221.189,239.787 221.189,239.787 C221.189,239.787 228.134,246.733 228.134,246.733 C228.504,247.108 229.116,247.108 229.49,246.733 C229.49,246.733 233.669,242.55 233.669,242.55 C234.045,242.177 234.045,241.567 233.669,241.197 C233.669,241.197 221.189,228.715 221.189,228.715 C221.189,228.715 221.189,212.646 221.189,212.646 C221.189,212.646 235.1,220.684 235.1,220.684 C235.1,220.684 239.67,237.728 239.67,237.728 C239.807,238.241 240.338,238.547 240.847,238.411 C240.847,238.411 246.558,236.879 246.558,236.879 C247.068,236.745 247.374,236.214 247.238,235.705 C247.238,235.705 244.693,226.218 244.693,226.218 C244.693,226.218 255.596,232.512 255.596,232.512 C256.051,232.775 256.639,232.617 256.903,232.16 C256.903,232.16 259.86,227.038 259.86,227.038 C260.124,226.579 259.969,225.991 259.51,225.73 z" fill="#00E1FF" id="Path"/>
    <path d="M239.019,197.828 C239.019,197.828 247.328,200.058 247.328,200.058 C247.298,200.067 247.261,200.07 247.225,200.079 C245.587,200.452 243.919,200.764 242.233,201 C240.492,201.24 238.727,201.413 236.942,201.492 L236.942,201.625 C236.942,201.625 232.443,201.625 232.443,201.625 C232.443,201.625 239.019,197.828 239.019,197.828 z M196.164,198.199 C196.164,198.199 202.097,201.625 202.097,201.625 L183.378,201.625 C183.378,201.625 196.164,198.199 196.164,198.199 z M195.561,174.545 C195.561,174.545 213.355,192.339 213.355,192.339 L213.355,199.084 C213.355,199.084 200.08,191.417 200.08,191.417 C200.08,191.417 195.561,174.545 195.561,174.545 z M233.784,170.193 C233.784,170.193 233.869,170.248 233.869,170.248 C233.869,170.248 239.237,175.616 239.237,175.616 C239.237,175.616 235.1,191.053 235.1,191.053 C235.1,191.053 221.189,199.084 221.189,199.084 L221.189,183.75 C221.189,183.75 233.669,171.267 233.669,171.267 C233.826,171.11 233.89,170.922 233.896,170.722 C233.923,170.533 233.872,170.37 233.784,170.193 z M256.903,179.567 C256.903,179.567 268.012,190.677 268.012,190.677 C266.568,191.721 265.076,192.697 263.541,193.607 C263.53,193.61 263.524,193.616 263.514,193.622 C261.967,194.535 260.375,195.372 258.737,196.139 C258.738,196.139 258.774,196.009 258.774,196.009 C258.91,195.499 258.604,194.975 258.094,194.832 C258.094,194.832 248.608,192.293 248.608,192.293 C248.608,192.293 259.51,186.001 259.51,186.001 C259.969,185.737 260.124,185.148 259.86,184.691 C259.86,184.691 256.903,179.567 256.903,179.567 z M247.068,175.197 C247.068,175.197 252.739,180.869 252.739,180.869 C252.739,180.869 244.693,185.51 244.693,185.51 C244.693,185.51 247.238,176.026 247.238,176.026 C247.319,175.72 247.21,175.44 247.025,175.21 C247.025,175.21 247.068,175.197 247.068,175.197 z M221.091,159.121 C221.091,159.121 227.919,165.947 227.919,165.947 C227.919,165.947 221.189,172.678 221.189,172.678 L221.189,159.354 C221.189,159.264 221.115,159.203 221.091,159.121 z" fill="#D0D5D8" id="Composite_Path"/>
  </g>
</svg>
