<?xml version="1.0" encoding="UTF-8"?>
<!DOCTYPE svg PUBLIC "-//W3C//DTD SVG 1.1//EN" "http://www.w3.org/Graphics/SVG/1.1/DTD/svg11.dtd">
<svg version="1.1" xmlns="http://www.w3.org/2000/svg" xmlns:xlink="http://www.w3.org/1999/xlink" x="0" y="0" width="300" height="300" viewBox="0, 0, 300, 300">
  <g id="weather">
    <path d="M165.112,1.693 C132.019,1.693 104.007,23.281 94.281,53.124 C75.672,57.26 60.502,70.399 53.545,87.764 C28.388,88.619 8.244,109.224 8.244,134.585 C8.244,159.914 28.318,180.482 53.415,181.411 C53.415,181.411 53.415,181.496 53.415,181.496 C53.415,181.496 165.983,181.496 165.983,181.496 C165.983,181.496 165.983,1.735 165.983,1.735 C165.691,1.724 165.406,1.693 165.112,1.693 z" fill="#C0BFBF" id="Path"/>
    <path d="M239.021,67.068 C234.54,30.523 203.641,2.167 165.983,1.735 C165.983,1.735 165.983,181.496 165.983,181.496 C165.983,181.496 236.941,181.496 236.941,181.496 C236.941,181.496 236.941,181.362 236.941,181.362 C267.433,180.04 291.756,154.978 291.756,124.164 C291.756,94.054 268.525,69.416 239.021,67.068 z" fill="#B1B1B1" id="Path"/>
    <path d="M104.621,145.539 C104.621,145.539 59.316,157.706 59.316,157.706 C59.316,157.706 55.474,158.738 55.474,158.738 C50.979,160.211 46.745,162.711 43.173,166.283 C30.969,178.487 30.966,198.274 43.173,210.478 C43.173,210.478 107.613,146.036 107.613,146.036 C106.98,145.405 105.934,145.187 104.621,145.539 z" fill="#00E1FF" id="Path"/>
    <path d="M94.909,198.194 C94.909,198.194 95.943,194.317 95.943,194.317 C95.943,194.317 108.111,149.02 108.111,149.02 C108.462,147.723 108.244,146.667 107.613,146.036 C107.613,146.036 43.173,210.478 43.173,210.478 C55.371,222.669 75.16,222.669 87.364,210.478 C90.927,206.911 93.423,202.689 94.909,198.194 z" fill="#00C6F4" id="Path"/>
    <path d="M108.111,149.02 C108.111,149.02 99.389,181.496 99.389,181.496 C99.389,181.496 143.07,181.496 143.07,181.496 C143.07,181.496 107.613,146.036 107.613,146.036 C108.244,146.667 108.462,147.723 108.111,149.02 z" fill="#9B9C9C" id="Path"/>
    <path d="M252.299,158.41 C252.299,158.41 246.464,180.113 246.464,180.113 C254.113,178.476 261.204,175.345 267.384,171.002 C267.384,171.002 251.802,155.414 251.802,155.414 C252.433,156.045 252.651,157.094 252.299,158.41 z" fill="#7D7F80" id="Path"/>
    <path d="M248.812,154.917 C248.812,154.917 203.508,167.084 203.508,167.084 C203.508,167.084 199.662,168.115 199.662,168.115 C195.161,169.595 190.934,172.094 187.361,175.66 C175.157,187.865 175.157,207.651 187.361,219.855 C187.361,219.855 251.802,155.414 251.802,155.414 C251.171,154.782 250.128,154.564 248.812,154.917 z" fill="#00E1FF" id="Path"/>
    <path d="M239.101,207.578 C239.101,207.578 240.132,203.696 240.132,203.696 C240.132,203.696 252.299,158.41 252.299,158.41 C252.651,157.094 252.433,156.045 251.802,155.414 C251.802,155.414 187.361,219.855 187.361,219.855 C199.565,232.059 219.351,232.059 231.555,219.855 C235.122,216.288 237.615,212.066 239.101,207.578 z" fill="#00C6F4" id="Path"/>
    <path d="M174.796,181.496 C174.796,181.496 123.475,181.496 123.475,181.496 C123.475,181.496 100.881,238.151 100.881,238.151 C100.881,238.151 137.144,238.151 137.144,238.151 C137.144,238.151 114.971,298.307 114.971,298.307 C114.971,298.307 186.806,217.516 186.806,217.516 C186.806,217.516 150.774,217.516 150.774,217.516 C150.774,217.516 174.796,181.496 174.796,181.496 z" fill="#FFDA24" id="Path"/>
    <path d="M174.796,181.496 C174.796,181.496 123.475,181.496 123.475,181.496 C123.475,181.496 123.424,181.626 123.424,181.626 C123.424,181.626 154.191,212.394 154.191,212.394 C154.191,212.394 174.796,181.496 174.796,181.496 z" fill="#FFA300" id="Path"/>
  </g>
</svg>
