<?xml version="1.0" encoding="UTF-8"?>
<!DOCTYPE svg PUBLIC "-//W3C//DTD SVG 1.1//EN" "http://www.w3.org/Graphics/SVG/1.1/DTD/svg11.dtd">
<svg version="1.1" xmlns="http://www.w3.org/2000/svg" xmlns:xlink="http://www.w3.org/1999/xlink" x="0" y="0" width="300" height="300" viewBox="0, 0, 300, 300">
  <g id="Background">
    <rect x="0" y="0" width="300" height="300" fill="#FFFFFF" fill-opacity="0"/>
  </g>
  <g id="Layer_1">
    <path d="M165.112,25.549 C132.019,25.549 104.008,47.137 94.282,76.979 C75.672,81.116 60.502,94.254 53.545,111.62 C28.388,112.476 8.244,133.08 8.244,158.441 C8.244,183.771 28.318,204.339 53.415,205.267 C53.415,205.267 53.415,205.352 53.415,205.352 C53.415,205.352 165.983,205.352 165.983,205.352 C165.983,205.352 165.983,25.592 165.983,25.592 C165.692,25.58 165.407,25.549 165.112,25.549 z" fill="#FFFFFF" id="Path"/>
    <path d="M239.022,90.924 C234.539,54.378 203.642,26.022 165.983,25.592 C165.983,25.592 165.983,205.352 165.983,205.352 C165.983,205.352 236.941,205.352 236.941,205.352 C236.941,205.352 236.941,205.218 236.941,205.218 C267.433,203.895 291.756,178.832 291.756,148.02 C291.756,117.909 268.525,93.272 239.022,90.924 z" fill="#F2F4F9" id="Path"/>
    <path d="M152.948,170.273 C152.948,172.049 151.496,173.498 149.727,173.498 C149.727,173.498 45.751,173.498 45.751,173.498 C43.982,173.498 42.53,172.049 42.53,170.273 C42.53,170.273 42.53,163.29 42.53,163.29 C42.53,161.516 43.982,160.062 45.751,160.062 C45.751,160.062 149.727,160.062 149.727,160.062 C151.496,160.062 152.948,161.516 152.948,163.29 C152.948,163.29 152.948,170.273 152.948,170.273 z" fill="#00E1FF" id="Path"/>
    <path d="M152.948,247.374 C152.948,249.145 151.496,250.602 149.727,250.602 C149.727,250.602 45.751,250.602 45.751,250.602 C43.982,250.602 42.53,249.145 42.53,247.374 C42.53,247.374 42.53,240.398 42.53,240.398 C42.53,238.628 43.982,237.16 45.751,237.16 C45.751,237.16 149.727,237.16 149.727,237.16 C151.496,237.16 152.948,238.628 152.948,240.398 C152.948,240.398 152.948,247.374 152.948,247.374 z" fill="#00E1FF" id="Path"/>
    <path d="M172.294,208.421 C172.294,210.192 170.845,211.636 169.067,211.636 C169.067,211.636 100.826,211.636 100.826,211.636 C99.058,211.636 97.606,210.192 97.606,208.421 C97.606,208.421 97.606,201.433 97.606,201.433 C97.606,199.665 99.058,198.212 100.826,198.212 C100.826,198.212 169.067,198.212 169.067,198.212 C170.845,198.212 172.294,199.665 172.294,201.433 C172.294,201.433 172.294,208.421 172.294,208.421 z" fill="#00E1FF" id="Path"/>
    <path d="M229.835,122.019 C223.123,122.73 218.845,126.098 218.845,126.098 C218.845,126.098 218.845,126.098 218.374,125.013 C216.567,125.489 212.606,127.02 212.606,127.02 C212.606,127.02 212.606,127.02 212.646,125.435 C210.016,126.216 205.918,131.533 204.751,131.533 C201.797,126.347 199.617,125.981 199.617,125.981 C199.617,125.981 199.617,125.981 198.898,130.214 C193.263,119.402 186.721,116.372 186.703,116.273 C185.396,119.79 185.581,130.127 185.581,130.127 C185.581,130.127 185.581,130.127 183.431,128.813 C182.16,132.27 183.518,138.457 183.518,138.457 C183.518,138.457 181.044,137.517 178.305,137.01 C177.838,140.289 178.893,141.894 179.852,144.325 C179.254,144.225 179.243,144.095 175.036,143.961 C169.425,143.725 166.171,147.335 166.171,147.335 C166.171,147.335 166.171,147.335 167.205,150.075 C170.205,158.78 176.352,159.535 176.352,159.535 C176.352,159.535 176.352,159.535 172.418,159.735 C174.957,165.243 181.223,164.916 181.223,164.916 C181.223,164.916 181.223,164.916 178.16,165.886 C182.015,170.765 187.758,170.638 187.758,170.638 C187.758,170.638 187.758,170.638 186.024,171.842 C187.34,173.101 190.773,172.977 192.892,172.94 C192.892,172.94 233.602,121.686 233.602,121.686 C233.602,121.686 233.602,121.686 229.835,122.019 z" fill="#98D24D" id="Path"/>
    <path d="M225.938,183.864 C224.81,179.812 224.682,179.824 224.44,179.272 C227.03,179.615 228.849,180.262 231.916,179.033 C230.779,176.494 229.277,174.312 229.277,174.312 C229.277,174.312 235.598,174.153 238.658,172.097 L236.871,170.316 C236.871,170.316 246.955,168.048 250.058,165.929 C249.958,165.94 245.457,160.314 233.612,157.412 L237.56,155.702 C237.56,155.702 236.68,153.677 230.939,152.041 C230.651,150.907 234.852,145.666 234.982,142.915 L233.451,143.337 C233.451,143.337 233.996,139.118 234.03,137.25 L232.866,137.059 C232.866,137.059 235.116,132.103 234.208,125.407 L233.636,121.677 C233.636,121.677 232.738,122.796 232.738,122.796 C232.738,122.796 233.602,121.686 233.602,121.686 C233.602,121.686 192.892,172.94 192.892,172.94 C192.389,173.413 189.427,175.148 181.356,178.817 C173.289,182.481 169.877,181.845 168.698,182.051 C167.515,182.272 167.903,183.436 167.903,183.436 C167.903,183.436 167.909,184.753 169.549,184.671 C171.181,184.58 177.244,183.906 185.49,179.181 C188.58,177.416 191.698,176.152 193.829,174.651 C194.316,176.643 195.031,179.054 196.253,179.821 L197.005,177.854 C197.005,177.854 198.242,183.464 203.908,186.041 L204.124,182.836 C204.124,182.836 205.294,189.002 211.245,190.161 L210.504,186.29 C210.504,186.29 212.697,192.077 221.874,192.927 L224.777,193.266 C224.777,193.266 227.512,189.257 225.938,183.864 z" fill="#83BA36" id="Path"/>
    <path d="M178.329,245.506 C177.905,264.807 199.113,268.361 201.375,268.835 C208.506,269.938 238.701,273.711 241.467,274.451 C241.467,274.451 217.368,248.211 181.381,233.788 C178.505,239.779 178.409,243.517 178.329,245.506 z" fill="#83BA36" id="Path"/>
    <path d="M157.649,229.02 C169.158,227.854 180.476,233.46 181.381,233.788 C217.368,248.211 241.467,274.451 241.467,274.451 C239.798,271.175 239.21,267.087 238.185,259.505 C236.174,245.106 230.266,237.245 228.216,234.794 C205.904,212.254 184.534,230.706 181.926,232.514 C166.889,226.133 156.951,227.759 156.951,227.759 C156.951,227.759 156.293,227.782 156.42,228.389 C156.572,229.08 157.076,229.056 157.649,229.02 z" fill="#98D24D" id="Path"/>
    <path d="M233.644,121.726 C233.645,121.726 285.633,173.714 285.633,173.714 C276.559,191.723 258.277,204.293 236.941,205.218 L236.941,205.352 C236.941,205.352 172.294,205.352 172.294,205.352 L172.294,201.433 C172.294,199.665 170.845,198.212 169.067,198.212 L100.826,198.212 C99.058,198.212 97.606,199.665 97.606,201.433 L97.606,205.352 C97.606,205.352 76.388,205.352 76.388,205.352 C76.388,205.352 43.819,172.782 43.819,172.782 C44.362,173.204 45.014,173.498 45.751,173.498 L149.727,173.498 C151.496,173.498 152.948,172.049 152.948,170.273 L152.948,163.29 C152.948,162.789 152.808,162.328 152.605,161.906 C152.605,161.906 172.431,181.732 172.431,181.732 C170.429,182.054 169.286,181.948 168.698,182.051 C167.515,182.272 167.903,183.437 167.903,183.436 C167.903,183.437 167.909,184.753 169.549,184.671 C171.181,184.58 177.244,183.906 185.49,179.181 C188.58,177.416 191.698,176.152 193.829,174.651 C194.316,176.644 195.031,179.054 196.253,179.821 C197.005,177.854 197.005,177.854 197.005,177.854 C197.005,177.854 198.243,183.464 203.908,186.041 C204.124,182.836 204.124,182.836 204.124,182.836 C204.124,182.836 205.294,189.002 211.245,190.161 C210.504,186.29 210.504,186.29 210.504,186.29 C210.504,186.29 212.697,192.077 221.874,192.927 C224.777,193.266 224.777,193.266 224.777,193.266 C224.777,193.266 227.512,189.257 225.938,183.864 C224.811,179.812 224.683,179.824 224.44,179.272 C227.03,179.615 228.85,180.262 231.916,179.033 C230.779,176.494 229.277,174.312 229.277,174.312 C229.277,174.312 235.598,174.153 238.658,172.097 C236.872,170.316 236.872,170.316 236.871,170.316 C236.872,170.316 246.956,168.048 250.058,165.929 C249.958,165.94 245.457,160.314 233.612,157.412 C237.56,155.702 237.56,155.702 237.56,155.702 C237.56,155.702 236.68,153.677 230.939,152.041 C230.651,150.907 234.852,145.666 234.982,142.915 C233.451,143.337 233.451,143.337 233.451,143.337 C233.451,143.337 233.997,139.118 234.03,137.25 C232.866,137.06 232.866,137.06 232.866,137.059 C232.866,137.06 235.116,132.104 234.208,125.407 C233.76,122.48 233.663,121.864 233.644,121.726 z M233.602,121.686 C233.602,121.686 233.618,121.7 233.618,121.7 C233.618,121.7 232.738,122.796 232.738,122.796 C232.738,122.796 233.602,121.686 233.602,121.686 z" fill="#D0D5D8" id="Composite_Path"/>
  </g>
</svg>

